/* XPM */
static char *lp1[] = {
/* columns rows colors chars-per-pixel */
"64 64 195 2 ",
"   c #361F10",
".  c #381F10",
"X  c #3A2316",
"o  c #372519",
"O  c #3B261B",
"+  c #3D291E",
"@  c #3F2C21",
"#  c #432B1D",
"$  c #452A1C",
"%  c #653C1E",
"&  c #442E22",
"*  c #492F21",
"=  c #463225",
"-  c #4A3325",
";  c #46342A",
":  c #4B362A",
">  c #4E392C",
",  c #523623",
"<  c #5C3C27",
"1  c #513729",
"2  c #543B2C",
"3  c #5A3E2C",
"4  c #4C3B33",
"5  c #543E31",
"6  c #593F31",
"7  c #613F2A",
"8  c #5D412E",
"9  c #564134",
"0  c #5C4233",
"q  c #55453C",
"w  c #59463D",
"e  c #5B493F",
"r  c #63442E",
"t  c #69462E",
"y  c #6B492F",
"u  c #634633",
"i  c #684732",
"p  c #664935",
"a  c #6B4C36",
"s  c #664C3B",
"d  c #6D4E39",
"f  c #704E36",
"g  c #714F39",
"h  c #6F5037",
"j  c #6E503A",
"k  c #725137",
"l  c #73523A",
"z  c #79563C",
"x  c #7A583E",
"c  c #584740",
"v  c #574940",
"b  c #5C4B42",
"n  c #5D5149",
"m  c #5D5046",
"M  c #624E43",
"N  c #655145",
"B  c #6C5343",
"V  c #6F5846",
"C  c #65534A",
"Z  c #6A554B",
"A  c #6E5A4D",
"S  c #735642",
"D  c #785740",
"F  c #765944",
"G  c #7A5B44",
"H  c #715748",
"J  c #735C4D",
"K  c #7C5F4B",
"L  c #675A54",
"P  c #6C5B52",
"I  c #745E52",
"U  c #7E624D",
"Y  c #766154",
"T  c #7B6253",
"R  c #74635B",
"E  c #7B6659",
"W  c #7C695B",
"Q  c #6D6160",
"!  c #776861",
"~  c #7B6C64",
"^  c #776C68",
"/  c #7E726A",
"(  c #805F47",
")  c #81644E",
"_  c #836652",
"`  c #856954",
"'  c #886B53",
"]  c #826B5B",
"[  c #8A6E5A",
"{  c #83705F",
"}  c #8B715E",
"|  c #826E62",
" . c #847165",
".. c #8D7463",
"X. c #84746A",
"o. c #8B766A",
"O. c #86786D",
"+. c #8A796E",
"@. c #907562",
"#. c #927965",
"$. c #947C6B",
"%. c #997F6E",
"&. c #857972",
"*. c #8C7C73",
"=. c #8C7F79",
"-. c #857771",
";. c #907E73",
":. c #997F70",
">. c #97806F",
",. c #99826F",
"<. c #8E817A",
"1. c #8D8076",
"2. c #928176",
"3. c #9C8574",
"4. c #9E8877",
"5. c #93847C",
"6. c #9D877A",
"7. c #99887F",
"8. c #96897F",
"9. c #A08876",
"0. c #A18B7B",
"q. c #928681",
"w. c #958983",
"e. c #9A8C85",
"r. c #9A8E89",
"t. c #948C89",
"y. c #9D9087",
"u. c #96908C",
"i. c #9D928D",
"p. c #9D9591",
"a. c #A99485",
"s. c #A1948C",
"d. c #AA9688",
"f. c #AC9A8D",
"g. c #A79283",
"h. c #A19691",
"j. c #A59994",
"k. c #AA9D93",
"l. c #A59D99",
"z. c #AA9F9A",
"x. c #B19E91",
"c. c #A7A09B",
"v. c #ACA19B",
"b. c #ACA095",
"n. c #B5A295",
"m. c #B9A797",
"M. c #B1A59E",
"N. c #B8A698",
"B. c #BBAA97",
"V. c #ACA4A1",
"C. c #AFA8A3",
"Z. c #B1A6A1",
"A. c #B4AAA5",
"S. c #B5ADAA",
"D. c #BBADA6",
"F. c #B6B0AD",
"G. c #BAB2AC",
"H. c #BDB5B2",
"J. c #BEB8B7",
"K. c #BEBBBB",
"L. c #C3B5AC",
"P. c #C2B8AE",
"I. c #C2BAB5",
"U. c #C3BDBA",
"Y. c #C9BFB9",
"T. c #C0B7B4",
"R. c #C7C0BD",
"E. c #CBC3BD",
"W. c #CCC0B6",
"Q. c #D3C8BE",
"!. c #CBC5C2",
"~. c #CCC8C5",
"^. c #CECAC9",
"/. c #C6C4C4",
"(. c #D2CAC5",
"). c #D3CECC",
"_. c #D6D1CD",
"`. c #DCD2C8",
"'. c #D7D3D1",
"]. c #DAD5D2",
"[. c #DED9D5",
"{. c #DDDAD8",
"}. c #E1DDDA",
"|. c #E0DBD7",
" X c #E5E2DE",
".X c #E9E5DF",
"XX c #EAE6E3",
"oX c #EDE9E5",
"OX c #EEEBE9",
"+X c #E4E1E0",
"@X c #F1EFED",
"#X c #F3F1EE",
"$X c #F7F5F1",
"%X c white",
"&X c #FAF7F2",
/* pixels */
"+ o o + @ o c n c c c c c c c c c c c c b b c b b q b w w w w q q q q q q q q q q q q q q c c c c b c c w w w w w w w w w o O o ",
"+ + @ @ & & C 4 ; > ; ; - > - 4 ; > & > > > > > > > : > : > ; : = = = = = = = = - - > - ; > ; ; ; ; ; ; ; 4 & 4 ; ; 4 & b & @ @ ",
"+ # = = * > Z - - * & - - & * - & * & * & * * > * $ # : > * & & & # & # + # = & - + O - - & & - ; & & & $ ; & $ & $ $ $ b 1 & & ",
"= : : 1 * B M 2 2 > 2 2 2 2 2 2 , 2 2 2 2 2 1 5 > L 4 $ $ * * I P 1 , Z I 1 = & + 2 L > 1 1 1 4 1 1 1 1 ; 4 1 ; 4 ; 1 1 6 C $ 4 ",
"= 1 > > M I 5 6 6 6 6 6 6 6 7 6 < 6 < B 6 6 1 & P G.M E ^ ; ; Q ^ Z b ! Q 4 @ Q I M A.! $ 3 6 6 M 6 6 6 3 6 6 6 6 6 6 6 6 H M 1 ",
"1 1 s J I r p 0 M a 7 p 7 7 p p p 6 M h.k.5.P 4 4 t._._.z.h.l.R.!.K.H.^.R.b.p.V.(.].r.L - L =.y.z.M 6 6 6 6 u u 6 6 u 6 6 6 ( Z ",
"1 Y J B r a p a a 7 6 a a a p p p a e./ h.=.D.^.K.].!.P *.*.D.$X+X).^.{.&XH.<.*.A T.}.H./.H.=.z.X.t.s 6 i s u 7 i i u i i 6 6 B ",
"9 J < r a a a a a a p a a a a a p p a X.B y.].].oX!.A.!.w.Z J.).].).].].].K.A O./.A.U.oX].}.j.B | Z ] M 6 i s 6 i i i i i u i 6 ",
"6 A 0 a a a S a M a a a a g a 7 S e.K j 8 Z.@X(. .B E | =.V.z.p.I.}. XU.p.l.V.5.W | M  .(.@XL.3 H 6 7.7.s i g i u i i i s i i u ",
"5 A p p a a a a g a a g g a 7 | e.5.a a ..k.| J < a 7 a i p p p 0 M.G.0 6 p 8 8 8 < i < H @.z.o.i i Z 7.h.H i s i i g s g g i i ",
"2 I 7 p p a B a a a a a a a :.R.5.B a a J r < p g g g g g g i a p p 8 r i i p p p a a g a 7 p K i g 6 E R.Z.g s B i B s g g s i ",
"5 J 6 p p B a a a a B a 3  .r.l.J a S a a a a a a g g g g g g g a a a a i i i i i i a a l B a i s g g Z 7.h.=.6 u i i s i s s i ",
"5 J p p p a a a g g a K :.l.e.*.| a z j l g g g a g a g g g g g a a i a a a a a a a g g g a g g g g i | =.;.S.h.H g i s s s i i ",
"5 J 6 p s a a a a B 7 :.XXl. .:.S a a a g g g g B g a f g g l f f a a i a a g f a a i g g g g g g g s i r.<.Z.OX:.6 g i g i s i ",
"1 J 6 p a a g g B i | z.Z.U.'.q.i g a g i g l l f l a a a g a f a a i i i a a a a g a i g g g g g g g i ;.OX^.z.z.E i g s g s s ",
"9 J 0 p p a i B 7 X.e.e.X.}.L.a S g g g a a g l a a a l g f f f a a a f a i p a a a a g f g i g g i g g 6 T.).| h.7.E i g g g i ",
"9 J 0 p p p h p T I.b.+.w.s.p z j j z h h a j z g g a g z g f a i i 7 i a a a a B 7 7 g 7 ( 7 7 s g g g s i r.;.5.T.z.u g B i i ",
"1 J 8 p h h a p 5.i.Y O.U y a z z z j h j a a j z a a g g g g i S ' [ K i a a i 7 g D D D 7 ( ( g g s g B i 6 ] | 7.z.] u g s u ",
"9 J 0 h a h p 5.y.V 8 j p z z x z h j z a B a j z a g g z f z i [ L.(.x.7 B a a D 7 D 7 g g ( 7 g g g g g s B i s u ;.h.H i g u ",
"0 I 8 a p h y { j p j h a j j z z a j h z a a z g g g g g g g t [ Y.Y.x.i a B a g D D 7 g g 7 ( g s g s s i i i i i s 7.] i s i ",
"9 I 8 p p h F 8 a j j j z j z z z j z j a S a z a g a g g g g g g [ ) U i a a a 7 g g g g 7 g 7 g s g i i s s g s g i u g H i s ",
"9 I 8 a p  .1.j a j j h j h h j a j j j j a a a S g B g z a g [ [ g z S ( D a a B g g g g g g z g g s i i g g s i s i u | 5.H i ",
"9 Y 8 a y 5.1.s ] h j h h j h j z j a j a a j z a B a z a a D ( ) ) K T ' ( a g g g g g g g z g g g i s g g g g g i ] ( ] j.g i ",
"8 Y 8 a 8 W c.^.] p z j j z j z z j z z a s j j z a S g g S g g a a i a a a g l g g l g g f g g g g g g g g i g g s i U.T.-.s i ",
"9 V y a 8 9 ^.E.a l x x z h h k z j z j a a j j j a j j g a a B a f a a g a z z f z f f z f z z ( g g g i g g g g g 6 x.OXQ 3 i ",
"9 V p 8 R &.).1.8 j l l z j h j j z z j z a j j a z z j S a g a f k g a g g k a f g f z z f z z g g g H g g g g g H g ( '.w.X.u ",
"9 I p p A G.Q./ p h l x z j j h z a a a s j z a U z j z a a a g z f f z r a z a f z ( 7 f g z z g z g g g g z g H z g ( F.!.| 6 ",
"9 Y p p p b.i.1.p l h l j j h x S S F j z j a ..+.a a j z z g a a D #.m.D.z k a f g g ( g g f ' _ i g g s g g g z z 7 [ j.j.] 6 ",
"9 I p a 9 w./ 1.h S j j j j x F $.+.U K z a $.#.z a a j z j g f x 9.z ' $X) f G _ _ ( ( ( 7 @.:.( g g g H D g z z D 7 ;.o.r.C 6 ",
"9 U p a 9 8.K.p.h l j h j j p 4.4.z _ S a ..4.a j j z a a S z t 0.' % L.Q.f x @.:.( _ 7 7 @.:.g g g g i 7 z g z z H z 5.T.Z.M i ",
"9 U p a R G.#Xc.9 l h h j j x n.U $.:.f.4.g.4.f...4.4.4.4...a a ,.' x.`.) t ` x.( _ _ _ _ a._ _ ( [ _ ( ( H g g z z 6 ;.OX].X.B ",
"9 U 8 p p C.'.]./ t a l j s j #.g.$.$.,.#...$.>...4.` 0.s.S f t y x.B.k f t ,.#.:.:.N.a.d.:.n.a.:.f.6.j.a.D z g g g ( ^.].U.( 6 ",
"9 Y p a s V.].].| p j a g a z @.$.p a g g a f a a f p 4._ a g $.B.#.x @.k a k 9.4.z ) G ( G ) G ) G G g.) g z a S z S E.].U.I s ",
"9 U y p W G.#Xl.< g a S g K ] +.g g S D S g g D D g | 4.a D :.m.`.Q.m.G a z _ 4.f f f f f f f f f r @.,.f S g a z D p o.oX].X.B ",
"> U r p 1 q.H.i.s a B a a ` W z D g g g g a g S z g 4.S g z D t z ' k t z } } z f z z f f g g z a K g.z a z z g g S i ;.G.M.w p ",
"> P w p 9 q.X.*.a a a a S a z j g z g z B S B g g S z S a z a S z a f k a U z a k f k z g a f g a ` ) a z z g z z g a ..X.e.M i ",
"9 U 9 w 9 b.p.1.0 j j j j z z z S z a B g z a S S a z z z S z z z k f z h a a a f z z z z a a z z a a j z j g g a z i ` k.M.K p ",
"9 A 8 y A G.^.W p j j B j j j S z z g g B a S g z z z a a g z a z k z k h z h h k z z f z z a a a z z z z a z g z z g J H.!. .6 ",
"> A 8 p Y / ).+.r B j z j z x x g B S z j z z z z S D z g z z z z a k k k h a k z z z g z a z z z z g j a a z g g S f S ].q.~ p ",
"9 U 0 p 1 5 ).!.s j j j j z x j g a g a g S a g z z z z z D a a z h a k f k f k k k f z a z g g a a a z z a a S g z i Z.XX! , g ",
"9 A 8 p p R b.^.W y j j x x j h a a j j j j S j z z z a z z z S f a a a k k k k f k k z z a z a a z a z a g z g z g S I.D.*.f f ",
"9 A w p 8 8.&.s W s j j j j z s a a a j j a a z z z z a g a a z j z z k k k k k k z z k j z a z g g S j g g z z z a U J Y h.a p ",
"9 A 8 s w X.1.w p j j z j j j j a a z j s j a a z j z z z a z j a z k z z k z k k k k f z a z j z a j a a S a S g a a i | *.a a ",
"9 I 8 p a a N y j j j j j j j h B a a a a a a j z a a j a z a a h k h a h h a h z z z f z a a j S a a a z z g S g z z i a a i a ",
"9 U w p a a p R p h j j j j a j j h j s a s j j j h j a a h a l z a a z h k k h f z z z j k a j a j z a S g g a g z f o.E i g i ",
"9 V 8 p a a a p.8.s p a j a s j s j h a j a z j z j j z j h h l k a h k h k k j a a f z z z z j z a a a g g z a f f o.z.J i a p ",
"9 N 9 p a a w Y i.O.j W 8 j j s j j j a j j a j j j j j h j a h h a k a a k a a k a z h h z a j a z j a g g i S ` | h.| p a p p ",
"9 I 9 p p a a y 8.R.1.8.^ a h j h z z j a j a j j a h h h h a h h h k a j h h h f k a z z h a j z z B a S i K q.=.D.T.B f g i p ",
"9 A 9 p s h h s V C.j.O.c.b.a l j j j x j l l l p p h h k l y h h h h a a h h j a h a z j z a z a a a B p ~ !.-.w.j.*.r g g a a ",
"9 N 8 8 p p s h y Y p.u.p.%Xp.8 j h j j j j l p h h h l y y x h h a h h t h a h z k a j a a a a B z z a a ].oXq.V.;.a g z a a p ",
"9 V 9 a s s h h p p Y E.R.I.R.U a j j j S l l l x S ' ' Y U U Y x z U _ G U U ` ` U G z j j a z a S j p ;.U.Z.}.z.p g S g a a a ",
"9 I 9 p p s s s p p 8 P.).O.O./ p j h h l h p h x U U U U U U ' @.U x U ` } ) U U U U z a z j a g z a a =.~ i.!.;.7 a a a a B p ",
"9 N 9 8 y a h p a a p p 1.l.<.1.Y y a h l j j h p h a p a h j j U k h t z j a a a a a a g a z a a a p K *.q.h.J 6 a a a a B a p ",
"9 A 8 p p h p s a s s 8 j 8.G.^ 9 j l h a j j j h h h h h a a a p h j h h a a a a a a f a a j a a a p p e.S.X.s g B 7 a a p a p ",
"9 A 8 p p h s h a p a s 8 U H.c.V a l a j 8 a a h h j j h a a l h r y h h k z j h a a z z a p a a a p R S.z.s i a a a a g M p 7 ",
"9 N 9 9 0 s h s h s a a s 8 V 8.u.p h p 1.1.N a h h h h p 8 8 y < 2.2.8 a r r r a a k a a a X.*.p a S e.*.a p a a a a a a a a p ",
"9 Y 0 8 p p p p a p p s p h 0 s u.W y a p I. XG.A s J B  .i.<.&.j. X+Xj.&.5.i.X.B J p B D.}.U.s a i | w.6 a g M a M B 7 B 7 B 7 ",
"9 J Y J s p p p p p a p p h p p p p 8 / 9 p..X'.].z.b.K.<.O.K.!.{._.].{./.K.&.1.U.A.h.).].}.s.0  .7 i g g a a a 7 g a a g g 7 B ",
"= > 9 j W j y p p p p p p h p h a a 8.~ 8.8.I. X].oXS.X.8.Y S.oX].^.^.].OXF.I 5.&.b.XX{.}.U.q.=.! q.B 7 M g a a B g g a B 7 ] ) ",
"= 9 8 8 p W p y p 9 p 8 p p p p y w Y p.C.1./ L L p.oXV.4.M.G..X X^.^.].oXH.b.q.l.OXp.n P / *.A.r.E M p a 7 p p 7 B 7 g 7 ) H 6 ",
"= , 9 9 > p J > 8 8 8 8 8 0 8 p y 9 , W s B > X R V.Y b.u.m m ^ <.~ ! <./ n m u.b.W b.R . > B M | 3 6 7 p 6 p 7 a 7 a 7 B I 6 6 ",
"= , 9 , 9 9 J 9 > > > 9 9 , , 9 9 1 1 , 1 1 1 1 > &.4 X O + & Y L 1 1 A R @ X X . 4 =.4 2 < , 2 1 6 5 6 6 6 6 6 6 6 6 6 I 7 6 6 ",
"@ = @ = 9 @ Y e 0 0 0 e 0 p 0 9 9 9 0 9 9 9 9 9 1 = ; 9 0 0 8 w 9 9 9 0 0 9 0 0 0 > > 1 6 6 6 6 6 6 6 w 6 6 6 6 6 6 6 6 Z 1 1 1 ",
"@ @ = @ = = 9 m m e e m e e m e s m N m N m N m m N N m N m N N s N N m N N N N N N B C M C M M C Z Z Z C C C C Z Z Z Z e - - - "
};
