/* XPM */
static char *lp2[] = {
/* columns rows colors chars-per-pixel */
"64 64 238 2 ",
"   c #040404",
".  c #030709",
"X  c #060A0A",
"o  c #0C0D0C",
"O  c #0A0806",
"+  c #120E0C",
"@  c #1A0C0B",
"#  c #0E100E",
"$  c #11110E",
"%  c #1B110E",
"&  c #0B0E11",
"*  c #0E1111",
"=  c #141412",
"-  c #1A1613",
";  c #161916",
":  c #1A1916",
">  c #161919",
",  c #1D1D1B",
"<  c #141618",
"1  c #100F10",
"2  c #24180E",
"3  c #231612",
"4  c #241A15",
"5  c #2A1D17",
"6  c #221E1C",
"7  c #2A1E1A",
"8  c #2C1713",
"9  c #341E17",
"0  c #1F211E",
"q  c #22211E",
"w  c #2B241D",
"e  c #33241D",
"r  c #3A241C",
"t  c #3C2A1D",
"y  c #33261A",
"u  c #1A1E21",
"i  c #1D2022",
"p  c #242423",
"a  c #2B2522",
"s  c #262827",
"d  c #292926",
"f  c #272929",
"g  c #2C2C2B",
"h  c #322522",
"j  c #3B2621",
"k  c #352A24",
"l  c #3B2C25",
"z  c #322E2B",
"x  c #3C2E29",
"c  c #2E302F",
"v  c #32302D",
"b  c #3B322B",
"n  c #3D3326",
"m  c #2E2F31",
"M  c #2F3130",
"N  c #323433",
"B  c #363837",
"V  c #353739",
"C  c #373939",
"Z  c #3A3C3C",
"A  c #3D3931",
"S  c #421F1A",
"D  c #43251B",
"F  c #442B1D",
"G  c #4A2A1B",
"H  c #4E2E1C",
"J  c #442C22",
"K  c #4A2D22",
"L  c #442F2A",
"P  c #542D22",
"I  c #5A2F25",
"U  c #443224",
"Y  c #4C3224",
"T  c #43332B",
"R  c #4C342B",
"E  c #4C382C",
"W  c #463A2B",
"Q  c #543323",
"!  c #5B3425",
"~  c #5C3A25",
"^  c #5C3C2B",
"/  c #553729",
"(  c #443B33",
")  c #4C3D33",
"_  c #423F3C",
"`  c #593C32",
"'  c #643524",
"]  c #633B26",
"[  c #643C2A",
"{  c #6B3C2B",
"}  c #673728",
"|  c #723D2A",
" . c #763D2A",
".. c #643D33",
"X. c #3E403F",
"o. c #5C4129",
"O. c #594128",
"+. c #4B4338",
"@. c #544333",
"#. c #5D4C3C",
"$. c #574636",
"%. c #4F402D",
"&. c #63432A",
"*. c #6C442A",
"=. c #6D4C2B",
"-. c #664428",
";. c #73442C",
":. c #7C432C",
">. c #734C2B",
",. c #774B29",
"<. c #75532B",
"1. c #7A542D",
"2. c #7C5A2E",
"3. c #6C4334",
"4. c #664835",
"5. c #734434",
"6. c #7B4535",
"7. c #7C4C34",
"8. c #7C4C3A",
"9. c #734B37",
"0. c #7B5631",
"q. c #7C5A33",
"w. c #775537",
"e. c #6B5138",
"r. c #7A613F",
"t. c #72421F",
"y. c #3C3F41",
"u. c #3E4142",
"i. c #424445",
"p. c #46494A",
"a. c #4A4C4D",
"s. c #474747",
"d. c #4F5051",
"f. c #515253",
"g. c #5A5A56",
"h. c #555759",
"j. c #5A5A5C",
"k. c #585759",
"l. c #54514B",
"z. c #765B45",
"x. c #605D5C",
"c. c #665444",
"v. c #7D6349",
"b. c #646159",
"n. c #796B58",
"m. c #757577",
"M. c #6F6F6D",
"N. c #88482E",
"B. c #844D33",
"V. c #894B36",
"C. c #974E36",
"Z. c #885538",
"A. c #9A5637",
"S. c #94492A",
"D. c #A45C3C",
"F. c #A95838",
"G. c #B55C39",
"H. c #A94E2B",
"J. c #90643B",
"K. c #B3633C",
"L. c #BC643D",
"P. c #B86939",
"I. c #AC683A",
"U. c #C6693E",
"Y. c #C5693A",
"T. c #C8743D",
"R. c #CF6E36",
"E. c #C2582E",
"W. c #8E5442",
"Q. c #A65F42",
"!. c #886848",
"~. c #956846",
"^. c #99734D",
"/. c #866951",
"(. c #956E51",
"). c #897658",
"_. c #9B7856",
"`. c #A76A44",
"'. c #B86844",
"]. c #AB7849",
"[. c #B97445",
"{. c #AC7B55",
"}. c #8F7C63",
"|. c #A17C68",
" X c #C56A41",
".X c #CC7B43",
"XX c #C57844",
"oX c #D57844",
"OX c #C97B52",
"+X c #BC853E",
"@X c #CD833D",
"#X c #BA8A5C",
"$X c #B58551",
"%X c #998567",
"&X c #968A72",
"*X c #A68C6A",
"=X c #BA8A66",
"-X c #AF9774",
";X c #B3A27E",
":X c #CC8449",
">X c #D68849",
",X c #DC924C",
"<X c #C68954",
"1X c #D78B50",
"2X c #CD945D",
"3X c #C7955C",
"4X c #D2965E",
"5X c #D59A5D",
"6X c #D89A58",
"7X c #E29B58",
"8X c #D9A55B",
"9X c #E7A25C",
"0X c #C89562",
"qX c #D49962",
"wX c #CD916B",
"eX c #D3AA71",
"rX c #E5B86B",
"tX c #E9B268",
"yX c #E7C677",
"uX c #E4C873",
"iX c #B8AE97",
"pX c #B2A989",
"aX c #9D9985",
"sX c #C7AF8B",
"dX c #E8B896",
"fX c #E5C783",
"gX c #D3CAAE",
"hX c #E7D9B3",
"jX c #ECE3A5",
"kX c #DCDDC3",
"lX c #E4DCC0",
"zX c #DEE1CD",
"xX c #E9E6CA",
"cX c #E6E7D4",
"vX c #F4F4DB",
"bX c #F4F2CB",
"nX c #F7FBE7",
"mX c #EFF5E7",
/* pixels */
"k.s.i.a.a.p.p.p.a.d.a.d.u.h.d.d.d.d.f.h.h.h.j.j.j.j.j.j.d.d.f.a.a.s.s.s.d.d.a.d.s.l.j.x.j.l.j.l.j.j.h.h.j.j.j.j.M.M.M.M.m.m.m.M.",
"X.Z Z Z u.u.u.u.u.u.u.u.u.u.u.u.p.u.p.u.p.u.p.p.p.d.d.u.s.X.X.X.X.X.C X.Z +.Z X._ B V V V V V V y.N N y.V y.y.y.y.y.y.y.y.y.u.u.",
"Z B C C C C X.C y.y.N y.C C u.y.X.X.X.X.u.p.p.u.u.u.u.u.X.X.C X.B X.X.X.Z Z Z Z Z B Z V Z B B V V V y.N V C C y.y.y.y.y.u.u.u.u.",
"B B B B V M M M N N N N m m V V X.X.X.X.u.u.X.X.u.X.X.X.X.C B B B v B v B B Z Z Z B B V B B m B m V V V V V V C y.y.y.V u.u.u.u.",
"B M B M M M c g c c g g m m N N X.c X.N N X.N X.X.N B B B B M M g B z B B m B m m B v V m B m m m m m M N N B B V V V V y.N y.y.",
"B c M c g c f f s f f f g m c N c X.c X.N N c N N B B B B N c c g m m m z B B B B m m v B m m g m m f m M M M M N V V N y.y.N y.",
"c c c g c f s s s s s f g g g g c N N N c N v B N B B B B B c c g g m g m B z m B m m m z m m m m m m m m m M M N N N N N N N y.",
"c g g f f f p s s s s f f f f g c c c c N c c v N c N N B c g g g g g g g z z z z m m g g g s a i m s m m f f M f g m N N N N N ",
"c c 0 X.s s s d s s s s s s s s s v v c c c g g m m g B m m g g s f m d g g m z g g m +.#.#.) l.( ) ( ( _ ( +.( X.X.B c B c M B ",
"X.c s s s s s d s s f g s s s s s c c g g g g g g g v v z m g d d d f f g g z g z g B 0X0X#XtX/._.qX3X2X4X3X3X#X$X$X( g g g g c ",
"c s s s s s d 0 i s s s s s s s s v g g g g v g g z z g z g g g d d d m g d d m g s T ^.^.].^.z.^.9X2X4X4X4XqXqX^.8X#.f z g g B ",
"s s s s s s p s s i 0 0 0 i 0 s s s s g g g g g g g g g g g s d s p s d g d g d g g ( /./._.z.v.^.#X=X#X0X#X$X{.#X#X#.f g g g v ",
"c s s 0 0 s 0 s 0 s s 0 0 0 0 s p s g s g d g g g s s s g s d p p p i d d d m z g d _ x.d.x.s.g.f.k.s.g.b.l.y.s.g.x.Z g g k g c ",
"s 0 0 s 0 s s 0 0 0 0 0 0 s 0 0 p p d s d g d p d p d s p g p p p p a i d d d d g g g g d p g !._.^.]._.^.!.^./.(.v.@.p s s g g ",
"s 0 0 0 0 0 0 0 0 0 0 0 0 0 0 s p g p d d d g d d p d d p p w p u i a a d d d d d g d d d d p T qX5X5X5X5X2X4X2X2X4.f d d p s g ",
"s 0 0 0 0 0 0 0 0 0 0 0 0 0 s s s p d d g p p p p p w p p i , 0 i i i a i d d d d d d p p p p z 2XqX4X4X<XqX<X3X5X@., d p p d g ",
"s 0 0 0 0 0 : , , , , , i i w i p p s s s d p p i p p p w u i 6 0 i 0 w p s p s p s p p p p p p @.) @.@.) @.@.) @.z p p p p s d ",
"s 0 i 0 0 0 0 > , , , , 6 6 6 i p p p p d p p 6 w p , 0 i , 6 , , , , i p p p p d p s p p p 0 i , , , u u , u u , p p p u 6 p s ",
"s 0 0 0 , 0 : 0 , > > 4 , , 6 , w p p p p p p 6 i i , 0 0 , 0 , 0 , , i p w p p p p i p p w 0 w p p p p p w 0 p p p w p 6 i u p ",
"0 0 0 n d > ; ; , 4 > > , , , , , i p p p i w 0 , , w 0 w , , p u w , w , p p i p w w p i u p u , 6 i , u p , , , , , u 6 , , p ",
", , , T d = k h > 4 > > > 6 4 > , i 0 w p , , , > , i 0 0 i 0 0 w p , w i w i w i i 0 p p , p w 6 , w u , 0 , , , , , w , 0 , 0 ",
", > > < : = ^ ) = > > 5 > > > 4 , , , p i w , 0 w , w 0 w w 0 w 0 0 p , 0 w p p p w i w , p 6 i i 6 , , 0 , , , , , , 0 0 , , 0 ",
"< R OX3., , < = > > j z.4 , > i 0 , 0 i i i i 0 0 0 0 w 0 0 0 0 w 0 w 0 0 p p p p p i w u 0 p 0 w , 0 p 0 w > , , , , 0 0 , 0 , ",
"< R OXQ.l , , h '.L > h > > 1 ` z , 0 , w , w , , , 0 0 0 w w 0 0 0 w 0 0 0 w i w 0 0 i w p , p , u , , , , , , , > , , 0 0 , 0 ",
", u ..'.` < > h B.R i > < ) `.h , , , p 6 6 , w , , w 0 w 0 0 , 0 0 0 0 w 0 w , p , 0 , p 6 p , p , , , , , : , , , , , w 0 , i ",
", l 5.V.` , = , c...i 4 X l '.z.w ; &.W.g 6 i > > i 0 0 0 , 0 w 0 w 0 w 0 0 0 , u , , p , 0 , u , , , , , : , < > , , , , i w 0 ",
"R  XoX'.5.h : , T e < h 9...R ..i < 3.W.x > > 3.` 6 , 6 , w , 6 0 0 0 0 0 w w , w , 6 u p w , , , , , = : , : , , , , , , 0 0 0 ",
"W.7XtXQ...l d 6 = = : OX9XQ.R > , u L T h ` g &.8.z , , 6 6 , , , w w 0 0 0 0 0 , 0 , 6 , , , , , , , , , = , : : , , , 0 i , 0 ",
"C.1X`.l T h 6 > , < x [.B.u z d 6 6 : w '.].T , d w : : w i < , , , w w w , i w , , , , , , , , , : , , , < , : , , , , w i 0 0 ",
"..'.qXOX'.x d < ; , L B.'.8.&.x w : : d 8.5...L , , 0 : l 0.U , 0 w i p 0 w 0 , , , , , w , , , , , , = : , : , = : , , , , , 0 ",
"..Q.oX X~.a < = , > > 6 R B.d w , ; : , R W.5.d 6 : w : A.>X` z w 0 , u w p w , , , , , > , , , , , , , , : = , , , , , , 0 0 p ",
"..W.W.Q.*.J B.Q.A.C.7.` / h 6 6 : : , : h / L k , 6 : , 5.`.5.` d , ` Z.k , w 0 , : , , > , , , = : , = : ; , : : ; , , , 0 , , ",
"p V.V.l 5..X,X6XoXoX X'.Q.V.R 6 : : : : , E R w 4 6 6 > z 3.Z.R 6 , Z.Q.T i 6 6 , : : : : : : : : : : > : ; : : , = , : , , , , ",
"< W.6.5.:XrXyX8X>XoX XL.D.6.R h = = = o X @.~.L 4 6 6 , 6 e.W.R : , j ` T u , , : : = = = = = = = > : : : : = , = , ; : , , , , ",
", -X8.G.,XyXuXrXyX7X X'.C.6.6.! : $ : P [ K K L , , 4 4 7 ^.Q.h * = T x w : : : : = = = 1 = = = : = = : : = : : , = , , : , > , ",
"d v.].K.>XtX9XrXtX7.j g h 4 4 w 6 4 $XrX,XoXD.R , : : : , : { A.;.e e w : : : = : = = 1 = = = = = = = = = ; = = = , = , , , : ; ",
"b d  . XL. XoX>XF.& = r 1.^ o t t : 3XjXeX:XU.{ 7 6 : : = | 7XrXoX .4 : = = : 4 4 > : 1 $ = $ # o o = = = = = ; = : = : ; , : = ",
"d , J  XD.F. X.XI./ $X.X1X.XK.>X!   ! yXrX.XR.B.9 d @ : : N.1XrX1XC.9 6 : $ 4 V.K.A.r = $ $ $ r P 7 o = = = = = = = , : : ; = , ",
"p < a C.'.G.U.:X8XrXrXXXT..XP. Xe o 2 qXyX XU.S.j i = = : I K.6X'.} r e $ : * ^ 9XR.N.: = o D <X1X'.T + : = = = = : ; ; = , = , ",
"> L L } D.G.U.XX:X6X:XS.OXq.P ! 4 # $ J.`.H Z.eXK 9 : + : 4 } P & Z.-.% : = = o ].:X} = : $ 7 <X:X X/.p + = = $ = = = = > = = = ",
"> R  .R { '.U.E.G.oXC.| :.  4 D $ o + P D E 2.9X-.7.r o + + P XX].9X~.D J o $ = r 4 4 9.1 : 4 { K P T B o = $ # = = = = : = = = ",
"> a R h ..6.OX XG.D.I 2XZ.} V.;.$ o o ] XX#X:X.X].P 4 o + : 4 V.'.A.t % 4 + $ o -.Z.'.:X: o J :.r / d : o $ = = = = = ; = ; = : ",
"> : : L I I L.'.F.C.S.rX6XT.U.D.r o o 2 P.1XS.o.-.: + o $ % = S '.P.9 7 = = + o [.I.S.<X7 & 4 OXG.5.l ( o = $ $ = $ = = = = = = ",
"= = = P W.' F.U.K.C.I.XX@XP.S.D % o o o / H Z.J.@ : + O + : + } oX} j 7 = = 1 = ! B.0.w d , = | A.[ 7 s.$ o $ $ = = = = = = = = ",
": = = & 1 1 V.L.:XG.| 4 H / y + o   o o D ,.F.S.8 6 + o + $ + }  .o 4 $ : = = = ! L.! # s , 4 F.K.} , v o $ # $ = = = = = $ $ = ",
": : = = 1 1 ' U.@X@XH   + $ % + o o o   r T.F.n H 4 o o o $ & } H.4 7 4 4 $ = = | L.] = w o 7 C.C.D c.s o $ $ = = = = = $ $ o = ",
"= = = = 1 1 9 D.T.>XZ.+ + e   4 + o o o   ] I.T.' 4 $ O o y $ D A.V./ *.= = o = 4 [ } 0 $ $ $ r I.B.l.= o $ # $ $ = = # # + # = ",
"= = 1 = o x j P F.T.>XB./ r G N.+   + / O.% + N.I.4 4 o O / 9 4 9 C.B.J 1 7 e + X o o # o $ ^ 4 % Y s o $ $ $ $ = = = $ $ $ $ & ",
"= & = =   l.-X@ 6. X>X:XI.A.T.A.o o o G eXgXn.e.%.w 4 o $ t *X@.O 4 / 4 - y -X*X} 7 $ o + = (.sXn., o $ # $ $ $ $ = = # # $ # = ",
"= = + = o B xXz.8 D.L.T.Y.T.P.] . o . F ;XmXvXvX_.D E : # 4 pXhX&X^ 4 w - 2 sXjXF.t o $ o 4 %XnXdX[ , o $ # $ $ = $ $ = $ # o = ",
"= = # = & x zXhX4.j Q.G.F.P.A.y X o + - *XvXzXcX^.! ;.E ; q n gXbXeX' y q + ).jXw.;.: o 1 % ).nX*X:.o.* $ $ # ; $ = $ $ # $ $ = ",
"= = o = > ..sXmXhXv.9 D.6XT.;.2 X o # % $.gXmXxX/.! A.^ ; 0 ; n hX-XF n - - # *X<XI.l + : d q pX=X].W = ; $ $ $ = $ $ $ $ # + * ",
"= = $ X l 9./.lXzXxX).: Q D % $ o o - 0 4 t pXbX%XS.3XR o ; ; . +.z.H.! o - + w OXG.Y 1 : : o n.dXC.0 - # # # # # $ $ $ $ = o = ",
"= o X x 4.z./ iXxXcXcX&X+ + : $ o 0 q - - # - ;XsXH.`.D # $ - #   ^  XN.+ o - X *.oXD o $ $   g.dXS.- - - # # # o = $ $ $ = = 1 ",
"& : 4./.@.4.) z.cXzXcXgX[ | / % # 0 - o # - o ).nX{.H.S # $ $ ! ! O.G.A.F y U Y t Y.,.. - - + T qXP.2 $ - # # # = $ # $ o = = & ",
"b /./.e.@.T b y pXcXcXiXr ~ 3.% o # - # # X . n xX=XE.:.# # w <.=.,.=.=.=.-.-.-.- J.~.r ,.*.,.*.B.>.: o o o o o o o = $ $ # + = ",
"l.^.z.#.+.n n 0 *.gXkXiX: r [ $ # $ # # # # o . aXwXR.P.2 X y =.=.<.2.<.=.-.-.O.O b.%XH ,.,.,.1.<.-.- U F w 2 w d $ + = # o = = ",
"n $.$.+.n w w q + |.hX;Xr F./ $ # ; $ # # # o . +.8X@X@XY . U =.=.<.<.<.t.-.O.t + 6 e -.t.,.,.,.>.Q w r.<.=.-.O./ : o * = = = = ",
"W s +.#.W q w w = 4 wXpXD D.P y 2 ; $ $ # o + o * I.8XfX<.. ! <.<.<.2.<.<.Q F % o + 4 >.=.,.*.*.=.e %.r.=.-.O.Y y # o = = = = : ",
"b 0 $.c.n q q w 4 o z.*X] F.D._.q 0 $ # # o X - X.O.*XbX).. ^ 2.<.2.,.-.t 2 H :.: . t >.*.*.] *.] e <.<.-.O.y q # # # # = ; , , ",
"B : 0 w w - 0 w 0 o %.eX/.H.G.=XX.$ # X . : +.<.=.G %XvX%X+ =.0.2.2.>.w 4 ] | | 1.K Y >.] ] ] ] / U q.=.! y w Q $ o & + = > p p ",
"w ; ; ; ; q q q q # s kX|.G.G.OX#.X $ y $.r.w.=.-.O.$.jX%X2 1.q.2.2.-.4 w ! S.S.A.Z.r ] ] ~ ~ ~ H -.2.~ e 6 ! B./ X $ & & = , g ",
"= : = 0 q n 0 - q 0 # pX<XP.R.>X!.$.r.J.J.2.<.=.=.-.: !.E 4 2.2.0.B.! 6 e ;.1.A.K.D y ~ D Y U U E Z.=.U : : [ D.y o * = & = = 0 ",
", = < , : 0 0 0 - 0 . %X<X+X$X^.r.r.r.2.r.2.r.<.=.O.: : = U q.2.q.q.-.w D B.;.S.;.o e t q : w y U 4.o.k = > &.J X o o = $ * * , "
};
