/* XPM */
static char *lp3[] = {
/* columns rows colors chars-per-pixel */
"64 64 248 2 ",
"   c #3C1E14",
".  c #301C11",
"X  c #3A261A",
"o  c #33200F",
"O  c #3D2C23",
"+  c #372921",
"@  c #3D3328",
"#  c #451D14",
"$  c #591B17",
"%  c #53160C",
"&  c #6B1B14",
"*  c #681B18",
"=  c #771A18",
"-  c #711208",
";  c #432215",
":  c #47261A",
">  c #56251A",
",  c #66231A",
"<  c #74231D",
"1  c #7B231D",
"2  c #7D1E20",
"3  c #6A1C20",
"4  c #482B23",
"5  c #572B24",
"6  c #463329",
"7  c #5B3327",
"8  c #573633",
"9  c #682924",
"0  c #7C2424",
"q  c #772925",
"w  c #653A33",
"e  c #763834",
"r  c #6E352C",
"t  c #5B443A",
"y  c #6A4735",
"u  c #76453B",
"i  c #704D38",
"p  c #785544",
"a  c #784D43",
"s  c #7B6C5F",
"d  c #8A1A19",
"f  c #971A1A",
"g  c #8F0E0A",
"h  c #A80E1A",
"j  c #B70C1A",
"k  c #AD161B",
"l  c #A41A1C",
"z  c #A8171B",
"x  c #B3141B",
"c  c #BA131D",
"v  c #B6191A",
"b  c #85231C",
"n  c #92211F",
"m  c #881E23",
"M  c #991C23",
"N  c #A31D23",
"B  c #AC1B24",
"V  c #A91B28",
"C  c #B41A24",
"Z  c #BB1925",
"A  c #B41C2A",
"S  c #BB1C2A",
"D  c #B81623",
"F  c #B7162A",
"G  c #872626",
"H  c #982529",
"J  c #86352C",
"K  c #983737",
"L  c #913132",
"P  c #A4242C",
"I  c #A8272B",
"U  c #B4212B",
"Y  c #B8262A",
"T  c #A72A34",
"R  c #B72A36",
"E  c #A93838",
"W  c #B5373B",
"Q  c #A0201D",
"!  c #C11828",
"~  c #C3242A",
"^  c #C33638",
"/  c #C22A32",
"(  c #C41315",
")  c #87493B",
"_  c #A8453C",
"`  c #BC413B",
"'  c #C4463D",
"]  c #9B3D45",
"[  c #B83A43",
"{  c #B23847",
"}  c #C33B47",
"|  c #884B46",
" . c #9A4C46",
".. c #985548",
"X. c #885655",
"o. c #8D5A4F",
"O. c #A7484A",
"+. c #B94848",
"@. c #A8554C",
"#. c #BB5249",
"$. c #A95656",
"%. c #B95656",
"&. c #B34B52",
"*. c #8A6855",
"=. c #97735A",
"-. c #8D6954",
";. c #B86358",
":. c #B06B5B",
">. c #977667",
",. c #9C7169",
"<. c #AA6A66",
"1. c #B86966",
"2. c #A57965",
"3. c #BA7869",
"4. c #BA7876",
"5. c #A47F7B",
"6. c #B75A69",
"7. c #C74948",
"8. c #CB5B53",
"9. c #C55956",
"0. c #CD5652",
"q. c #C8655A",
"w. c #D1635B",
"e. c #D6685A",
"r. c #CD715D",
"t. c #C65A62",
"y. c #CE6B64",
"u. c #C66767",
"i. c #D36967",
"p. c #C97668",
"a. c #D6786A",
"s. c #C97B78",
"d. c #D57A75",
"f. c #E67A6B",
"g. c #A88369",
"h. c #B08974",
"j. c #C5856B",
"k. c #CB8476",
"l. c #D48273",
"z. c #D98979",
"x. c #CA917A",
"c. c #DA947D",
"v. c #D5967C",
"b. c #D1846C",
"n. c #E08679",
"m. c #E4937E",
"M. c #D4A07E",
"N. c #C87C81",
"B. c #B58F86",
"V. c #C88988",
"C. c #D88A83",
"Z. c #C89785",
"A. c #D59283",
"S. c #DC9483",
"D. c #D99A88",
"F. c #CC9897",
"G. c #D69A98",
"H. c #D18F91",
"J. c #E29583",
"K. c #E29C85",
"L. c #E39C8B",
"P. c #E69C92",
"I. c #C9A58C",
"U. c #DDA38B",
"Y. c #DCAC8D",
"T. c #D6A689",
"R. c #CAA997",
"E. c #DDAD91",
"W. c #DAA896",
"Q. c #DDB194",
"!. c #DBB39B",
"~. c #E2A286",
"^. c #E4A38C",
"/. c #E4AA8D",
"(. c #E9AA8E",
"). c #E9A58C",
"_. c #E3B28D",
"`. c #E4A492",
"'. c #E4AC93",
"]. c #EAAC93",
"[. c #EBAD99",
"{. c #E7A997",
"}. c #E3B395",
"|. c #EBB496",
" X c #E4B49A",
".X c #EBB49C",
"XX c #E4BA9B",
"oX c #ECBB9C",
"OX c #E7B997",
"+X c #F2B49B",
"@X c #F2BB9D",
"#X c #F1B497",
"$X c #F1AD9A",
"%X c #D4A7A4",
"&X c #DBB7A5",
"*X c #DBBCB5",
"=X c #E3BBA3",
"-X c #ECBCA2",
";X c #E7B6A4",
":X c #F2BDA2",
">X c #F4BEAA",
",X c #F3B7A1",
"<X c #E3BCB6",
"1X c #E6AEA8",
"2X c #EDC09F",
"3X c #F3C19E",
"4X c #DDC5BE",
"5X c #EDC2A4",
"6X c #E5C2AA",
"7X c #EBC3AB",
"8X c #EBCCAA",
"9X c #F4C3A4",
"0X c #FAC5A6",
"qX c #FAC9A6",
"wX c #F5C5AB",
"eX c #FBC6AA",
"rX c #F6C9AC",
"tX c #FCCAAB",
"yX c #F4CAA6",
"uX c #FDD1AE",
"iX c #F3D0AB",
"pX c #EDCAB5",
"aX c #E5C5B8",
"sX c #F4CAB3",
"dX c #FCCDB2",
"fX c #F6CDB9",
"gX c #FDD2B4",
"hX c #F5D2BB",
"jX c #FCD4BB",
"kX c #FBD8BC",
"lX c #F8D4B4",
"zX c #EED0B9",
"xX c #FFE0BE",
"cX c #DED0CE",
"vX c #E7CCC4",
"bX c #E9D3C8",
"nX c #F8D7C5",
"mX c #F0D7D1",
"MX c #F8E4D9",
"NX c #F2E5D3",
"BX c #FBEDE3",
"VX c #F6E9E4",
"CX c #FBF4EC",
"ZX c #FCF9EE",
"AX c #FBF5E8",
"SX c #FBFAF2",
"DX c #FBF7F1",
"FX c #EEE9E8",
/* pixels */
"VXpXpX6X;X7X7X;Xs.[ R u.zXwXpX=X&X!.R.!.!.!. X=X7XrXrXrXtXsXrXdXrXrXdXrX;X5XrX9XtXtX9XtXtXrXeXsXeXfXfXjXdXjXjXjXeXS.eX1XA.>XD.hX",
"BXrX>X^.(.,Xf.Y ~ ! R i.{.[.D.].9X2X3XqXqXtXeXeXeX9X:XeXtXqXtXtXdXdXdXtXtXtX@XoX9X9XtXtXtXtXtXdXfXeX,X$X$Xn.z.P.n.K.{.D.;X-X+X1X",
"BXeX,X+X$X{.n.a.i.i.P..X{.^.`.c.S.eXtXeXtXtXtXtX9XqXtXtXqXqXqXtXeXtXdXtXtXtXtXtX9X9XoX9XtXtXrXJ.y.i.i.i.d.a.d.n.l.c.{.[.L.D.D.1X",
"BXfXfXtXtXtXdXuXtX,X9XS.[.+X|..Xp.^.tXqXtXtXtXqXtXeXeXeXtXtXtXtXtXeXtXtXtXtXtXtXtXtXeXrX5X9XS.q.z.(.,X>X-X[.i.a.S.L.{. X{.-X5X6X",
"DXnXdXtXtXtX9X9X9X@X9X#X+XoX}.S.(.|.XXoXXX,X9XqXtXtXtXqXtXtXqXtXtXtXtXtXtXtX9XtXtXtXtXdXtX,XA.y.>X{.gX`.5Xd.i.|. X^.{.rXdXdXjXsX",
"CXjXjXtXtXeX@X#X+X@X@X9X@X9X9X9XtXtXqX9X3XoX,XoX.X@X3X9XqXqXtXqXtXeXtXtXtXtXtXtXeXtXtXtXtXtX}.y.y.z.`.[.Y.{.i.s.L.;X[.,X;X-X;X;X",
"CXnXdX9X@X@X9X|.@X#X@XS./.tXtXqXqXqXqXqXqXtXqXqX3XoXoX}.OX@X3X9X9X9X9XtX9XrXtXtXtXtXtXrXrX X X-XS.p.u.d.c.^.J.z.d.l.l.c.`.{.+X;X",
"BX7X`.^.~.oX].].+Xz.K.~.@XuXqXuXqX9XqXqXtXqXqXqXtXtXtXqX9X,X}.Q.Y./.oX,XoX}./.oXQ.}. XoX-XrXtXtXgXdX>X+X].^.L.].L.^.L.^.[.}.,XwX",
"MXD.rX^.+X.Xz.@X@XK.K.@X[.].:X#X(.(.@X9X@X+X|.@X@X(.@X3XqX9XtXqXeX,X-XXX-X0.0.W.T.{.-X9XtXtXtXtXtXtXuXtXdXgXuXuXtXeXdXdXdXeXdXwX",
"CX;X XS..XrX`.^.#X@X|.S.L.+X).).).).(.#X).).m.n.^.K.).m.).).c.n.z.C.A.v.w.F { i.dX>X3X9X3X9XoXoX@XoX@X9X9X9X9X9XeXeXtXtXdXtXgXsX",
"CXhX>X`.L.[.+X).(.#X|.^.(.].(.#X).).c.K.m.(.m.l.c.(.m.b.l.m.z.7.^ 7.q.w.k D t./ i.tXqXtXtXtXqX9X9X9X9X|.E.}..X.X X}..X.X.X-X-X=X",
"CXnXgXtX,X^.).).c.).K.L.).@X(.a._ (.@X9X9XqXuXuXtXqXqX3X|./.(.m.a.7.Y U C F t.7.k d.uX9XtXtXqXtXtXqXoX@X9XtXtXeX9X9X9XdX1.9.rX;X",
"CXkXjXtXtXdXeX9X@X@X+X@X@X:X@Xq.- h.uX5X9XyXqX9X9XoX|.XXoX9XtXtXuXeX7.c / B 7.[ ! A P.eXeXtXtX9XOX|.3XtXtX9XtXtXtXtXtX-X9 W gX7X",
"CXkXfXtXtXeXtX9XtXtXtXtXtX9XXXv., i XXQ.Y.XX}.Y..XoX@X9XtXeXqX9XtX).R S Z U S H U A &.{.dX9XoX|.oX9XtXtXtXtXtXeXeX9XtX2.% Z.jX;X",
"CXjXgXdXdXtXtXeX9XtXtXtXtXyX}.2X) > T.XXI._._.XXrXtXtXtXtXtXeX9XtX9.S Z Y ^ S V T S T t.;XoX,XtXtXeXtXtXqXtXeXeXtXtX-X7 J 9XtX7X",
"CXnXdXtXeXdXeXtXtXtXqXqXtXqXXX5X3.% *.Q.T.Y.}.2X9X@X9X9X9X9X9XtX].Y Z Z / S C U P A R V t.gXtXtXgXgXgXdXtXqXtXtXtXgXg.$ 3.gXtX5X",
"CXjXdXdXeXdXeXtXtXtXtXtXtXqX9XtX|.< 8 5X3XyX3X3X,XoXoX-X5XXX|.tX8.F Z Z C C H P P P S { R P.dXeXz.d.G.%XsXsXsXrXdXrXe q ;X9X9X X",
"CXjXdXdXdXeXdXeXtXtXtXqXtX9X@X3XiX..% I.uXqXdXtXdXeXeX,XK.+XtX).S C B N V A G q F F U N.U t.jXeXG.N.mX%XvX*XG.H.dXg.$ ..!.|.9X X",
"BXfXfXeXeXtXeXeXtXtXqXtXtXqXqX9XyXj.& o.gXqXS.<XvXaXH.F.N.G.aXw.d V B 0 M S G 6 P U H &.R T P.vXVXmX<X1XvXvXV.`.E.y 0 W.tXeXtX-X",
"DXjXdXeX9XeXtXtXtXtXtXtXtXqXqXtXtX@XJ > T.tX^.H.cXvXV.%X4XvX<XW d M P M b C m O L G L [ { M i.%X} 1.H.%X<XaXW.-X>.$ ;.gXeXtXeX;X",
"CXjXdX9XtXtXtXtXtX9XtXtXtXqXqXqXqXuX3.% =.9XXXZ.*XvX*X4.V.$.V.[ f H G T P P H 8 q G H T ] P F ] G T u.%X%XV.oXoXy q /.tXeXeXtX;X",
"CXnXdXtXtX9XeXtXtXtXtXtXtXtXqXqXqXuX/.< w 6XqX9XH.%X*X1.H 5 3 H G q d K u.%Xs.4.%X4.$.T G J L 8 6 m &.H.1.u.gX>.* :.uX9XtXtXtX;X",
"CXjXdXtX9XtX9XeXtXtXtXqXtXtXqXqXqXqXuX_ $ g.9XuXu.6.B.$.2 : w > G N R H.MXCXvX<.<XVXmX4.{ M w 8 8 m { 6.{ D.h.q q `.tXyXtXqXtX.X",
"ZXkXdX9XtX9XeXtXqXtXtXuXtXqX2X2XOXOX3Xh.- J h.yX^.] O.T f > : = %.t.N.AXMXMXmX<XmXVXmXt.u.[ V 8 6 m C C T =Xf.k E  X@XoXoXoX3XU.",
"CXkXdXtXtX9XtXtXtXtXtXtXtXqXY.}.}.}.OXx.I Y .XoX5X..H z d : = x [ F.mXVXVXBXMX<XmXVX<XV } u.{ 0 5 0 V h $.wX4X9.].rXqXqXeX9XtX.X",
"ZXkXdXqXtX9XtXeXtXtXtXtXqXqX9XoXOX|._.XXa.N.&X_.oX3.f C b 1 b G K ] $.X.X.X.X.| X.X.e J u u ] G G V M N j.;XFXpXqXeX9XtXtXtXtXoX",
"ZXkXeXeXtXeXtX9XeXtXtXtXqXuXtXtXtX9X2XOXT.NXcX!.tXv.d l B 1 , : 4 $ : + 4 .   + + + O O @ 5 P P N V d O.;XvXvXeXtXtXtXtXtXtXtX,X",
"ZXjXdX9X9XeXtXtXtXtXtXtXtXtXqXtXqXqXtXqXtX8XcX&X@X@.d Z k M H : o 4 +   4 4 4 + O 6 O 4 6 9 F F A Z ! M B.CX=XeXtX9XqX9XtXqXtXrX",
"SXkXdXeXeXeXeXeXtXtXtXtXtXtXtXqXqXqXqXyXtX@XmXVX;.d U v v x 5 X + . w h.8 + O O + t t 4 6 9 V S Z C B z ] 1XeXdXeXqXtXtX9X9X9X X",
"SXlXtX9X9XeXdXeXeXtXtXqXqXtXtXqXtXqXqXtXqX3X-X4XJ z z v I G.w ; O # ,.SXs . 4 4 X mXvX4 O 6 H S Z C C S f 1.gXyX9X3X@X.X.X|..XoX",
"SXhXeXtXtXdXeXtXtX9XtXqXtXtXqXyX9XqX9XqXqXqX3X) f v v v Y 1Xu : O X q ] 5 > q r : s X.6 4 5 P } Z Z S S z @.!.{..X|.@X9XeXeXdXrX",
"SXlXeXtX,X.XjX^.@XgXtXtXtXqX/._.OXOX@X3X3XoX2X_ z z v z y.[ & 5 4 q N = > f H G 2 # 3 5 5 0 B C x C B C z { !.9XeXqXeXeXeXeXeXrX",
"DXgXrXuXz.W l.E 9.z.tXqXqXqX3X_.@X3XqX9X3X3X_.I ( ( v x W ( b > > 2 > : e ..1 1 | 7 5 9 5 $.0.j [ ! S ! ! C 1.;XtXtXqXtXtXtXtXrX",
"SXgX9XtX' 0.9.Y W u.9XtXqXqXuXqX@XOX3XtXuX3XE h v k c W Y j N q , , : 5 e B.q K >.X X 5 $ <.d.j &.} F Z C c f D.uX9X9XqXtXeXdXrX",
"SXjXtX].x 9.9.7.^ W  XtXqXqXqXqXqXqX}.OX3X_.l l f Q k E W l B d 0 9 9 $ d &   # * : 7 0 H R +.B P W C Z C Y Z s.gX9XtXtXtXuXeX;X",
"SXjX9X3X/ q.7.%.R R ].tXqXtXtXqX3X|.OXOXOXb.j v x v x C j k j d , 9 7 p $.,.>.>.,.a G H M F F D D j j j j j j #.gXqXtX9X9X,X,X7X",
"SXgXrXgXe.a.' w.e.w.tXtXuXqXqX|._._._.Y.2Xr.Y ^ / / 7.%.+.q.w.q.G = 5 >.h.,.,.B.vXR.9 9 $.a.8.N.u.e.e.w.w.w.w.J.iX9XoX,XoX9XdXeX",
"ZXjXeXlX0.z.@Xa.l n.jX9X3XuX|._.3XuXqX3X3X3X3XuX3X|.7XSXaXOX@XtXU.J 9 $ .   . . 4 5 > $.eXrXMXCXgXgXgXgXgXuXsX5X,X,XqXeXtXdXdXeX",
"ZXkXeXdXx.^.nXtXn.9XgXuXuX3X_.lXuXuXuXuXuXuXuXM.R.gX9XNXFX;X9X`.p.) : 5 5 0 5 5 : , ..eXeXaXBXzX9XeX9X9XoX.XoX9XtXtXtXtXeXdXeXeX",
"CXjXeXgX=.g.=.=.>.*.*.=.-.-.y =.) =.g.g.g.g.2.y 2.2.}.tXCXnXS.;.&.H $ 4 q M M m q , r I V.SXnX9X9X-XoX,X9XtXtXtXtXtXeXtXdXeXdXwX",
"CXgXtXjX3.y >.p g.p *.p *.*.-.o.p p i i g.p 6 t p y XXqXnXZ.g @.vXH.7.9 > : : $ : G F 9.{ 4.;XE.Q.!.-X,X,XrXrXtXdXtXtXtXtXdXdXeX",
"CXgXdX-Xi *.*.*.g.y *.y i y x.g.x.i i -.M.g.i y 2.) Y.tXp.= z f R F.k.j f q * * M B [ t.O.d <.{. X XXX XQ.E.}.Q. XoXoX@X9X9X5X,X",
"CXgXgX X-.v.%.q.9.8.p.a.b.p.r.m.x.z.q.r.8.q.v.uX9XqX9Xr.$.b b f d 1.0.F ! ( v c v C Z d G L = h.9X XE. X XE.{.}.,X@X9X@X,X,X.X X",
"CXhXgXlXxX).W ` e.~ ' a.e.0.v f.' Y 8.' ' v b.uX9XoX3.;.p.%.J g f g f z k k k x z f f , 0 5  .{ k.5XrXoXE.oXyXtXuXtXtXtXtXdXeXdX",
"CXjXgXtX3Xq.7.0.9.7.w.m.n.a.7.8.7.' b.#.8.' b.3X@XOX_ T +.+._ ) G f d & & & & > % & m q 7 | %.R T A.rXoXeXtXrXtXuXtXtXtXtXdXrXeX",
"ZXjXgXdXyX@XrXrX9X9X3XyX3XyX3X3X@XOX}._._.M._.|.XX@X}.@.O.P ) v.f , , < < b 0 1 0 , & K <.P T T W D.dXdXgXtXtX9X@X:XoX@XrXeXdXdX",
"CXjXgXtXrXtXrXeXtXtXtXqXqXuX3X3XOXXX_._.2X3XqXqXtXqXtX@X+.- @.I h f %   , & , , # , f z P H M { ^.tX9X,X].]./..Xv.c.v.~.^.`.].eX",
"CXjXjXuXtXtXtXqXtXtXtXtXqXqXuX3XY.Y.2X3XuXuXqXqXqX9X9XuXY.:.l d f = o > f z f f ; # N n = 0 $.P.p.m.^.U.K.K.].K.|.].,X].^..XL.{.",
"CXjXjXtXtXtXtXtXtXtXtXtXqXtXoX_.OXqXuXuXqXqXqXqXqXqXtX3X_ ` B f d , # $ Q l z f > X 9 0 d P 1.<.S.{.9X@X@X|.+XoX/./.c.@X~.U.#XU.",
"CXjXjXdXtXtXdXtXtXtXeXqXtXtXoX9XuXqXqXqXtXqXqXqXqXqXtX;.g g f f $ X > & = = < m , 5 : > H G * J {.sXtXtXqXtXtXgX9Xc.c.~.(.oX(.(.",
"SXjXdXdXdXdXdXtXtX9XtXtXqXqXtXtXqXqXuX3XuXqXqXqXqXuX3XE R 1.E 0 # o     9 < = < > X X : G H K O.p.uXqXtXtXuXyX9X(.c./.|.#XoX9XuX",
"ZXjXgXdXtXdXdXtXeXtXdXgXuXgXuXtXuXuX3XuXqXqXuXqXqXyXyXE N.h.%.1., ; o X < b H = ; X ; w _ Z [ E k.gXtXtX9X|.U.U.M.U._.@X9X-X@X9X",
"CX=X X-X-X.X;X].].[.U.S.].).|.@XyXuXlXuXqXqXtXtXqXqXuX|.%.@.p.;.h.a # o e @.$.X.X ; | 4.%.T B t.,XrX9XoXoXx.D.+X.X`.{.@X[.[.;XeX",
"CX X{.,XeX{.A.p.y.p.S.c.^.k.b.w.8.w.z./.uXuXqXtXqX9XOX}.].z.H f @.k.4.-.W Y C [ ,.<.&.E H _ z.rX6XoX,X9XtX9X[.^.U.z.7.R W (.+X;X",
"FX=X`.G.E.[.`.`.J.p.i.;.k.,X}.{.#Xz.r.#.q.].yXoX}.|.}.@XtXgX+Xp.E E &.L % & & & H +.T K ;.W.-X-X9XtXdXdXdXtXgXtXtXq.! i.$XwXrXrX",
"DXsXrX,X>X>X-X[. XdXL.L.9.p.yX/.OXgXU./.9.7.z.}.@XtXtX9XtX9XtXjXrXS.p.@.) o. . .#.p.m.|.XXQ..XrXtXgXdXdXdXtXtXtXtXeX;XeXdXrXdXdX",
"SXkXtXtXdXdXdXjXc.wX`..Xz.+.9X|.x.OXz.v.x.9.z.3XtX9XqXqXrXtXeXeXwXdXgXdXdXdXgXdXdXgXgXtXtXyX-XrX,X-XrXdXdXtXtXtXtXgXgXtXeXeXdXtX",
"ZXkXjXgXtXeXrX=X`.[.c.a.[ p.Y.v./.}.v.M.r.` j.3XuXrXtXtXtXtXtXtXtXeX9X9XeXtX9XeXeXqXqXtXtXtXgXdXdXrX-X-X,X9X9X.XoX-X.XoXXX}. X=X",
"ZXsX[.c.c.D. X-XD.u.q.q.d.).{.(.m.j.r.#.` r.M.|.oX9XqXtXtXtXtXtXtXtXtXtXtXtXtXtXtXtXtXtXtXyXtX9X5X-X-X=X7X9XrXrXrXgX9X5XrXdXrXdX",
"mXp.W.~.U.{..Xk.k.D.k.a.+.' 7.0.8.w.b.m.|.qXuX3XXX_.XX9XyXrXtXtXeXeXtXtXtXtXtXeXrXyXoXoXXXoXXX5X5X9XdX=XR.I.h.I.R.Z.Y.c.k.D.sXrX",
"FXpXsXE.5X|.s.{.;XA.D.^.).@X9XtXuXuXgXlXuXuXqXuXqX9XE.T.Q.}.5XtXtXdXtXeXrX9XoX}. XoX-X9XeXtXdXdXgXdXgX&XR.R.T.I.B.2.x.S.%.1.,X5X",
"DXnX;XrXsXq.tXkXA.{.gXtXuXuXuXtXuXuXuXqXyXyX5XXX XQ.E.E. X}.Y.Y.}.oX}.XXoX5X9XeXtXtXtXgXdXdXuXdXrXdXtXgXgXgXgXkXkXgXrX}.|..XdXgX",
"CXsXZ.{.dXa..XdXS.c.lXrXqXuXtXtX5XyXoXoXoX_.}.Q.{.!.E.!.Q.}.E.!.oX-XeXeXtXtXtXtXtXtXtXdXdXdXdXtXgXtXdXtXtXtXtXrXtXoX{.Q.XX-X-XoX",
"FXzXzXR.hXrXG.pXzXH. XnXlXlX6X6X&X6X6XpXzXlXjXhXhXwXpX=X&X&X7XhXjXjXfXjXjXjXfXhXhXjXhXjXnXhXjXnXnXnXkXnXnXnXlXpX6XpXpXzXhXzXhXhX"
};
