/* XPM */
static char *lp4[] = {
/* columns rows colors chars-per-pixel */
"64 64 225 2 ",
"   c #E8695D",
".  c #E97D5D",
"X  c #E87858",
"o  c #E77F48",
"O  c #E15B66",
"+  c #E3656D",
"@  c #E56C6C",
"#  c #E66762",
"$  c #EA7566",
"%  c #EA7A62",
"&  c #E97468",
"*  c #E77368",
"=  c #E26571",
"-  c #E16975",
";  c #E4737B",
":  c #DF6B76",
">  c #E9BE1F",
",  c #EC9A3B",
"<  c #EB8E3F",
"1  c #EEAD2B",
"2  c #EBBD2E",
"3  c #EBB824",
"4  c #EDA73E",
"5  c #EEAC3A",
"6  c #EDA533",
"7  c #EEB435",
"8  c #ECBA32",
"9  c #ECBA3A",
"0  c #F0AC39",
"q  c #E7C61B",
"w  c #E8D11C",
"e  c #E6CF0C",
"r  c #E9CC24",
"t  c #E9C42C",
"y  c #E7C829",
"u  c #E9CC29",
"i  c #E8C525",
"p  c #E9D326",
"a  c #E9D329",
"s  c #E7D426",
"d  c #EAC538",
"f  c #E9D533",
"g  c #EAD53A",
"h  c #EAD83E",
"j  c #E98D4D",
"k  c #EA8945",
"l  c #EB9C46",
"z  c #EB944B",
"x  c #EB9A49",
"c  c #EB9543",
"v  c #E78556",
"b  c #E88555",
"n  c #E88B52",
"m  c #E78259",
"M  c #E8825A",
"N  c #E88C5A",
"B  c #EA9050",
"V  c #ECA343",
"C  c #ECA949",
"Z  c #EEB847",
"A  c #ECAA55",
"S  c #EEB956",
"D  c #F0BE59",
"F  c #E8906D",
"G  c #ECB966",
"H  c #ECBA74",
"J  c #EBC64B",
"K  c #EBDA48",
"L  c #ECC75A",
"P  c #EBDB54",
"I  c #ECDD5C",
"U  c #EAD359",
"Y  c #EDC867",
"T  c #ECD966",
"R  c #EDC776",
"E  c #EEDA77",
"W  c #F1C879",
"Q  c #ECE06A",
"!  c #EFE379",
"~  c #165FA6",
"^  c #155FA8",
"/  c #0958A2",
"(  c #1660A7",
")  c #1661A9",
"_  c #1963A9",
"`  c #1769AE",
"'  c #186FAF",
"]  c #176DB4",
"[  c #186DB4",
"{  c #1770B4",
"}  c #1873B4",
"|  c #1B7AB4",
" . c #1870AC",
".. c #3B77B1",
"X. c #2B6FAD",
"o. c #E27A84",
"O. c #1E84B5",
"+. c #1F8BB5",
"@. c #218CB6",
"#. c #258EB8",
"$. c #298FB9",
"%. c #2684B9",
"&. c #2C91BB",
"*. c #2690B8",
"=. c #3593BE",
"-. c #3895BF",
";. c #3A99BF",
":. c #4D91BC",
">. c #3895C0",
",. c #3A98C1",
"<. c #2FAADB",
"1. c #32ABDE",
"2. c #39AFDD",
"3. c #33B1DF",
"4. c #3CB1DC",
"5. c #30AAE0",
"6. c #34B4E0",
"7. c #35BBE2",
"8. c #2DAAE0",
"9. c #439CC3",
"0. c #519DC0",
"q. c #4CA3C6",
"w. c #49A6C7",
"e. c #56A9C9",
"r. c #5CADCB",
"t. c #52A7C7",
"y. c #4ABAD7",
"u. c #43B5DB",
"i. c #4BBAD8",
"p. c #45B9DA",
"a. c #53BDDB",
"s. c #59BFDC",
"d. c #58B7D6",
"f. c #42ACD1",
"g. c #60AECC",
"h. c #65B1CD",
"j. c #6CB4CE",
"k. c #72B6CF",
"l. c #6BBED4",
"z. c #73B6D0",
"x. c #74BAD2",
"c. c #7BBAD2",
"v. c #7DB7D0",
"b. c #6896C3",
"n. c #36C3E5",
"m. c #39C6E5",
"M. c #35C8E7",
"N. c #3AC8E6",
"B. c #35C8E9",
"V. c #39C9E8",
"C. c #34C6E8",
"Z. c #4AC5DE",
"A. c #53C3DB",
"S. c #5DC1DC",
"D. c #5BC5DB",
"F. c #63C0D6",
"G. c #62C3DD",
"H. c #6AC8DF",
"J. c #6AC4DB",
"K. c #43C6E0",
"L. c #47C8E0",
"P. c #6CCAE0",
"I. c #60C5E0",
"U. c #73CDE2",
"Y. c #7CD3E4",
"T. c #77D0E3",
"R. c #E7918F",
"E. c #E8B38D",
"W. c #DAACAE",
"Q. c #E8B5A8",
"!. c #E6AEB2",
"~. c #D5919C",
"^. c #EDCE86",
"/. c #EDD387",
"(. c #F1D88C",
"). c #EAC991",
"_. c #EAD498",
"`. c #F1D88E",
"'. c #EFE583",
"]. c #F1E89A",
"[. c #EFE596",
"{. c #EAD9A4",
"}. c #E8D3BB",
"|. c #F0EBB4",
" X c #83BAD2",
".X c #8BB3CF",
"XX c #E6BCC2",
"oX c #B0C7D8",
"OX c #83D5E6",
"+X c #8BD9E7",
"@X c #8DDBE9",
"#X c #87D8E7",
"$X c #92DEEA",
"%X c #98D8E4",
"&X c #AEDFE5",
"*X c #AADFE8",
"=X c #A5DFE9",
"-X c #B1DFE5",
";X c #96E1EB",
":X c #9AE1EB",
">X c #A2E0E9",
",X c #ACE1E9",
"<X c #B3E1E6",
"1X c #BCE6E9",
"2X c #BAE6EA",
"3X c #BCF3F7",
"4X c #E7D2CE",
"5X c #E7E6D7",
"6X c #EBEECC",
"7X c #C5EAED",
"8X c #CAECEE",
"9X c #D1EEEF",
"0X c #DAEFEE",
"qX c #D5EFF0",
"wX c #DCF1F1",
"eX c #D6F2F3",
"rX c #D1F3F3",
"tX c #E5F0EE",
"yX c #E5F3F2",
"uX c #E8F5F5",
"iX c #E6FBFE",
"pX c #E8FBFB",
"aX c #E7F6FC",
"sX c #E7E8E6",
"dX c #CAD3D8",
/* pixels */
"p a p p p p p p p f p p p p p p a a p p a a u u u u r t t u t u t t t t u i u t y t u u u u u a a a s s a a a a s a s p p p p p ",
"p p a a w f f p w p p p f p w f p w a f r u r u u t t t t t t 7 2 t 2 2 2 2 2 t t t t y t r r u u s p a a s s s r s s s p p p p ",
"a w K K w I '.p h p h h p p p K f h U E f t d d d 9 2 2 7 d 7 7 7 2 Z Z 9 7 8 d 9 d d d t d d i u r f g K a a w f s f a s f a p ",
"a w P ].p ].].! ! ].'.! h p p ! '.E |.].T ].`.T `.[.J 3 Y L L D Z D `.L R Y ^.Y Y Y `.L Y U T U q E U T ! P Q E K P I Q Q I a p ",
"a w I |.p ].|.|.I ].I K Q w p ].! q |.T q 6XJ E `.^.D 1 Z G G H W G ).C S S ^.V S G _.3 `.J d Y 3 T > T [.q P '.e I Q P P P K w ",
"a w I '.! ! ! Q ! Q K K K w u ! E ! [.`.E W Z Z ^.W V 0 S H A G H A H A A A H C A S W 0 S L Y Y 3 E U U U U I U P K P K g I h s ",
"p f '.f p p w p f p p p r r I E i 7 2 2 7 1 7 4 0 V V V l x l c z x c l c l l l l V 0 V 0 S Y Z 7 L 2 2 i y y r a s p a a p p p ",
"p a a p p a p a p p a u u r d t 2 2 7 7 0 V 4 V l l x x z c c c k k z B B z z z z x x x x x V 0 0 7 7 2 2 y 2 y r u a p p p p p ",
"p p p a p a a p p p a u u t t 2 8 7 7 4 4 V l l l z z z k F E.E.E.F N k b n n j z z z z l l l V 4 0 7 7 2 2 t t u u u a p p p p ",
"p p p p p p p p a p u t t 2 2 7 7 0 4 4 V l x z z j j N }.yXyXiXuXuXtX4XF . M b m n n j z z l l V V 4 0 7 7 8 t t y u u a a p a ",
"a p p a a p p a u u r t u 7 7 7 0 4 V l l z z z n b N sXpXuXuXuXuXuX5X4XQ.% % . . m m n n j z z x l V 0 0 7 7 2 t t u u a p p a ",
"a p p p a p p a u u t t 2 7 7 0 4 V l x z j n b m X 4XiXtXeX9X8X9XqXW.    & % % % % . . M b n j z x x x 0 0 7 8 8 2 y y u a a p ",
"p p p a p a p u u t t t 7 7 0 V V x z z j n M % X Q.aX0X8X7X8X7X8X7X3XrXW.@ + @ + % % % % M M n n z z l V V 4 7 7 2 t y u u p p ",
"p a p p p a u u t t 2 2 7 0 0 V l z z n b . . X F yX0X7X8X8X7X7X7X8XW.; ~.: + + + + + & % % . . b n z z x V 4 0 7 7 2 t t u u a ",
"p p a p p a u t t t 7 7 0 V V x z z n b . . X   4XiX8X8X2X-X&X&X<X<XoX~.: + - - - = + + @ % % % m m n z z l l 4 4 8 8 2 y u u p ",
"a p a p p u u t t 8 7 0 0 V x z j n M . % & O R.yX9X8X-X&X-X-X<X<X&X1X3XdX; + - = = = = = - @ & % M m n z z l V 4 7 7 8 2 t u u ",
"a p a s a u y t 2 7 7 0 V l l j n b % % & @ # 5XwX8X2X-X&X=X>X>X=X=X7XuXaXsX!.!.R.o.; = = O O O # . X b n z x x V 4 0 7 8 d u u ",
"p p a a u u y d 8 7 0 V V x z j M M % & @ O !.aX8X7X-X*X$X;X;X;X;X$X$X$X8XpXpXaXaXtXsX5X4X!.Q.!.R.R.F F N n z c , 6 1 3 3 3 q r ",
"a a s s q q 3 3 3 1 6 , c k k o X X   # = !.pX9X7X-X=X;X;X$X$X$X$X;X<X3X2X0XyXyXtXaXaXpXaXpXpXpXpXuXaXtXsX5X5X4X}.{._.).R Y L K ",
"5X6X6X|.|.|.{._._.).).).E.).E.Q.Q.Q.Q.4XsXpXyX8X2X*X;X;X+X#XY.Y.Y.Y.@X,X7X8X8X9X9X0XwXwXwXyXyXtXyXuXuXaXaXpXyXiXiXiXaXaXeXaXaXyX",
"aXaXaXiXeXiXiXiXaXpXiXiXpXpXpXpXiXiXiXiXaXyX8X7X-X>X;X#XY.Y.Y.#X#XY.Y.#X$X8X8X8X8X7X7X8X8X8X8X8X9X9X9X0X0XwX0XyXtXyXtXuXpXyXuXuX",
"0XwXwXyXwXyXyXyXyXuXyXyXyXyXyXtXyXyXyXyX0X8X8X2X&X;X#XY.Y.U.P.H.P.P.+X-X-X-X2X7X8X8X8X8X8X8X8X8X8X8X7X8X7X7X7X8X8X8X8X8XeX8XeXeX",
"7X8X8X7X7X8X8X8X8X8X8X8X8X9X8X8X8X8X8X8X8X8X2X-X$X@XY.U.G.G.G.G.S.S.l.I.%X-X&X-X-X-X-X2X2X2X2X7X7X7X7X8X8X8X8X8X8X8X8X8X8X8X7X7X",
"8X8X8X8X8X8X8X8X8X8X8X8X8X8X8X8X8X8X8X8X8X2X-X=X$X#XT.G.G.G.G.G.G.G.U.#X#X*X-X-X-X-X&X-X&X&X-X-X&X-X-X-X<X2X2X2X1X1X1X1X7X7X7X7X",
"<X<X2X2X2X2X1X1X1X1X7X7X7X7X7X1X1X2X1X1X2X-X&X;X$XT.G.l.S.p.a.p.p.a.G.OX;X;X;X>X>X>X*X&X&X<X<X-X-X&X-X-X-X-X&X<X<X<X&X&X&X<X-X<X",
"-X-X&X-X&X-X-X&X-X-X&X&X-X-X&X&X<X<X&X&X-X-X$X$X#XH.S.a.y.y.y.y.a.p.y.p.P.;X;X;X;X;X;X;X$X;X>X;X>X=X=X=X>X>X&X<X&X<X-X<X-X-X-X-X",
"*X*X&X&X-X-X<X<X-X-X&X-X-X-X-X<X-X-X&X<X,X;X;X#XT.G.a.p.y.p.u.4.u.u.S.Y.Y.#X$X;X;X;X;X;X;X;X;X;X;X;X;X;X:X;X;X;X;X;X;X>X:X:X=X=X",
"$X;X;X$X$X:X;X>X>X$X=X$X;X>X;X;X:X:X$X;X;X;X+XY.P.S.p.p.1.1.1.1.1.1.1.u.P.Y.Y.Y.Y.#XOXOX+X+X$X$X@X;X;X;X:X:X:X:X;X;X;X;X;X;X;X;X",
";X;X;X;X;X;X;X;X;X;X;X;X;X;X;X;X:X:X;X;X;X$XY.U.G.p.u.1.1.1.1.1.5.5.6.u.p.Y.Y.#XY.Y.Y.Y.Y.Y.Y.Y.T.OX#XT.#X#XOXOX+X+X@X@X$X@X@X;X",
"#X+X#X+X+X@X@X+X+X$X$X+X+X;X;X;X@X@X+X+XOXY.Y.G.s.p.4.1.3.7.m.n.N.7.L.D.G.I.G.P.U.T.T.Y.Y.Y.Y.Y.OXT.OXT.T.Y.Y.Y.Y.Y.Y.Y.Y.#XY.#X",
"Y.Y.Y.Y.Y.Y.Y.Y.Y.Y.Y.Y.Y.Y.Y.Y.Y.Y.Y.T.Y.Y.H.S.a.4.<.7.N.N.V.V.V.V.C.C.L.I.G.S.S.G.G.G.G.G.H.H.H.U.T.T.T.T.Y.Y.Y.Y.#XY.Y.Y.Y.OX",
"T.Y.T.Y.Y.Y.Y.Y.Y.Y.Y.#XY.Y.Y.Y.#XY.Y.Y.Y.H.G.A.u.1.6.V.V.N.Z.Z.L.K.Z.p.p.a.s.S.G.G.G.G.G.G.G.S.F.D.F.D.G.G.G.G.H.G.H.H.H.H.U.U.",
"G.G.G.G.G.G.H.H.P.I.H.H.H.H.H.H.H.H.H.G.G.G.s.y.4.3.M.N.F.c.c. X Xc.v.x.a.y.y.y.a.a.a.a.s.s.s.G.G.l.S.I.l.S.I.G.G.G.S.S.S.l.S.S.",
"G.G.G.G.G.G.S.G.S.l.G.G.G.S.G.G.G.s.G.G.G.S.y.u.1.m.N.x. X Xc.c.c. Xx.d.d.y.i.y.y.p.y.y.y.y.i.i.i.i.p.a.a.a.a.a.s.s.S.l.S.I.S.S.",
"a.a.s.s.s.S.s.s.S.S.S.S.S.S.G.G.s.G.S.s.a.y.p.4.6.M.F. Xc.j.h.h.h.h.u.<.5.5.4.4.u.u.i.i.p.i.y.i.p.p.p.a.y.y.a.p.p.y.y.y.p.a.a.p.",
"y.y.y.p.y.y.y.y.p.p.y.y.a.p.y.y.i.y.y.y.y.y.4.1.V.A. Xj.r.r.r.r.r.r.g.e.f.<.5.<.5.1.1.1.4.4.4.4.u.u.u.i.i.y.y.p.a.p.a.y.a.p.a.p.",
"i.p.y.p.y.p.a.y.a.p.y.a.y.a.y.y.i.i.i.i.p.4.1.7.N.c.k.r.r.e.e.q.t.e.Z.K.m.7.5.1.1.1.1.<.5.<.1.5.1.1.5.5.6.1.1.3.4.3.4.4.4.u.u.u.",
"1.1.4.4.3.1.4.4.4.4.4.4.4.4.4.4.4.4.4.5.1.1.3.M.D.v.r.r.w.=.=.=.=.=.=.<.n.V.N.m.n.7.7.7.6.6.6.6.1.1.5.5.1.1.1.5.1.1.5.5.1.1.1.1.",
"5.5.<.5.1.5.1.1.1.1.1.1.1.5.5.5.5.1.5.5.1.1.n.Z.c.h.e.;.=.=.,.=.;.=.:.0.w.M.V.V.V.V.V.V.N.C.n.n.m.m.7.7.7.7.6.6.6.5.6.5.3.1.1.1.",
"7.7.6.6.6.6.5.6.1.3.1.1.1.3.1.3.4.5.6.6.7.m.M.J.k.r.9.=.=.&.*.%.*.*.e.J. Xx.S.Z.K.N.M.n.V.C.C.C.C.C.V.V.V.V.V.V.N.V.m.m.n.n.n.7.",
"N.N.V.V.V.V.V.n.N.N.C.N.C.N.m.n.N.N.n.V.V.V.A.c.h.q.>.&.%.+.+.+.+.+.+.+.t. X X Xc.c.J.l.l.S.A.A.Z.Z.K.K.N.n.M.M.V.V.M.V.V.C.V.V.",
"N.N.V.C.V.C.B.V.C.C.C.C.C.C.C.C.C.C.V.C.M.A. Xj.e.>.&.+.+.+.+.+.+.+.=.t.q.j.c.c. X X X X X X X Xc.c.c.x.x.x.J.F.l.A.a.A.Z.Z.Z.m.",
"x.l.l.l.F.F.S.A.s.A.A.A.A.Z.A.A.A.A.S.l.l. Xc.g.w.&.+.+.O.| | | | | +.:.r.r.r.g.j.k.k.k.c.c.c.c.c. X X X X X X Xc. X X X X Xc.c.",
" X X X X X X X X X X X X X X X X X X X X Xc.h.t.>.*.+.| | | | | | | | O.$.r.r.r.e.e.g.e.r.r.r.h.h.h.j.j.j.x.x.x.x.c.c.c.c.c. Xc.",
"k.x.c.J.x.c.c.c.c.c.c.c.c.c.c.c.c.c.c.x.k.g.r.:.&.+.O.| | } } } }  .O.>.>.,.w.q.e.e.r.g.r.g.r.r.r.g.r.e.e.g.e.e.r.r.r.g.h.h.h.j.",
"e.e.e.e.e.g.e.e.g.r.g.g.g.g.g.g.g.g.e.r.r.r.w.&.+.O.| | } ] ] ] ] { ] } %.>.=.>.-.;.;.;.9.9.q.q.t.t.e.r.g.g.g.g.r.g.r.r.r.r.r.r.",
"r.g.g.g.g.g.h.g.h.r.g.r.r.r.r.r.r.r.r.r.e.t.=.&.O.| } ] ] ] ] ] ] } } O.O.&.>.>.-.=.-.=.-.=.=.=.=.=.=.;.,.,.:.9.9.q.q.q.t.e.t.e.",
";.:.;.w.,.:.q.q.q.q.q.q.q.t.t.t.q.q.w.w.,.=.=.+.O.| ] ] ] _ ( ( ^ ^ ' | +.+.+.*.$.=.&.=.=.=.=.>.-.=.;.=.=.=.=.=.=.-.=.=.=.=.=.=.",
"=.=.=.=.=.=.=.=.=.=.=.=.=.=.=.=.=.=.=.,.>.>.@.+.| } ] _ ^ ^ ( ( ( ^ ( (  .+.%.+.+.+.+.+.@.@.@.%.*.*.&.&.&.&.>.&.,.,.,.,.>.,.>.>.",
"&.&.=.=.=.=.=.=.=.=.=.;.,.=.;.=.=.,.=.&.&.+.+.O.} ] ] _ ( ( ( ( ( _  .| } O.O.+.+.+.+.+.@.@.@.+.@.+.+.+.+.@.+.+.+.+.@.%.@.@.*.*.",
"+.+.+.+.+.@.@.+.@.@.@.@.*.*.%.@.*.%.+.+.+.+.O.| ] ' ^ ^ ( ( ( ( ( ( ] } | | } | } O.| O.O.O.O.+.@.+.+.+.%.@.+.+.+.+.+.+.+.+.+.+.",
"@.+.@.+.+.+.+.+.@.@.@.@.+.+.+.+.+.+.+.+.@.+.| } ] ( ^ ^ ( ( ( ( ( ( ] ] } | | | O.} | | | | | } | | | | | | O.O.O.O.+.+.+.+.+.+.",
"+.O.| O.O.O.O.O.O.O.O.O.+.+.O.+.O.O.O.O.| | } } _ _ ( ( ( ( ( ( ( ( _ ] ] ] ] } } | } } | | | | | | | | | | | } | | | | } | | | ",
"| | | | | } | } | | | | | | | | | } | | | | } ] ( ^ ( ( ( ( ( ( ( ( ( _ ] ] ] ] [ [ { { ] } } } } } } } | | | | | | | | | | | | ",
"| } | | | | | | | | | | | | | | | | | | | } ] _ ^ ( ( ( ( ( ( ( ( ^ ( ( _ ] ] [ [ [ { { ] ] ] ] ] ] ] ] ] [ [ [ [ { { { { { } | ",
"' ] } ] } ] ] } } } } ] } } } } } } ] ] ] ] ' ^ ( ( ( ( ( ( ( ( ( ^ _ ( / ^ ^ _ ^ _ _ ] _ ] ' ] ] ] ] ] ] [ { { [ [ { [ { [ [ [ ",
"[ [ { { ] ] ] ] [ [ ] ] ] ] ] ] ] ] ] ] { ] ( ( ( ( ( ( ( ( ( ( ( ( ( ( ( ( ( ( ( ^ ^ ^ ^ ( ( ( ( _ _ _ _ _ _ ` ] ] ] ` ] ] ] ] ",
"] _ ] _ ` ] ] ` ] ] ] ] ] ] ] ] ' ] ] _ _ _ ( ( ( ( ( ( ( ( ( ( ( ( ( ( ( ( ( ( ( ( ( ( ( ( ( ( ( ^ ( ~ _ ~ _ ~ ^ ^ ^ ( ( ( _ _ ",
"^ ^ ^ ^ ^ ^ ^ ( ^ ~ ^ ~ ^ _ ~ ~ ( ^ ^ ^ / ( ( ( ( ( ( ( ( ( ( ( ( ( ( ( ( _ ( ( ( ( ( ( ( ( ( ( ( ( ~ ^ ^ _ ~ ~ ^ ^ ( ( ( ( _ ( ",
"^ ^ ^ ^ _ ~ ( ( ^ ^ ~ ~ ~ ~ ~ ~ ( ( ( ( _ _ _ ^ ^ ( ( ( ( ( ( ( ( ( ( ( ( / _ ( ^ ( ( ( ( ( ( ( _ ( _ ^ ^ ^ ~ _ ^ ^ ( ( ( / / / ",
"_ ^ ~ ( ^ ^ ~ ( ( ( ( ^ ( ( _ ^ ( ( ( ( ( ( ^ _ ( ( ( ( ^ ^ ^ ( ^ _ ( ( _ ( _ ^ ( ( ( ^ ( ( ( ( ^ ( ( ( ^ _ ~ ^ ~ ^ ~ ~ ( .X.Xb.",
"^ ^ ( ( _ ( ( ( ( ( ( ^ ( ( ~ ^ ( ( ( ( ( ^ ^ ( ( ( ( ( _ ( ( ( ^ ( ( ( ( ( ( ( ( ( _ ^ ( ( ( ^ ^ ( ( ( ^ ^ ^ ~ ~ ~ ~ ~ X.oXoX.X",
"^ ^ ( ~ ^ ( ^ ^ ( _ _ ^ ^ ^ _ ^ ^ ^ ( ( ( ^ ^ ( ^ ^ _ ^ ^ ( ( ( ^ ( ^ ( ( ( ^ ^ ^ ^ ^ ^ ^ ( ^ ^ _ ( ( ^ ^ _ ^ ^ ^ ^ _ ^ _ oXoX..",
"^ ^ ^ ^ ^ ^ ^ ^ ^ ^ ^ ^ ^ ^ ^ ^ ^ ^ ^ ^ ^ ^ ^ ^ ^ ^ ^ ^ ^ ^ ^ ^ ^ ^ ^ ^ ^ ^ ^ ^ ^ ^ ^ ^ ^ ^ ^ ^ ^ ^ ^ ^ ^ ^ ^ ^ ^ ^ ^ ^ ^ ..:..."
};
