/* XPM */
static char *sp_panel2[] = {
/* columns rows colors chars-per-pixel */
"64 64 95 2 ",
"   c #323A48",
".  c #414A5B",
"X  c #495263",
"o  c #4F5A6E",
"O  c #505B6E",
"+  c #535E72",
"@  c #556175",
"#  c #596377",
"$  c #576378",
"%  c #5A657A",
"&  c #5E697E",
"*  c #606B7F",
"=  c #5F6B80",
"-  c #626E82",
";  c #657287",
":  c #66738A",
">  c #69768C",
",  c #6C788E",
"<  c #747D8F",
"1  c #6E7B92",
"2  c #717E94",
"3  c #748196",
"4  c #7A8495",
"5  c #768399",
"6  c #7A869A",
"7  c #7D899E",
"8  c #7E8AA0",
"9  c #828EA3",
"0  c #8591A6",
"q  c #8A93A4",
"w  c #8693AA",
"e  c #8A96AC",
"r  c #8C99AE",
"t  c #8D9AB2",
"y  c #8D9EBA",
"u  c #919EB3",
"i  c #8FA0BB",
"p  c #95A1B5",
"a  c #9AA4B6",
"s  c #93A3BD",
"d  c #99A6BB",
"f  c #9CA8BE",
"g  c #A3ADBD",
"h  c #96A7C1",
"j  c #97A8C2",
"k  c #9CABC4",
"l  c #9DAEC9",
"z  c #9FB0CD",
"x  c #A1AEC4",
"c  c #A0AFC8",
"v  c #A2B0C6",
"b  c #AAB5C5",
"n  c #A5B3CA",
"m  c #A8B6CC",
"M  c #ADB8CB",
"N  c #B2BCCD",
"B  c #A5B6D2",
"V  c #A8B7D1",
"C  c #A7B9D5",
"Z  c #ABBBD4",
"A  c #ADBED9",
"S  c #B0BFD6",
"D  c #B0BFD8",
"F  c #AFC0DB",
"G  c #B3C0D6",
"H  c #BBC5D5",
"J  c #BFC8D7",
"K  c #B4C3DB",
"L  c #B8C6DE",
"P  c #BDC9DC",
"I  c #B6C6E1",
"U  c #B7C8E3",
"Y  c #BBCBE3",
"T  c #BED0ED",
"R  c #C2CCDB",
"E  c #C0CFE8",
"W  c #C7D3E5",
"Q  c #CCD6E6",
"!  c #C5D4EC",
"~  c #C9D7EE",
"^  c #CCD9EE",
"/  c #C5D6F3",
"(  c #C8D7F0",
")  c #C7D9F6",
"_  c #CBDCF5",
"`  c #C6DAF8",
"'  c #CCDEFA",
"]  c #D1DFF5",
"[  c #D6E0EF",
"{  c #CFE0FB",
"}  c #D2E0F6",
"|  c #D8E3F3",
" . c #D3E3FC",
".. c #D9E7FD",
"X. c #DCE8FC",
/* pixels */
"  X - : : : , : : : : : : 1 1 1 1 1 , , 1 1 2 1 1 , : 1 1 1 3 3 1 1 : : : : 3 3 3 1 1 : : : 3 3 3 3 1 1 3 , , 3 1 3 3 > > : % o ",
". > t z B B C B B C C C A A A A K D A A F A A A A A C C A Z F F F A C C C C F F K A A A A F K F F K K K F F F F F F K Z C B 8 & ",
"= 8 F U m K ~ ' ` ` ' ' ' ' ' { { { ' ' ' ` ' ' { ' ' ' ' ' ' ' { ' ` { ' ' ' ' ' ' ' ' { { { { { { { { { ..} { } _ K Z U ) C 3 ",
"= h U w > > l ) ' { ` U K U ' { { ' ..{ ..' T F K T { { ' { { ..{ ..{ { { { { { { { { { { { { { { { { { { ......{ Z 6 ; 8 U F 3 ",
"= y Z 9 3 * 9 T ' U M b M g d K { { { ' _ D b M b p v _ { { { { { { ..{ { ..{ { { ' ..{ { ' ' ' { { { ..{ ..{ { _ u e ; 3 F K 3 ",
": h S 3 > p w ~ F g _ ......Q f K ....) k J ......} N f / ..{ ' { { ' { { { { { ' ..{ ....{ ' { { ....{ { { ..{ } p 3 e t F U 6 ",
"1 l / q < 0 Z _ p U { { { { ..^ d ~ ..S k ..{ ..{ { ..M m { { ....' { { ..{ { { { { { ..{ { ' ' { { ....{ { { ..| G < 0 s ) U 3 ",
"1 z ` _ P E ' E t ' ' { { ' ....b K ..d Z ..' ....{ { ^ f _ { { { { { { { { ..{ ' { ..{ ....{ { { ..{ { ......{ ....~ P _ { F 3 ",
": l ' { { { { P d ' ' ' { { { ..G Z ..a P ..' ' ' ..{ _ v ) { { { { _ { { ..{ { ....{ ......{ {  . . . ...{ ..{ { ..{ { { { K 3 ",
"= l ` { { ' { W p _ ' ....' { { m K ..g K { ..{ { { { T f ` ..' ..' { { { { { { { ....{ { ....'  .{ ....} ..{ ....} ..{ ..{ U 1 ",
": l ` ' ' { ' } p U ..{ { ' { / d ~ ..H k ....' ..' ..m m ..{ ....{ { { { ..{ ' ..{ { ....{ ..{  . . . .{ { ..{ { { ....{ ..U 3 ",
"= l ` ` ' { { ..R u U { ....^ k A { ..} g m / ....' K d / ' { ' ' { ' ..{ { ....' ..{ { { ..{ .. . ...{ {  .{ { { ....{ { { K 3 ",
"= l ` ` ' { { { ..H u k Z M x G { { ' ..[ g a Z D v x ~ { { ....{ ..{ { ..' { { { { ..' ..{ { { {  . . . ...{ } { ....{ ..{ U 3 ",
"= l ` ` ` ' { { { X.[ R H E _ ....{ ..' X.X.Q H J ~ ' ..' ..{ { { { ' ....{ ` ....{ { ' ' ....` { { {  .{ .. . .} ..{ ..{ ..U 3 ",
"$ l ` ' ' { { { { ..{ ........{ ..' ' ............{ ..' ' { ..{ { { { { { { { { ..{ ....{ { .... .{ {  ...{ { ..{ ....} ....Y 6 ",
"@ l ` { { { { { { _ ..{ { ..{ { ' ..' { { ' { { ....' ....{ { { { ..{ ..{ ....{ { ..{ { ..' { {  . . .{ {  .....} { ....{ ..U 3 ",
"+ h ` { { { { { { { { { ..{ { { ..{ ..' ....{ ..{ ..' ..{ ....' { { { {  . . . . . . . .{  . .{ {  . .{ {  ... . . . . . . .K 3 ",
"+ h ` { { { { ....{ ..{ { { { { { { ' ' ' { ..' ..{ { { { ' ' .. .{ {  . . . . . . . . . . . . . . . . . . . . ...{ .. .....Y 3 ",
"+ j ` { { { { { ..{ ..{ } ..{ ....{ { ..{ ..{ ....' ..{ { { ..'  . . . . . . . . . . ... . . . . . . . ... . . . .} ........Y 5 ",
"$ l ` { { { { { { { { } _ _ ' { { { { { _ { { ' { ..{ { ..{ ' .. .{  . .{  . . . . . . . ... . . . . . . . . . ...{  ... ...Y 6 ",
"+ j ' { { { ..{ { { { { { _ _ { ..{ ' ....{ { { ' ..' { ..' ..'  . .{  . . . . . . . . . . . . . . . . . . . ... ..... .....Y 5 ",
"+ j ' { { { { ..{ ....{ ..{ } ' ' { ..{ { ..{ ....' { ..' ..' .. . . . . . . .{  . . . . .{ {  . . . .{ {  . ..... . ... . .Y 5 ",
"+ j ` { { { { { { { { { { ..{ } ..' ..' { { ..{ ' ..' ..{ ....'  . . . . . . . . . . . . . .{ .. ... . .{  . . . . . . . . .K 6 ",
"+ j ` ` { { { ....{ { ..{ { ..{ ..{ { ..{ { ..{ ..' ..' ..' ' .. . . . . . . . . . . . . ... . . . . . . .{ {  . ..... . . .Y 6 ",
"+ k ` ' { { ....{ { { ..{ ....{ _ ' { { { { ....{ { ..{ ..{ ..{  . . . . . . . . . . . . ... . . .{ { { { {  .}  . . ... . .Y 5 ",
"o k ' ..{ { { { { ..{ ' { ..{ ......{ ..' ..' { { ....{ { ' { .. . . . . . ... . . . . . . . . . .{  .} { {  ... . . . . . .L 5 ",
"@ k ' { { ....{ { ' ..{ ..{ { ..{ ..{ ..{ { ..{ { ' { { ' ..' .. ... ... . . . .{  . .{  . . .{  .} F p C { Y l f (  . . .{ Y 3 ",
"@ l { ..{ ..{ ' { ..{ ' { { ..{ ..{ ' ..' ..{ { ....{ ....' .... . . . . . ... ... . . . .{ {  ...Y 3 6 3 Y r , 3 f  . . .{ L 3 ",
"@ m { ....{ { ....{ { { { ..{ ..{ { ..{ ..{ { ..{ { ..{ ..' ' {  ... . ..... . . . . . . . .{  . .F e T e K r G z f  . . . .Y 3 ",
"+ k ' ....{ ....{ ....{ { { { ......{ ' { ....{ { ..{ ..{ ....'  . . ... . . . . . ... . . . . . .m e ( r F 0 K F k  . . . .Y 3 ",
"O v { { ' _ ..{ ..{ ......} ..{ { ..{ ....{ ......{ { { { ..{ .. . . . ... . . . . ... . . . . ...m e P 0 K 0 G d s  . .{ { L 3 ",
"# v } { ' ..' ..{ ....{ { ..{ ....{ ..{ ' ...._ { ....{ ..{ ..{ .. . . . . . ... . . . .{  . ... .m e e 3 K 0 s * p  . . .{ L 3 ",
"$ n ]  ... .]  . ... ... . . . .{  . . . . . . . . . . . . . . . . . . . ... . .{ ..{ { ..{ {  . .B e 8 & G q d % p  . . . .U 3 ",
"$ g  . . . . .] ]  . .]  . . . .{  . . . ... ... ... . . . ... .{  . . . . ... .{ ....{ .. ...{ ..z p 8 & F q d % r  . . . .L ; ",
"$ n  . . ... . . . . ..... . . . .{  . . . . . ... . . . ... . . . . ... . . . ...{ .. .{ ..{ .. .z e 8 & G q d % e  .{  .{ L : ",
"# n  . . . . . . . . . ... . ... .{ {  . . . . ... ... . . ... . . . . . . . . . . .{ {  . ...{  .G e 8 & F 0 f % e } { { { L > ",
"$ n  . . . ..... . . ... . . . . . .{  .{  . . . . . ... . .|  . . . . . . . . . . . ...{ .. . . .g e e ; F 8 z * i { { { { F > ",
"# n  . . ... . . . .]  ... . . . . .{ {  .{  . . . . . . . . . . . . . . . . . .{  . . . . . .{  .z e L 8 F q G p i ` ` { { L 3 ",
"$ n  . . . . ... . .]  ... . . . . . .{ {  . . . . ... . . . . . . . . . . ... .{  . .{ { .. ... .g e ! u K q F z s { { { { F 3 ",
"$ n ]  ... . . . . .] W ]  . . . . . .{  . . . . . . . . . . . . ... . . . . . . . . . . . . . . .G e ( d K 0 K G l { T { { F 3 ",
"# G  . . . . . . . .] ]  . ..... ... . . .{  . .{  . . . . . . . ... . . . . . ... . . . ... . ...m e ^ s P e K G g { } { { K 3 ",
"@ g {  . . . . . . .W (  . . ... . . . . . . .{ {  . . . . . . . . ... . ... . . . ... . . . .....M e ( f K e G F l  .{ ) ) F 3 ",
"$ g {  . . . . . . .W T (  ... . . . . . . . . .{ {  . . . . .{  ... . . . . . .{  . . . . . . .{ m e ( f G 0 K K b { { { { C 3 ",
"$ G {  . . . . . . . .W ( .. . . ... . . . . . . . .{  . . . . . . . . . . . . . . . . . .{  . .{ m e ( f P 0 K G b {  .} } F > ",
"$ n  .{  . . . . . .] ] ]  . ... . . . . . . . . . . .{ { {  . . .{  . . . . . . ... . . . . .{ { v e ^ f K 0 G F v  .{ { { F , ",
"# n  . . . . .{  . . . . . . . ... . . . ... . . .|  . .{ {  .{ {  .{  . . . . . . ... . . . . .{ m e ) g K 0 K F j .. .{ { F 3 ",
"# n  . . .{ { {  ._  . . . . . . . ... . . . . . . . . .{  . . . . .{  ... . . . . . . ... . . .{ m e ^ l P 9 F G v { .. .{ F , ",
"$ n  . . . . .{ { _  . . . . . . . . . . ... . . . . . . . . . . . . . . . . . . . . . . . . .....m e _ g K 0 F F m { .. ...K 3 ",
"$ n  . . . . . .{ _  . . . . . . . . . . . . . . . . . . . . . .{  . . . . . . . . . . . . . . .{ v e _ m K e K P M ..{ ..{ K 3 ",
"@ v  . . . ... .{ _ _  . . . . . . . .{  . . . . . . . . . . . . . . . . . . . . ... . ... . ...{ m e ^ M U e K U Z } { { ..K 1 ",
"$ c { {  . . . . .{ _ {  . . .{ { {  .{  . . . . .{ {  .{ { { { {  . . . . . . . . ... . . . . .{ m p _ K P e K Y G ....{ ..K 3 ",
"$ l ! `  . . . . .{ _ _ {  . .{ { { { { { {  . .{  . . . . .{ { { {  . . . . . . . . ... . . . ...m p } W Y e K _ U { ......K 1 ",
"$ l { { {  . . .{ { { _ _  . . .{ { { { {  .{ {  . . . .{ { { { { { {  . . .{  . ... . . ... ...{ l 0 ( U P 7 M ) Y { { { { K 1 ",
"$ n _  . .{ {  .{ { { _  .{  . .{ { {  .{  .{ { { {  . . .{  .{ { { { {  . . . . . . . . . . . ...G 3 7 f ~ t 1 0 K { ....{ K , ",
"$ G _  . . .{ { { { { { { { _  .{ { {  .{ {  .{ { {  .{  . .{ { { { { { { {  . . . . . . . . . ...{ Y C T } _ F K } ..{ ..{ K 3 ",
"$ n  . . . . .{ { { { { {  . .{ {  .{ { { { {  . .{ { { {  .{ { { { { {  . .{  . . . . . . . . .{ { ......{ ........{ ..{ ..K 3 ",
"& n ] ~ I U !  .{ { { ` {  .{ ` { { { { { { { { { { { { { { { { { { { { { { {  .{ {  . . ... . . . . . . .{  . ...} P K ( } K 3 ",
"& n ^ u 4 7 V { { { { { `  . .{ { { { ` {  .{ { { { { { ` { { { { { ` { { { { {  . . . . . . . . . . . . .{  ...{ Z 9 3 p Y K 3 ",
"& v I r 8 3 r ! { { { { { { { { { { { ` { {  .{ { { { { { { { { { { { { { { { { {  . . . .{  . .{  . . . . . . .{ p p , 3 M F 3 ",
"$ c H 8 4 a e _ { { { { { { { { { { { { { { {  .{ { { { { ` ` ` ` { { ` { { { { {  . . . . . . . ... . ... . . .} d 3 e e F K 3 ",
"& l _ q 7 8 I  .{  .{ { ` { { { { { { { { { { { { { { { { { ` { { { { { { { { { { { {  .}  . . . . . . ...{ ..{ ..H 3 e g ( K 3 ",
"& g _ _ Y Y { _ ` { ` ` ` ` { { { { ` ` ` ` { { { { { ` ` ` ` ` T { ` T { T ` ` ` { T { { { { { { } } { } } } } } } W P _ { F , ",
"- 8 g g i j l f s s i i i i s f j j s i i i s j j k s i h 8 8 i h i i i i i h h h s s s s k h j j j j k l l f l j l l k j k e $ ",
"X & & 3 & 3 & & & & $ @ $ $ $ & & $ & + + + $ $ & = & + $ $ = @ @ + o + @ + + @ % % % & % * % * * % * * = = = % @ = = ; = = @ X "
};
