/* XPM */
static char *sp_panel4[] = {
/* columns rows colors chars-per-pixel */
"64 64 69 1 ",
"  c #323A48",
". c #414A5B",
"X c #495264",
"o c #4F5A6E",
"O c #505B6E",
"+ c #535E72",
"@ c #556175",
"# c #596477",
"$ c #576378",
"% c #5D697E",
"& c #606B7F",
"* c #5F6B81",
"= c #626E84",
"- c #647187",
"; c #66738A",
": c #69768D",
"> c #6E798D",
", c #6D7B92",
"< c #717E94",
"1 c #748196",
"2 c #788397",
"3 c #758299",
"4 c #7B869A",
"5 c #7B899F",
"6 c #7D8AA1",
"7 c #838FA3",
"8 c #8290A7",
"9 c #8A94A4",
"0 c #8593AB",
"q c #8A97AC",
"w c #8D98AD",
"e c #8A9AB5",
"r c #8FA0BB",
"t c #93A0B5",
"y c #93A3BD",
"u c #9AA7BD",
"i c #96A6C1",
"p c #97A8C2",
"a c #9BABC5",
"s c #9DAEC9",
"d c #9FB0CD",
"f c #A1B0C7",
"g c #A4B2CA",
"h c #A9B7CE",
"j c #A6B7D3",
"k c #A7B8D4",
"l c #AABAD5",
"z c #ADBED9",
"x c #B0BDD2",
"c c #AFC0DB",
"v c #B1C0D7",
"b c #B4C4DD",
"n c #B9C5D8",
"m c #BDCADD",
"M c #B5C6E0",
"N c #B6C8E5",
"B c #BBCBE4",
"V c #BECFE8",
"C c #BFD0E9",
"Z c #C0CDE4",
"A c #CAD7ED",
"S c #CBD9EF",
"D c #C5D7F4",
"F c #C6DAF8",
"G c #CCDEFA",
"H c #D0DFF5",
"J c #D0DFF8",
"K c #CFE0FB",
"L c #D3E3FC",
/* pixels */
" X=-:-:-:::<<36665,::,,31,----,,331,,,1377><:<367qq663,-::---*X ",
".:edjlkjjzzcMMMbbbbzzzlbcclzllzcczclzccMZAnxxbbBBCCCNNclllljde:.",
"$0cNjzCFFFKFFLFKLLLLFKKKKKFKFKLFFKKKKKKLLLLLKLKLLLLLKLKKFCclNc0$",
"%rB0::jDFKLLLLLLLLFLLLKKKKLKLKLLLLKLKLLLLLLLLLLLLLLKLLKLFl,:0Nr%",
"*rl71&0ALLLLLLLLLFLLLLLLKKKLKKLLLLLLLLLLLLLLLLLLLLLLKLLLSu>16ly%",
":px1>uqSLLLLLLLLLLLLLLLLKKKKKKKKLLLLLLLLLLLLLLLLLLLKKKLLKhf:3xa:",
",sA9<9lLLLLLLLLLLLKLLLLLKLLLLKKLLLLLLLLLLLLLLLLLKLLKLLLLLZu19Sa,",
",sFGmZLLLLLLLLLLLLLLLLLLKLLLKKKLLLLLLLLLLLLLLLLLKLLKLLLLLLAmKFs,",
"-sFKKKKLLLLLLLLLLLLLLLLLKLKLLLLLLLLLLLLLLLLLLLLLLLLLLLLLLLKKKFd-",
"-dFKKKKLLLLLLLLLLLLLLLLLKLLLLLLLLLLLLLLLLLLLLLLLLLLLLLLLLLLKKFs-",
"-sFKFLKLLLLLLLLLLLLLLLLLLLLLLFLLLLLLLLLLLLLLLLLLLLLLLLLLLLLKFFs-",
"=sFFKKLLLLLLLLLLLLLLLLLLLKLLLLLLLLLLLLLLLLLLLLLLLLLLLLLLLLLFFFs=",
"*aFFFLLKFLLLLKFLLLLLLLLLLKLLLLLLLLLLLLLLLLLLLLLLLLLLLLLLLKKKKFs*",
"%aFFKFKLLLLLJLLLLLLLLLLLLFFLLLLLLLLLLLLLLLLLLLLLLLLLLLLLLKKFFFs*",
"$sFKFLLLLLLLLLLLLLLLLLLLLLLLLLLLLLLLLLLLLLLLLLLLLLLLLLLKKKKFFFa$",
"@sFKLFLFLLLLLLLLLLLLLLLLLLLLLLLLLLLLLLLLLLLLLLLLLLLLLLLKKKKKLFs@",
"+pFKKKKLLKLKLLLKLKLLLLLLLLLLLLLLLLLLLLLLLLLLLLLLLLLLLLLLKLKKKSu+",
"+iFKKKKLLKLLKKLKLLLLLLLLLLLLLLLLLLLLLLLLLLLLLLLLLLLLKLKLLKKKKGi+",
"+aFKKKKLLLLHKKLLLLLLLLLLLLLLLLLLLLLLLLLLLLLLLLLLLLLLHLLLLKKKKFa+",
"$aFKKKKKLLKKHHKLLLLLLLLLLLLLLLLLLLLLLLLLLLLLLLLLLLLLKKLLKKKKLFa@",
"+sFKKKLLLLKLLLLLLLLLLLLLLLLLLLLLLLLLLLLLLLLLLLLLKKHKLKKLLLKKKKa+",
"opKKKKLLLLLLLLLLLLLLLLLLLLLLLLLLLLLLLLLLLLLLLLLLKHKLLLLLLLKKKFpo",
"+pFKKKKLLLLLLLLLLLLLLLLLLLLLLLLLLLLLLLLLLLLLLLLLKLLLKLKLLLKKKFa+",
"opFFKLLLLLLLLLLLLLLLLLLLLLLLLLLLLLLLLLLLLLLLLLLLLLLLLLKLLLKKFFpo",
"+aFKLLLLLLLLLLLLLLLLLLLLLLLLLLLLLLLLLLLLLLLLLLLLLLLLLLLLLKLKKFs+",
"oaKLLLLLLLLLLLLLLLLLLLLLLLLLLLLLLLLLLLLLLLLLLLLLLLLLLLLLKLLLKKaO",
"@sKLLLLLLKLLLLLLLLLLLLLLLLLLLLLLLLLLLLLLLLLLLLLLLLLLLLLLLLLLLGg+",
"OfLLLLLLLKKKLLLLLLLLLLLLLLLLLLLLLLLLLLLLLLLLLLLLLLLLLLLLLLLLLLg+",
"#gKLLLLLLLLLLLLLLLLLLLLLLLLLLLLLLLLLLLLLLLLLLLLLLLLLLLLLLLLLLKf#",
"+fKLLLLLLLLLLLLLLLLLLLLLLLLLLLLLLLLLLLLLLLLLLLLLLLLLLLLLLLLKLLf+",
"OfKKKKLLLLLLLLLLLLLLLLLLLLLLLLLLLLLLLLLLLLLLLLLLLLLLLLLLLLKKKKfO",
"#fKKKLLLLLLLLLLLLLLLLLLLLLLLLLLLLLLLLLLLLLLLLLLLLLLLLLLLLLKKKKf#",
"#xLLLLLLLLLLLLLLLLLLLLLLLLLLLLLLLLLLLLLLLLLLLLLLLLLLLLLLLLLLLLn#",
"#nLLLLLLLLLLLLLLLLLLLLLLLLLLLLLLLLLLLLLLLLLLLLLLLLLLLLLLLLLLLLx#",
"#hLLLLLLLLLLLLLLLLLLLLLLLLLLLLLLLLLLLLLLLLLLLLLLLLLLLLLLLLLLHHu#",
"#gLLLLLLLLLLLLLLLLLLLLLLLLLLLLLLLLLLLLLLLLLLLLLLLLLLLLLLLLLLHHx#",
"#gHHLLLLLLLLLLLLLLLLLLLLLLLLLLLLLLLLLLLLLLLLLLLLLLLLLLLLLLLLHLx#",
"#gHHLLLLLLLLLLLLLLLLLLLLLLLLLLLLLLLLLLLLLLLLLLLLLLLLLLHLLLLLHHx#",
"#hLLLLLLLLLLLLLLLLLLLLLLLLLLLLLLLLLLLLLLLLLLLLLLLLLLLLHLLLLLHHg#",
"#nHLLLLLLLLLLLLLLLLLLLLLLLLLLLLLLLLLLLLLLLLLLLLLLLLLLHLLLLLLLHh#",
"#gLLLLLLLLLLLLLLLLLLLLLLLLLLLLLLLLLLLLLLLLLLLLLLLLLHHHLLLLLLLLn#",
"#gLLLLLLLLLLLLLLLLLLLLLLLLLLLLLLLLLLLLLLLLLLLLLLLLLKSSLLLLLLLLx#",
"#gHLLLLLLLLLLLLLLLLLLLLLLLLLLLLLLLLLLLLLLLLLLLLLLLLHZSHLLLLLHHg#",
"#hHHLLLLLLLLLLLLLLLLLLLLLLLLLLLLLLLLLLLLLLLLLLLLLLLAAHLLLLLLHHx#",
"#gHLLLLLLLLLLLLLLLLLLLLLLLLLLLKKLLLLLLLLLLLLLLLLLLLLHHLLLLLLHHx#",
"#hLLLLLLLLLLLLLLLLLLLLLLLLLLKLLKLLLLLLLLLLLLLLLLLLLLLLLLHLLLLLg#",
"#gLLLLLLLLLLLLLLLLLLLLLLLLLLLLLLLLLLLLLLLLLLLLLLLLLLLLLLLLLLLHg#",
"#gLLLLLKLLLLLLLLLLLLLLLLLLLLLLLLLLLLLLLLLLLLLLLLLLLLLLHHLLLLLHg#",
"#gHLLLLLLKKLLLLLLLLLLLLLLLLLLLLKLLLLKLLLLLLLLKLLLLLLLKSKKLLLLLg#",
"#gLLLLLLKGKKLLLLLLLLLLLLLLLLLKLLLLLLLLLLLLLLLLLLLLLLLKKKLLLLLLg@",
"@fHKLLLLKKHKLLLLLLLLLLLLLLLLLLKKKKKLLKLLLLLLKKKKHLLLKKSLLLLLKKu#",
"#uFGLLLLKKSKLLLLLLLLLLLLLLLLLLKKKKLLLLLKLLLKKKKKLLLHSKKKLLLLDKs#",
"#aGGLLLLKKHHLLLLLLLLLLLLLLLLLLKKKKKKLLLLLLLKKKKKLLLHSLKKLLLLKDa$",
"%gKLLLKLKKKHHLKLLLLLLLLLLLLLLLKKLLKLLLKKKKKKLKKKLLLHKKKKLLLLKKd$",
"#gLLLLKKKKKKKKKLLLLLLLLLLLLLLKKKKKLLLKKKKLKKKKKKLLLLKKKKLKLLLLv@",
"#gLLKLLKKKKKKLLKLLLLLLLLLLLLKKKKKLLKKKKKLKKLKKKGHLLLKKKKKKLLLLg$",
"%hKAnBFKKKKGKKKKLLLLLLKKKKKKGGKGKKKKGGKKKKLLKKKKKKKKKKKKLAmnSLh%",
"%fSt24hFKKKKFKKKKLLLLLLLLKKKGGGKKKKGKKKKKKKKKKKKKKKKKKKKKh42tSh$",
"%fnw8:wAKKKKKKKKKKKKLLLKKKKKGGKGKGKKKKKKLKKKKGKGKKKKKKKKCq17wns$",
"%un91uwAKKKKKKKKLLKLLLLLKKKKGGKGGFGGKKKKKKLKKKKGKKKKDKKKSqy17ns%",
"%fHw4wvKLKKKKKKKLLLKKKKKGGGKGGKKGKKKKKKKKKKKKKKKKLKKKKKKLvq4wSu%",
"%uSAmBKGKFFFFFGKKKKKKFFFGFDGGGFFFDDDGFKKKKDDDDKKKDDFKDDKSLVmSHu&",
"%quspppuryrprrtuyyyyyyrryrry6p6rrrrrryiiyyrrrriiiirryyyyyauasuq&",
"X&;;-===%%@@@@%%%%&%%%%%@@@@++*@@+o$$%=%$$$@$%$%*$@$$$%&=&&;;;&X"
};
