/* XPM */
static char *wool_colored_purple[] = {
/* columns rows colors chars-per-pixel */
"64 64 29 1 ",
"  c #1F232B",
". c #21262E",
"X c #232730",
"o c #252A34",
"O c #282D37",
"+ c #292E39",
"@ c #2D323D",
"# c #30353F",
"$ c #2F3541",
"% c #313641",
"& c #353A46",
"* c #373D48",
"= c #383E4A",
"- c #3A414D",
"; c #3D4452",
": c #3F4758",
"> c #404756",
", c #414857",
"< c #404758",
"1 c #434B5B",
"2 c #464F60",
"3 c #475062",
"4 c #495265",
"5 c #4D5669",
"6 c #4E586C",
"7 c #505A6F",
"8 c #535D72",
"9 c #556076",
"0 c #5A657D",
/* pixels */
"....XX+++XXXXXXXOOooooooooooooooooOoooo....oOXOXXX+XXOOOX++XX+X+",
" .X+*55542222:::,,133,33,11,31111111>11>1<<1131232223322223>%+oo",
"..+;82;:::::1:::,33333333,334333115311111<133233332213332378<%+X",
".X=81*%&**%****&*=======&&>*====---==***&&%===%=%%&*==%%%%=58=+X",
".X21*&*=*%%***&%&&====>,,,>>>>1><1<>>>>=>=%%%*##%%****&==*&*54+X",
".+2=&-:=;*&&********==,71&##+###%%%%##%>3>*###***%%*%#=;::=&=5+X",
"X+2*&;$+@*=*&&***&&=->,9>#O+++++++++++%<4>***##*%****==@+%:&*4+o",
"+@4=*;&XX+==&&*&&&=--=>886444545555444384-*****#*%**>>#O+&:*=4$+",
"O@4-*-1&++$;=***======-,4433444355355752<=*=*****%*;3%X+&==&=4$$",
"O#4***>4*+X%:=**===>=>=>>>=>>&>>=;;=======*=****=*;5&X+==*=&:5$$",
"@#4=***,4*++;;**=====>=-==**&>>&=========*===>=*==4;+X;1==*&=5$$",
"@#4*&**=25*+*;=====>===-==&>&&&===============**==4*+=5==&&&=4$+",
"#%3=****=451<-======*>*>>===>&&==========*==-=**=*<416;&%&&*;5$$",
"##2=*****=,1;=&&&>==&*****==#>=&===**===========**=>1===%%&*;5$$",
"$$1-***=**==&&&%&&OOooooOOOO+OO.O++++&====;;>========&%*=&*==3+%",
"@@1=******=*&&&=&OO&=&&>****#==>====%X&=====**=====%%==&*=**;2$%",
"@@;***&******&**#o=>==>>>>&=>>>>>>>34#+*>*-***-**&&&**&****#-1##",
"@+;*&&%&****&*&*%O***->-=>>>>=>>*>**,,+&#-******==&&&*&%&&**>,##",
"%+;%&%%%*&&***&&#+**&>1&O+++OO++&,>*>>+*--***#**===&*%&&**&*-1@%",
"++;*%%#%#&****&&%O&**>5>>>>>>>>=,3,***+****>#***==&=-=*&#&##-1@%",
"++=*%&#@#**&*&#*#O#**=15144434443,**>>X#*>#>*+**&=*&=-=%%%%&=1$$",
"++;&%&###**&&&**&O**&*=*=>=&====*>***>+#*#>#-##-=&*%===&%&=&;1$%",
"++;%%*&##**%%&%*&O&##**-===#*#*=*=**>>+**##>-*--&==&**&&&==*;1$%",
"++=%#&=%#&***#%&&O&&&***=&=*==****=*>,+#*>##*-*#%&&&*%&*====;1$%",
"+X=*%*=%&***%=**&O&&%*&&&**&***=***&->O&**#*****%%%%&&&*===->1%%",
"++:=#*%%#*=**=**&+*=****&&*&**#=***&=>O#&*******&&%%&&&%===-<1%%",
"+o:=%=%%%%===%&==O=*********=**=*****>o#&&**#***%%%%*=%*&==;<2%%",
"++:==%#%#*>-=%&==+=****=*&&*#*=*******o#***#*#**&*&**=*=--=;<<$%",
"oo::&$##%=====*=>%====*=******==*&****o#*&***%&=====*&&===*=<1$$",
"+o:=%$#%*=======<%>=====*****##*&*&***O&&***=*=**&&==%&%====;1$%",
"++::$#+%***====>1%======*************&o#***==-=======*-;=***<1@@",
"+o==$%%%**==*=%=3%>=====*****=*******#O#**==--&**-===*====*=<<$@",
"+O>*&#&*-******-3#--*****-*-=**=**=**#O&**==--===--&&*&*==-=-,&#",
"OO>-&&--**->*-*-3#-----***-*=-****=&&#O#****=======&**====**,3&#",
"+O--&=---*-****-4*---**--**--*==*=>=&#o&****&*=====&==**&&&*>1&&",
"##>>----**--&&*>3#>-*-**-**--*==***1-Oo&*=**&&===**&*==&=**-,1&&",
"#+,,>*--&*>***>-,#----*-*--*-===****>#O&**==**=*=&&&*===***>13&&",
"##23>>-&#&--****3##,*-*-----;--;>>,*#o+&&*=*****&&&*==****>>,1##",
"##2,---*#&*-*&**>3@++++@@+#+@@+@++++o#**********##&=-,-==*>*,3#&",
"##2,--*-&&-*-**---,,33333343144431>*********=**&#&=----=**&>,6##",
"##1>---*&&*>******----->;;;;;-;->-**&&====*&=**&#&***>>*====,7&#",
"*#,>-*-*&>****-*****-**-=*&=====**&&&====&*=****&&=*****>**=17##",
"*#,>-**-**>&*&*--****-******====**&&&&&=&*****&&&&>**>*>**>>,7#&",
"##1,--***&#&*&**-&&*-*-*****&**=**&&==&&&&*=*##&#&====>*&*==,6##",
"##,>-*-*&&*>-&------#*-#*******&**&**&*****&&&&&&&**>*#*-#*->6##",
"##,-*#*-&>**--&&&-##----**%****$#&&**&***=****&&&&**>***>>*-*4##",
"%%,>-#**&&-##>---&#-#-*-**$&***&&&&&&*********&&&*&&>*>##>>#>6##",
"&%,>--**-#>>&#&-&-----#-******&&&#&&&&*=-***-*&#&*&&#>#>>#**>8##",
"@@1;--=&*--****-======&=====*&&&##*#****=*****%%&&&****=>*==>4&#",
"@@1;---***---***=&===&===&==*$&&#*#***#*===****&&&********==>4##",
"@@,------->-----===&=====&&&&&$&##**#&&******#%****=>>>****=>6#&",
"@@1----&&->&*--*====&&=====&&&$&#*#***&*=****&%*==>=#>>***==>6#&",
"#@4-----*-&@*;--==&==&=====&=&&&*****&&*=***&*&&=-1*#&>***#>>4#*",
"@@4-&--;;%@@---*==&=&==&==&&=&&&*#*#*%&*****%=*===,,OO#>>#>#*4##",
"@@4=&=;;&XX&,-**=&=&============*****&&*****&=&====1>O+&*>&>>6#-",
"@@2*&,1&@X&1>**&&&=&&===2::::::211,1>->>>***&=%*==*>3*o+#>>>>6##",
"@+2**4*@X*41&===&&&=&==5:====&==>*===*=:2=**&%%&-**#>4-O+*1>>4##",
"X+2&&6;@:8>*&&**=$&&&=:5=++++++ooOOO+++=3=*%%%%&##***>5,#>3>>4#+",
"X@4*&:667;&**&&&&&&&&=:65$$$&&&&%%*&%%;53;&%%&***#***#>3641*,6#+",
"XX45-*;;=&&&&*&&&&=====:6655556765645563;==&=*%&#******->>*>66#+",
"XX-96-*&&&&*=-**$=&$=&==&==========*****=&=*********-*-***>59>Oo",
"XX+;0744444444445555552:::::::::2:::;:::>><111,,111111111,301#Oo",
"XXX@;2:2111;:111:::::::=:=::=====::==:::13445555455676666573#+oo",
"  .XXXXXXX@XX@XX+X+X+X+X+ooooo$oo+oo++XXOO+@OOO+OO+++++++++++ooo"
};
