/* XPM */
static char *sp_panel3[] = {
/* columns rows colors chars-per-pixel */
"64 64 75 1 ",
"  c #1B1315",
". c #1F1618",
"X c #201618",
"o c #241B1D",
"O c #281D1E",
"+ c #271E20",
"@ c #281F21",
"# c #2C2325",
"$ c #2E2628",
"% c #2F292A",
"& c #302527",
"* c #312629",
"= c #332A2C",
"- c #3A2C2F",
"; c #362E30",
": c #3C2E31",
"> c #363132",
", c #3C3234",
"< c #3E3738",
"1 c #3F383A",
"2 c #402F33",
"3 c #413336",
"4 c #443639",
"5 c #443A3C",
"6 c #493B3E",
"7 c #463F40",
"8 c #4B3E41",
"9 c #474042",
"0 c #4C4244",
"q c #4D4748",
"w c #4F4849",
"e c #504447",
"r c #524649",
"t c #554A4D",
"y c #584C4F",
"u c #564E50",
"i c #5A4E51",
"p c #575152",
"a c #5C5355",
"s c #5F5658",
"d c #5F585A",
"f c #605457",
"g c #615759",
"h c #635A5C",
"j c #685C5E",
"k c #665F60",
"l c #6A5E61",
"z c #676062",
"x c #6B6364",
"c c #6D6768",
"v c #6E696A",
"b c #706466",
"n c #716669",
"m c #726C6D",
"M c #786B6E",
"N c #746F70",
"B c #796F71",
"V c #767273",
"C c #797576",
"Z c #7B7778",
"A c #7D797A",
"S c #807476",
"D c #827679",
"F c #827B7C",
"G c #847F80",
"H c #897E80",
"J c #868082",
"K c #8A8384",
"L c #8E898A",
"P c #918587",
"I c #928789",
"U c #938A8C",
"Y c #9F9596",
"T c #A49A9C",
"R c #A89D9F",
/* pixels */
"oo<53<444<4<3##<4<<<<<1<11111111<11111111111111>><>>>;;;=====<- ",
" yInllxxxxlbMs=fxlxMcMMMvvvMmNmVVVVCCACCVAVVVVNmvvvclgggssshlFJ:",
"Xhx2266666688iy8ysfxxxnlzxvxvvvNNzNNVCCCVVVVVNNvxhsuiyr088846eS:",
"X6y363<:-***=&4yyfggxlxczzxvMvVVNNCVCVCCVVVNVNvzk7;%==;==:3424j&",
" 3g6-*####===-=0fiffhxhkkzcvzvvVVAAVVACAVNNNNNvvw;1<;=####=:36l&",
" 3h4&#==<<4=&<#4MrssglxhkxzzcvvVVVVACAAVVVNNNNvA7=5<<4<:=%##46l&",
" 3j6##<<=:-&&=4xgyysghhkskzcvvvVVAAAAAAVVVVNNNvVn5;=%=:;<>%@38l*",
" 3l4#*<#3iyyyfxfryssshshhzzcvvvVVAAAJAAVAVVVNvvzMNlsssg5%5=#36l*",
" <x4#;4@e8680r0rrtissishkzzzcNVVVAAAAAZVAZVNNvzzzddttyyt#<=#36l#",
" :l3*=<@60:#@3yrrtiisshhzzzcvNNNVVAAVVZZZZVNvvvdhh7#o<te@<=#46l#",
" 2b3*;<o00O&*@<ryiissfhgdzvcvvvNVVVVZZVZZZVNvvvzh5+##oe0@<%*38h@",
" :b3#=;#e3#5<*@:tyssssssdzzzzvNNVVVVZAZAVZVvvzzd<#=<5#5t@:=%28l*",
" :l3#-:#6y*<5<#@=titssspdzzvcvcvVVVVAAVZVNNvvvz>#%>54%ieo;:#26l&",
" 3x43&#5e6s*55<*@*0ssspsdzxzvvvvVVVVZVvNNvNNNz>+%>15*stt5##446j&",
" :l2tree36yf=555=o#witssdhzzvcNNVVVAVVVVVNNVd%%>179%gg08rryy26g&",
" 2b2-633665yh%59<<@#0sddzzzzzvvNNVVVAVZZZZAd%%>999=hhrr0586646f*",
" :l222346666yf#<05>##0dhdzkzzzvNVVVNVCCACCd%$1999#hhttre086633f*",
" :j2223335666fs#507>##9ddkzxzvNNNNVVNCCVAd%%1905#zxuyt0e064433h:",
" :x-2233364666fh+195<##0kzxzcvvNNVCVVCCCd=%15w0#kMssitee046332g3",
" :l222433446666js#5q<>#=wzzzzzcvNVCVVCAd=#19w9*xVshssiree63633j<",
" -j22223445566eehs#5051#%qhkzzcvNVVVCAd==19w9%cChhdsiitee66666j*",
" 2b-2233345600ee8hh#1051%%0kccvvNVVAAp%%9599=vChhhssstr6666666j-",
" -b2223333566ee0r0kh#<995%$qzvvVVAAAp=;99w1%vCzzxhdsyit0666646j&",
" -j2-2-33336660errwhd#>097%%9cNVVAVw%>9qw>%MZvxhhhhsttt0066438j&",
" -h-2-323355660eretrhh#<005>$9vvNNq%>99q>=NAxvvzhssyttree85436l=",
" -j--23333466eeerttsuxx==w99>#qNv9%>99q><VAvvvxzhsusyeee065436l&",
" <j2--233446680etitssihz=%w97>%11%>999>1VVVVvzzzdssyste0e63324j=",
" -j22223343566eerttisspsx>%w99<##>99q>1GZvNvvxzzsssyytt0665424l=",
" -l22332443660eerttssspssB8=099>>999>wAVNvNNvxhhsssyttte864446l&",
" -l-2233436660eetttsitshhxF0=999999>wKVVVVNvMzhhssstte0ee64444l=",
" -j2223333660eeertttssshhdxC<=95991%NKVCZVVNzzshssttyeere86624j&",
" -j22333666660eertrtishhzzhFh=95999>VGNCZVNvxzssspsssye6686664j2",
" 2j2332226688888rttisssshxlZv%99999>FKZNVVVNvzhdsssstt06065352f3",
" 2j23332446688t8rtsissuuhhkIt;99999>vLZCNZVvvzddhhssstee6333<6f:",
" 2j22362648888yytttsishhhzZh;09999q19UCCCZVvxzhhhhhsfst0665336h:",
" 282366346888888titssshhhx9%w9w9199q>wKACNMNvxkdhsssiyte066333y3",
" O263636466688yyttssisskv<%w909;%1q9w>9FAVCVNvzzhhhssttt666664e=",
"XOy823624666888yyiiissln<=w79<%97#19qw%1AVxMvvvxxzhssuyee66666y-",
" 2l2263666688ytttiiisxM;;w07>#sYRz#>9wp><VCvvxvvvxhhsytwe86632y=",
" 2l222626688y88tttiixx%>t97<%MUAZRx#<9wp<=CZvxxxxxhhsiste66634a&",
" 2j2226666688ttttitxx%<097;+=CVmvVLx%>00w<%VAxvzzzhhfiiye66636j#",
" 2j222222646888tyrlx&4055*<s5sVVVVZLN%>q0w1=NAzvxlhhssyre86636j#",
" 2l22462666888ty0ll#1w95%=CZFhMmVVZVKZ>>99w9=MFxzhhhisyre06426j&",
" 2j2222666888tt8ll%5w9<%*BBsNkcvVNVZZLF>=90w9$MVhhhgiyyre66626j&",
" 2l226266668er0lh#5t5<#%xCkxvBMNVNCFFVJJ1#1909%zCshfste0086433j&",
" 2l=2226366688gh#595<#*kvkxccCFZAAFAAFAJJ9#59w5#xcssste8866624j&",
" 2j2222466666fg#1w7<#*cnhkzzcNKZVAAAGAVVFUw#1709#hntst066663:4j&",
" 2j222263666ig%107<@=BchzzczvMZAVVZZVCAVVAPt#19q9#hxyye85544:4j@",
" =j2-42338<eg=507<+=SnskkkccvNNZVVVVCFFCAVVL0o5900=xjtte536<26j&",
" &j2yter668r=575:@*SnsgshkxccvcVVVVAAAGCZAVVF4o<599=hheey0ry-6l#",
" -j25@#688a*54<=@*BnissshxcccvmVVVVAAACFZVZcvF5+><59=fyt7##<36l&",
" 2j2#;;o8y*35<*o*BBussuskkccvNNVVAAVVVZVVNvvMMZ5o=195=ft+>=o-6l&",
" 2j:&=<@r6#41*+<SnrusiskkxcccNNVAAAAZVZZVVVVVvVZ0#=55#0t+<=#&6l&",
" 2l:*==@8t&&%o4SlriuushkkkxzcvNmVVAVZAZVAACCCvvvMt####te#<=&-6j&",
" :j-#<=@8ey&o8Sh8uusssshkkcxccmNVVVVVZVAAAVVvvvzzMp==0y0#<=*-6n*",
" -h2#=<Oe8ylnSt0itriisshkxccccNVVVAVZAAACvVVNNzzdszxkst0O<*#6-a-",
"X3l4#%<#3syygflfriiisghhzzzvvvNVVVAVAAAVCCVVNNvzMCxgsty<#<%o6l<O",
" 3l4##::=--##*4lgiiiisklddzvvvNNVAAVAVAANVVNNvcNv5=*#==%;=##<iBO",
" 2l6=#*-<<<:-<#4brsigkxgdzzzzvNvVVAAAAAVNCCNNvcV<*5<<4:%%%#o32S:",
"o6l8e###O#&**;=0siisgxgkddzdvvvNNVAVAAVVZCCZNvvv0<<;==@oo+#063C3",
" ej-jt623:*=*=3tuuisvddzdddvzzvvNNZZVVNVNNNNvMxzs5==-<<=36fy=2S3",
" fH66ajjfiaiiiyipsgxzzNvvzzzvvNNNVZAAAAVCCNCZCVMxzhhgsissfie8aI4",
" 6SMgjytrryeiissdddzzvvdzzvvNNZAAAAAJJJJKGKKFFACCCCBMxxjjjjgill@",
"oo@@oOOooOoo@o@@###%##%#%%##%%%%%%>%%>11>>>>>%%=%=%##%##@@o oooX"
};
