/* XPM */
static char *sp_panel5[] = {
/* columns rows colors chars-per-pixel */
"64 64 29 1 ",
"  c #1F232B",
". c #21262E",
"X c #232730",
"o c #252A34",
"O c #282D37",
"+ c #292E39",
"@ c #2D323D",
"# c #30353F",
"$ c #2F3541",
"% c #313641",
"& c #353B46",
"* c #373D48",
"= c #383E4A",
"- c #3A404D",
"; c #3D4453",
": c #3F4758",
"> c #404757",
", c #404857",
"< c #404758",
"1 c #434B5B",
"2 c #464E60",
"3 c #475062",
"4 c #4A5265",
"5 c #4C5669",
"6 c #4F586D",
"7 c #505A6F",
"8 c #535D72",
"9 c #556076",
"0 c #5A657D",
/* pixels */
"....XX+++XXXXXXXOXXOXXXXXXXXooooooo...o.XX.XXXXOXXO++X+++X+X+.+X",
" .X+*55552212:::,3,34,4,,4333,,32,22,22,>>#X.#1141111313414>#+X+",
"..+;82;;:::11:::,43344333,3344332,33332,2>>#O>14314114311178>#+X",
".X=81&&&*$&*******==--*--**-====&>>&&&&&&#&&#>#=#******#**=58-+X",
".X11=&**&&%***&%&&=*---,,,,-,,,,111>>>>>>=&#=&&&#****#**=*&=44+.",
".+3=&-;;-*&&**&*****--,6,&#####&#######>3>&#&&&&>##*=#*>;;;&;4+.",
"X+2*&;$+@***&&***&*---38-#OOOO#O@@@OOOO>4,&&&#&&#****>*#+%>*=4@X",
"+@4**;&XX@=-&&*&&&*---,896544544554444473>=&&&&&#*=*>>@X+%;&=4@@",
"+@4**-1&+X$;=*&&*=-----,554445554355555,>===*&=&&&&;3%X+%;=*=5$@",
"+#4***>3*+X%:;&*===------------->=>====>==&====*=*;5&X+=;***;5$@",
"+#4-***,5*++;;*===--------**-*--==**==========*===4;X+;1=**%=4$@",
"@#4*&**-25*+*;-=--=-----------**=*=*==========*===4*+=4;***%;5$@",
"#%4=****-171>;==-=-----------****=&&=====&======*&1415>&&&&&;5@$",
"##2=****==>1;&&&*-***----------*#>>#>&=====>====**=>1-&*%&&*-5@#",
"@$1-**=***==&&&%***-*----------->>&>&====>==========*&&*&&*=;4$$",
"@@<-******=*&&&&*-**-**-----*---&&&&&=>&=========&&&&&*&&*&==2@%",
"@@;***&*****&&********=>=-====----#---*--*****-*=&&&&&*&&**#-1#%",
"@@;*%&%&******&&********=-------*---*#-*---******=*&&&&&&&**-1#%",
"@+;&&%%%**%***%*******---=====----#-*---*--**&***=&&&&&&**&&-1@#",
"@+-*&%#%#******%***&*==========--*-*-*--***-&#**==&--*&&&#&#-1@%",
"++=&%&@@#****&%&*##****=========*-***-##***-&##***&&--=&%%&&-1@$",
"++;&#&###*&&&&*&********=====&==-*-**---*&&--#&=**&&&--&%&*&;1$%",
"++=&%=&#%**&%&&&#*#*#**>==&*&*&=-***********-*--&&=&&&&&&*=*;1$%",
"++=&#&=##%*&*%%&****#**#&&**&&==*************-*&&&&&*&&&*===;1$%",
"+X=*%&=%%***=&=&#**#&&&&&=&&&=&&*#********&&***&%&%%&&&&=-=->1%%",
"++:=%&&%%&==%*&&=***=&&&&&=&&&=&*-=#*#=#&&&*****&%%%&&&%&==;>1$%",
"+o:=%=%%%&-==&%==#**&=&>&&&=&==&********&&&*&**&%%%&**&**=--11$%",
"++:=&&%%#*;-=%&*>>**&&&&=&=&&&==******#**&*&&#**&&&*****--=;<1$%",
"oo:==$##%=====*=*=#===&&=&&=&&&=*&****#*&&**=%&===*=*&&&====:1$$",
"+o::$$#%&=========>#==>&&==&=&&&&**=****&&**=&=*&****&&&*===;1$%",
"+X:=$%$@***========>=>&&===&&===***#**#*&*&==-==&===**-;=***<1@@",
"+.&=$%%%**==&=*=====>#&====&==&&*=****#**==---***--==**=-=**<<$@",
"O.O&&#&=========**-**-***-*-==**====&&&&===---===-==&*&&-=-*,1##",
"O..O#&=-===>====#-**-*-***-*=====*=##=#&&=&========&&*--=***,1#&",
"Oo.X#->=====&===-----**--**--*=*&==&&=&=*&=&&*====*&==**&&&=,1&&",
"#X.#->-=====&&==>-*-*-*--**--*=======#&=*==&#=====&&&-*****-,,&&",
"OXO>>===#==>====--#--*-*--*-=====&==*#&=&-==*&--&&&&*-====#>13##",
"#O>,>>==#=======----*--***-*==**&====**&&--*=&&&&#&=&-**==>>,3#*",
"##3>====#&==&&==----*---*-*-=&=&===&====&&**=-=&#&&--,-*==>>>1##",
"##3>>====&====&=---#-*******=&=*=&&*&#*==&&&-&-&#&=----===#>15-#",
"*#,>-*--*#======#->****-=========&#&#&=====&&-&#%&**----====>7##",
"##,>--**========*-#*-***=*&========#&&===&&=--=&&&**----=*==>7##",
"*#,>---**=======----*-**=**========#&==&&&==&&&&&&-**---==>>>7#*",
"##3>-*-****=&&==*##--*-*=&*=&&=-==&==&&=&&=&&#&#$&*=-=-&*===>7##",
"##>>-**-***==***=********&*=***%&&===#=&==&&&&&&&&&-;-&&-*-->5##",
"#@>>*#*-==**>==*===***-***&&***$###===&&&==&=&&&&&&*-=*%&-*&-4##",
"##,>*##-===&#=>**********&&&****=&==&=&==&=&=&&&&&&&=-*-#&---5##",
"#&,>---*===>#*=*==#>*#*>**&&****###=&&======-&&&&&&&*----+&-,7&#",
"#@1;--=&*--***-*=====**===*****$##&&**&==*===&%&&&&=*-==-=+@;6$&",
"@@,>---***---***=******==*=**$$*#&#&&&&*=====&&&&&=&--***;;X@1$@",
"@@,------->;----====***=**&&**$=#&**&&&***=*&%%&&&=-;;-*=*;-X+X+",
"@@1----=&-;&---*==*=**====****$$%#&&&&&&=*=&&&%*--;-*;;***-1*X.X",
"@@4-----*-&@&;--=&=&=&====***&$$*%**&&&*=*&**&&*--1&@&;;=&=;2+XX",
"#@4-&--;;$@@---*==&=&==&*********&*&&%&=*&**%***-=,,@+%;-===1;.X",
"@@4=&=;;&XX&,-**&==&======*=*===*=***&&==********&-3*X@&-;--15XX",
"@+3*&,,&@X&1>**&&&=&&===2:::::2:1,>>>;>>;**&**%*==&;4-X@&;,-;5+X",
"@@3&&4&@X*4,&=-*&&&=&==5:====&==-====*=:2**&&$%***&*;5*+@*3;>5%@",
"X+1&&6;@:81&&&&*&&&&&=:5=++++++o+++X++$=4;&&*$%%&&%&*;5:$;4--7%+",
"X@3-&1667;&&&*&*=&&&&=:65$$$$&&&%%**$$=62=*%%%**%&&***;5661=>5%+",
"XX36-&;:-&&&*&&&$&=====:6655666756555554;******%%&&*****;;=;65@+",
"XX-96-&&&&&&=-&=$=&$=&==&===========**********&&*&*=**=***-59;+X",
"XX+;0844444444445555552::::::::::::::::::::11111<111:22211301#X+",
" XX+:1:2111;1111:::::::=:=::====::=:==;:22255555555556655562%++X",
"X XXXXXXXX@XX+XX+X+X+X+X+ooooo$oooo+++X+X++++++++X+@+$++@@++++X+"
};
