/* XPM */
static char *sp_wall3[] = {
/* columns rows colors chars-per-pixel */
"64 64 222 2 ",
"   c #000C04",
".  c #000C0C",
"X  c #041104",
"o  c #0A1A06",
"O  c #01120C",
"+  c #000E13",
"@  c #000F1A",
"#  c #031A14",
"$  c #0B1912",
"%  c #021B1C",
"&  c #141C11",
"*  c #10210E",
"=  c #0A2418",
"-  c #142717",
";  c #22311E",
":  c #001424",
">  c #001C23",
",  c #00162A",
"<  c #001A2C",
"1  c #001C34",
"2  c #001E3A",
"3  c #042323",
"4  c #0B2B26",
"5  c #02242B",
"6  c #06292C",
"7  c #012434",
"8  c #042C34",
"9  c #092B37",
"0  c #00223C",
"q  c #012D3A",
"w  c #093134",
"e  c #05313C",
"r  c #0A353C",
"t  c #0E393C",
"y  c #354436",
"u  c #002443",
"i  c #002A44",
"p  c #0C2D46",
"a  c #00274A",
"s  c #002A4C",
"d  c #043341",
"f  c #0C3A43",
"g  c #01324C",
"h  c #083849",
"j  c #0A3D4A",
"k  c #002C53",
"l  c #002E5A",
"z  c #003353",
"x  c #0A3A52",
"c  c #003A5C",
"v  c #133452",
"b  c #153B5A",
"n  c #323A48",
"m  c #003563",
"M  c #003A65",
"N  c #003C6C",
"B  c #123C67",
"V  c #003F70",
"C  c #0F414C",
"Z  c #0B4254",
"A  c #09455B",
"S  c #0D485C",
"D  c #16445C",
"F  c #34464A",
"G  c #35474A",
"H  c #3D4D55",
"J  c #074767",
"K  c #0C4A63",
"L  c #01426D",
"P  c #194A65",
"I  c #10516B",
"U  c #014374",
"Y  c #064976",
"T  c #024778",
"R  c #044B7B",
"E  c #0B4D7D",
"W  c #134B79",
"Q  c #18547B",
"!  c #244E65",
"~  c #2E556A",
"^  c #375A6E",
"/  c #3A6178",
"(  c #424D5B",
")  c #4E5755",
"_  c #43515D",
"`  c #48545D",
"'  c #5E625F",
"]  c #4D5769",
"[  c #505B6E",
"{  c #535E72",
"}  c #5F6461",
"|  c #556175",
" . c #596477",
".. c #586577",
"X. c #5A6579",
"o. c #5D697E",
"O. c #646766",
"+. c #676A69",
"@. c #64707E",
"#. c #054F80",
"$. c #094F80",
"%. c #075182",
"&. c #0B5384",
"*. c #0D5788",
"=. c #0E598A",
"-. c #125484",
";. c #175886",
":. c #135B8C",
">. c #1B5D8C",
",. c #145F90",
"<. c #195F90",
"1. c #265C84",
"2. c #255E89",
"3. c #1E608E",
"4. c #166192",
"5. c #1C6393",
"6. c #276389",
"7. c #23618D",
"8. c #2C648C",
"9. c #396585",
"0. c #32658A",
"q. c #396789",
"w. c #35698D",
"e. c #3C6B8C",
"r. c #236592",
"t. c #2A6791",
"y. c #266997",
"u. c #2C6A93",
"i. c #336C92",
"p. c #3A6E91",
"a. c #3C7194",
"s. c #3A749B",
"d. c #446985",
"f. c #4C6D84",
"g. c #426D8B",
"h. c #486D88",
"j. c #5B6C81",
"k. c #44718E",
"l. c #4C728C",
"z. c #57758A",
"x. c #53758D",
"c. c #5B798E",
"v. c #447292",
"b. c #4B7591",
"n. c #497998",
"m. c #547993",
"M. c #527994",
"N. c #5C7C92",
"B. c #626E84",
"V. c #697486",
"C. c #65738A",
"Z. c #69768C",
"A. c #647C8E",
"S. c #717D8D",
"D. c #627E91",
"F. c #6D7B92",
"G. c #717E94",
"H. c #5C829C",
"J. c #6D818F",
"K. c #71828F",
"L. c #658093",
"P. c #6B8293",
"I. c #61859C",
"U. c #6B879B",
"Y. c #748393",
"T. c #778598",
"R. c #7D8C99",
"E. c #5682A1",
"W. c #6C8EA4",
"Q. c #778DA1",
"!. c #7993A5",
"~. c #7D9AAE",
"^. c #7C9BB0",
"/. c #838E9B",
"(. c #85929D",
"). c #8A929D",
"_. c #8A93A3",
"`. c #8A9AA3",
"'. c #8594A8",
"]. c #839CAD",
"[. c #8D9CAC",
"{. c #8A9AB5",
"}. c #8D9EBA",
"|. c #93A1AE",
" X c #8FA0B3",
".X c #95A5B2",
"XX c #9AA8B3",
"oX c #93A3BD",
"OX c #99A6BB",
"+X c #9CAABC",
"@X c #A3AFBA",
"#X c #96A6C1",
"$X c #97A8C2",
"%X c #9BABC5",
"&X c #9DAEC9",
"*X c #9FB0CD",
"=X c #A1AFC4",
"-X c #A0AFC8",
";X c #A5B2C5",
":X c #A4B2CA",
">X c #AAB8CC",
",X c #A6B7D3",
"<X c #AABBD6",
"1X c #ACBED9",
"2X c #B0BDD2",
"3X c #AFC0D1",
"4X c #AFC0DB",
"5X c #BAC7DB",
"6X c #B3C6E1",
"7X c #BBCCE6",
"8X c #BFD1EB",
"9X c #C0CEE3",
"0X c #C2D3EC",
"qX c #CAD8ED",
"wX c #C6D7F2",
"eX c #C7D9F6",
"rX c #CBDBF5",
"tX c #C7DAF8",
"yX c #CCDEF9",
"uX c #D0DEF3",
"iX c #CFE0FB",
"pX c #D2E2FC",
/* pixels */
"n ] j.B.C.Z.Z.C.Z.C.C.F.C.F.F.F.G.G.F.G.G.G.G.F.F.F.Z.Z.F.G.G.G.G.F.Z.C.B.F.G.G.G.G.G.Z.Z.Z.G.G./.G.G.G.F.C.C.C.C.F.F.T.F.C.] n ",
"( Z.{.:X,X<X<X,X,X,X<X<X<X1X1X1X2X1X1X1X1X<X6X2X1X<X<X<X1X6X6X1X2X1X<X<X<X<X6X1X4X4X4X1X1X1X2X6X6X6X<X6X4X<X<X<X<X4X5X5X4X$XZ.H ",
"j.'.4X7X,X1X0XeX6X6X6X6X6X5X6X6X5X6X6X1X2X4X4X1X2X<X6X<X1X2X2X1X6X1X1X2X1X<X1X1X4X4X1X6X4X4X4X1X6X1X<X6X4X4X4X4X4X4X4X<X7X7X!.j.",
"{ }.7X'.Z.Z.*X6XF.G.G.G.S.G.G./.Y.G.G.Z.S.V.V.V.S.S.S.G.S.S.G.G.G./.T.T./.T././././.'.'./._._././.).).).).).(.)._.(.).`.G.<XoX{ ",
"j.oX2X/.G.C.'.4Xo.D b v v v v v v v v v v b b B B B W -.-.W -.6.5.r.u.u.s.s.v.v.n.M.N.N.E.D.G.G.Q.Q.Q.Q.!.!.!.(.R.(.(.@X[.oXoXo.",
"Z.$X2XG.V.oX_.7X/ s g g s s i q 2 2 2 u u a k l m N V V V B #.%.-.:.=.<.<.r.2.2.u.p.s.n.n.b.n.z.M.N.N.Z.D.A.F.P.P.K.Y.R.@X=X%XV.",
"F.&XwX_.G._.,X0X^ g z z z s s i u a u u a k k l m m N V #.&.#.%.:.-.>.<.>.2.2.w.u.v.v.v.n.n.N.k.N.D.j.z.F.U.P.P.P.Y.G./.@X=X-XF.",
"F.&XyXrX9X9XrX9X~ g c z z s i 0 2 u 2 u u u k k l m N N V #.#.%.*.:.<.<.5.2.2.i.p.p.p.v.b.b.k.z.M.M.D.b.L.L.P.P.P.K.S./.XXoX-XF.",
"C.&XyXiXiXiXpX9X~ c L M c z s i a 0 a 0 a a k l l N m N U T #.*.&.,.<.y.5.1.1.8.w.w.v.v.k.k.k.d.x.H.c.L.L.L.K.K.Y.Y.Y.R.XX+X%XC.",
"j.&XtXiXiXiXiX9X~ c M c z g s 0 0 1 0 0 0 a a k l m m N N U U T #.-.,.<.<.>.;.2.w.w.w.q.q.q.9.d.k.M.N.c.c.L.L.L.P.Y.K.K.XXXX&Xj.",
"C.&XtXiXyXiXiXrX^ J L M c z g 1 0 0 0 0 0 a k k l l N N N T #.#.=.:.:.5.y.y.u.y.w.w.w.d.g.d.d.f.z.c.H.z.L.L.K.L.K.J.K.K.|.+X&XB.",
"B.&XwXtXyXiXiXwX/ M J c z z i 0 0 0 1 1 2 0 a a k m m N U T T #.&.$.,.,.,.y.r.y.u.u.w.w.w.v.g.v.x.M.x.f.c.L.L.A.z.K.K.R.|.+X&XB.",
"j.&XyXtXyXyXiX8X/ c L J J z k i a 0 2 a u u a k l m N V U T #.&.*.:.,.5.y.y.y.s.s.s.w.g.q.d.g.b.f.x.x.f.z.L.L.A.L.K.Y.R..X+X$Xo.",
"j.%XtXtXyXyXiXwX/ J L J c z s q 2 1 1 1 2 2 a a k l m N U T T #.%.$.,.,.5.5.y.y.i.i.i.w.q.w.b.b.k.x.f.d.x.c.L.A.K.L.L.U.|.oX$Xo.",
"X.&XyXyXyXiXiX0X~ c U L M c z i u 2 2 2 u u a a k m N N U T T #.%.-.:.<.5.y.y.s.u.p.s.v.v.g.v.b.k.x.f.x.L.L.j.A.L.L.A.U..X+X%XX.",
"{ $XyXyXyXiXpX0XH q M J J z s i u 2 , 2 , 2 u a a k m N U U T T %.%.*.,.4.5.y.y.i.u.w.s.w.9.g.g.x.d.d.f.x.L.x.x.c.c.D.U. X+X$X| ",
"{ $XyXyXiXiXpXwXG , s z M c z i i 7 1 0 2 0 i a k l m N V U T #.#.&.:.:.<.r.u.y.u.w.s.p.2.d.v.v.k.d.d.x.z.N.j.N.N.N.D.U..XOX%X{ ",
"{ $XtXyXiXiXiX0XG % q 6 7 q s i 0 7 1 1 1 1 2 i a k l m N U U T $.#.#.:.<.<.5.r.u.2.i.w.9.p.9.v.g.f./ d.9.9.9.b.M.z.D.D.[.OX$X{ ",
"{ %XtXyXiXiXiXwXG > q 1 6 < 0 0 0 2 2 2 2 0 0 a a l m N m N U #.%.*.,.,.<.y.u.u.u.2.8.9.v.v.9.d.d.g.9.q.9.d.d.j.z.z.D.D. XOX$X{ ",
"{ &XyXyXiXiXpX8XG > q 6 > O # @ # : : < 1 1 2 2 a l l m m m N U #.%.$.*.:.,.5.5.u.2.1.8.p.8.9.8.8.8.1.w.8.v.v.b.x.N.D.D..XOX%X{ ",
"{ $XiXiXiXiXpXwXG < q 7 6 > # . . @ @ , 1 2 i i a l l m V V T T R %.,.:.,.<.5.y.u.8.2.8.u.2.1.0.8.w.w.9.9.b.h.M.c.c.D.P..X%X%X{ ",
"{ $XiXiXiXiXpX0XG % q 6 > : @ @ @   @ . @ , , 1 u a l l N V V T #.#.*.:.:.-.-.<.<.>.>.>.>.<.>.u.2.1.1.w.p.g.v.N.M.N.N.N.[.OX$X] ",
"{ $XtXiXiXiXpX0XG 6 h q 6 % : # . @ @ @ @ , , 0 u a k l m N N V #.%.#.#.$.$.*.:.:.,.,.>.<.<.2.u.6.8.8.i.9.v.b.b.N.H.z.f._.OX%X{ ",
"[ $XtXtXiXiXpXwXn 6 8 q < : @ # . . . @ @ @ , , , 2 a a k l m m V V V #.R R #.#.$.$.=.:.,.>.>.5.2.1.8.w.w.9.v.v.x.x.x.x.].OXoX[ ",
"{ %XyXiXpXpXpX0XG 6 h q 6 < % @ @ @ . @ @ @ : , 2 0 a k k l m m m V V T #.#.#.%.*.*.*.,.,.<.r.r.2.6.i.i.q.q.v.M.M.x.c.L.|.+X%X| ",
"[ $XiXiXpXpXpX0XG 3 e q 6 : # #   . .   @ @ , , , 2 2 0 a k l m N m V V V #.#.#.#.*.*.,.,.5.<.<.6.r.i.i.p.a.v.b.M.x.c.H.].+X%X[ ",
"| &XiXiXpXpXpX0XG 6 g e 7 6 : # @ . @   . @ , , 1 2 0 a a l l m m V V V V #.T V #.*.,.,.,.,.<.r.r.u.u.i.w.v.b.b.N.k.M.I.].&X&X| ",
"{ :XpXpXpXpXpX0XG 6 e q q < # #   . . . @ @ @ , , , 1 2 a a k k l l V V V V V #.#.#.*.*.*.-.<.<.>.r.u.u.w.a.v.v.k.{ z.I.].@X+X| ",
"| ;XpXpXpXpXpX0XG q C e q 6 % # . . . . . @ @ @ , , 1 2 u a k k l l V V V V T #.R $.$.&.U -.-.=.-.r.u.i.w.p.v.b.k.M.N.I.].@X:X .",
"{ ;XpXpXpXpXpXuX} 6 z e 0 6 > # @ . .   . . @ @ , , 1 2 2 u a k m m V V V #.T V R #.$.*.-.>.W -.>.>.2.2.w.w.a.b.N.M.N.I.].;X=X| ",
"{ %XpXiXpXrXpXuXO.9 h h 8 6 6 # O . . . . @ @ @ @ , 1 2 u u a k l l m V V V V #.#.#.$.*.=.:.:.:.<.<.r.6.w.i.a.b.k.x.M.H.].=X%X{ ",
"| &XpXiXpXpXpXuXO.q h e q 3 6 O . .     . . . @ @ , , 1 2 u a a k m m k m V V V R V #.$.E =.:.,.<.r.r.u.w.a.a.v.x.k.x.M.].@X;X| ",
"+.>XpXpXpXpXpXuX+.8 g h q 6 6 % @ .       . @ . @ , , , 1 2 a k k l m m m V V V R R R Y *.*.-.-.>.r.r.r.i.i.v.k.b.k.M.N.].=X=X{ ",
"X.@XpXpXpXpXpXuXO.e A C e 0 6 = O . .   . . . @ , , , , 1 1 a a k l m m N V V V U R R Y $.$.#.-.:.<.r.u.w.w.w.g.b.b.D.N.].:X:X{ ",
"X.;XpXpXpXpXpXuX+.e A h e q 6 % # .         . @ @ @ , , , 1 0 0 a k l m m N V V V U R R $.$.$.-.:.>.:.5.r.8.1.w.k.b.N.M.'.=X:X{ ",
" .:XpXpXpXpXpXuX+.r S Z h 8 q > # O .     . . @ @ @ , , , 1 2 0 a l m m m N V T R R R Y $.$.Y -.:.>.r.y.u.w.w.9.k.b.b.M.{.=X:Xo.",
" .:XpXpXpXpXpXuX+.r A Z e 8 6 = # #         . . @ @ @ : : , , 2 u a k l m m N V V U U V Y $.$.$.-.-.-.r.y.u.w.v.v.b.b.I.^.=X:XX.",
" .:XpXpXpXpXpXpX+.r K Z h C 8 6 > # O       . . @ @ @ : 1 1 i a a k l m N N V V R U U R Y &.&.*.:.:.>.r.u.i.p.b.b.N.b.M.].;X:X .",
" .>XpXpXpXpXpXuXO.r K Z h 8 e 3 % # .       . . @ @ @ @ : 1 1 2 u a k l m m N N V V U V R $.#.*.:.*.>.r.y.8.8.w.v.b.k.b.~.=X:X .",
" .>XpXpXpXpXpXuX+.C L A h f e 6 6 % O O         @ @ @ , , 1 1 2 u a k l m m N N V R U V #.$.$.*.:.:.<.r.u.i.w.v.g.b.x.b.~.;X:X .",
" .;XpXpXpXpXpXuX+.r K Z h f 8 6 = # O O         . @ . @ @ : , 1 2 2 a k k l m N N N V N U Y $.*.&.,.4.3.6.u.w.a.k.k.b.E.!.;X;XX.",
" .;XpXpXpXpXpXuX+.f I A Z f t 8 6 % # O           @ @ # @ , 1 2 u a k k l N N V V U U U U Y $.*.=.4.5.3.y.u.a.a.v.k.b.b.!.;X:X .",
" .:XpXpXpXpXpXuX+.r K Z h h 8 6 6 # # X         . . @ @ @ @ , < 1 2 u a k k l m N N N N N R R E &.=.,.4.y.u.u.w.q.k.b.b.!.;X;X .",
"X.:XpXpXpXpXpXrXO.f I A S Z f 8 6 # # # .         @ . @ : , , 1 2 u a k l m N N m N N N V U U :.=.5.5.5.u.u.i.q.b.k.b.b.~.;X:Xo.",
" .:XpXpXpXpXpXuXO.t I A Z h r w 3 # # O X         . @ . @ # : , 1 1 0 a k k l l c m N m N M N Y %.=.=.5.5.y.u.w.a.k.k.q.~.;X:Xo.",
" .:XpXpXpXpXpX0X} C I I S Z f e r 3 % # O O     O . # # # : < < 1 u a k k k l N N V U U U N R U %.=.5.5.y.u.w.a.k.k.x.k.~.>X:X| ",
" .:XpXpXpXpXpXeX} t I A Z Z r r 3 3 = # O X         . @ @ @ : : 1 1 0 0 0 0 k k l N N N N N L U %.E =.5.3.6.8.w.a./ k.a.^.;X;X .",
" .:XpXpXpXpXpXqX} C I I A Z h r r 4 = % O X X X .   @ # : : > 1 2 u a a k k k l m N N N L U R $.&.=.:.&.Q Q w.a.v.k.k.n.^.;X;Xo.",
"X.:XpXpXpXpXpXrXO.t I D S C f t w 3 = # # X       . O . @ # : , < 1 1 2 0 a a k c m N N m M U R R E Y -.>.5.w.p.p.E.v.s.^.>X:X .",
" .;XpXpXpXpXpXrX} t I I S S C t r 6 3 = # # X X X O # # # : , , < 1 1 0 0 0 a l m m N N M U U Y E E &.;.5.6.w.w.p.q./ E.^.>X@XX.",
"{ &XrXyXpXpXpXrX} 4 S D C f t w 3 = $ & o X X X X   . . @ @ # : > < < 1 2 2 0 a k k l l m M U U U E &.-.5.>.r.u.i.9.0.s.~.;X%Xo.",
"X.&XeXyXyXpXpXiX).- t t t w 4 4 4 = $ X o X X X O . . # # # : > < < 1 2 2 a k a k k l l c M L U R E -.Y ;.>.5.u.w.w.p.s.^.*X+X| ",
"| %XyXyXpXpXpXpX5Xy = ; - = * * o o o o X X X X X   O   # # : : > , < 1 1 1 i i s k s k l m m N U R Y E Q :.3.3.Q 6.u.u.W.>X$X..",
"X.:XuXpXpXpXiXiXuX`.; - - = * o o X o X X X X X X O O @ . @ # # > > < 1 1 1 i 0 s k k k l m N N U U Y Y Y ;.-.Q Q 3.6.u.W.>X*X..",
"X.:XpXpXpXpXuXpXpXrX`.y * - = * = - & & & $ # $ # # % # % # < < 7 0 7 9 u p a v v p v x x x v D D D P b P ! ! ! ~ ~ ~ / K.@X>X..",
"X.:XpXpXpXpXpXiXiXiXuX3XK.) y H ` ` ` ` ` ` ] H ` ( ( ` ( ` ( ] ( H ] ( ` ( H ] H H ` ` ` H ` ` ` ` ` ( ` ` ` ( ` ` ' ..!.6X*X..",
"o.>XuXqX5X7XwXuXiXiXiXiXiXqX8X8X8X8X8X8X8X8X8X8X8X8X8X0X8X8X8X8X0X0X8X8X8X0X0X0X8X0X0XuX9X0X0X0X0X0X8X7X8X8X8X8X8X8XqX8XrXiX;X@.",
"o.>XwXoXT.T.<XrXiXiXiXiXiXiXiXiXiXiXiXiXpXpXiXiXiXiXiXpXiXiXiXiXyXyXyXyXiXiXiXpXiXiXpXpXpXpXpXpXpXiXiXiXiXtXiXiXiXiXpXpXiXpX;X..",
"{ >X5X[._.Z.[.wXiXiXiXiXpX3X.X.X|..XXX XXXXXXXXXXXXX{..XXXXX.X.X.X.X.X.X.X.X.X.XXXXXXXXXXXXXXXXXXXXXXXXX.X X.X.X.X.XXXqXpXiX;X..",
"{ -X2X_.G.OX[.rXpXiXiXiXiX@X`.~.`.`.`.`.`.`.`.`.`.`.`.`.`.`._.`.`.`._.`.`.`.`.`.`.`.`.`.`.`.`.`.`.`.`.`.`.`.`.`.~.`.`.qXpXiX*X..",
"B.=XqX[.R.[.1XpXiXiXiXtXiXiXiXiXiXrXiXiXtXiXiXiXiXiXiXwXyXtXtXtXyXyXyXyXyXyXrXtXyXiXrXiXiXpXiXiXiXiXrXrXiXiXtXiXiX8X8XiXpXiX:X..",
"o.%XqXqX5X7XrXrXiXtXtXtXrX0XiXrXiXtXwXwXtXwXwXtXiXwXwXiXtXtXtXtXwXtXtXyXyXtXyXtXeXrXeXrXrXiXiXrXiXiXiXeXtXtXtXyXiXiXiXiXiX0X&X..",
"B._.-X-X#X+X%X+X X#X}.#X X X.X%X$X$XoX{.oXoXoX+X$X%X#XoX#X{.{.{.oX{.{.{.oXoXoXoX+XoXoXoXoX+X$X$X+XoXoXoX}.^.}.#X X#XoX$XoXoX~.@.",
"( B.C.B.D.B.j.j.x.X.X.X.X...| o.X.X.o.| | X.| o.o.j.X.| { { X.{ X.| ] { { { | | | X.o.o.o.o.o.j.X.X.| | { [ [ { [ | | .. .@.o.] "
};
