/* XPM */
static char *sp_wall2[] = {
/* columns rows colors chars-per-pixel */
"64 64 192 2 ",
"   c #323A48",
".  c #273E6D",
"X  c #29416F",
"o  c #284070",
"O  c #374C75",
"+  c #354E7D",
"@  c #3B527E",
"#  c #414A5B",
"$  c #4B5567",
"%  c #515B6F",
"&  c #455675",
"*  c #4C5A74",
"=  c #535E73",
"-  c #505F79",
";  c #556175",
":  c #566278",
">  c #5A667B",
",  c #5E6A7E",
"<  c #606B7F",
"1  c #2F4B83",
"2  c #324E85",
"3  c #314F88",
"4  c #395487",
"5  c #33508A",
"6  c #3B568A",
"7  c #3A5C9B",
"8  c #3F63A6",
"9  c #435984",
"0  c #495E86",
"q  c #435C8B",
"w  c #445F93",
"e  c #4B6086",
"r  c #4C628B",
"t  c #5E6A81",
"y  c #51658C",
"u  c #55698E",
"i  c #5C6D8E",
"p  c #4B6595",
"a  c #476498",
"s  c #4A659A",
"d  c #546A94",
"f  c #556B95",
"g  c #5C6F91",
"h  c #576D98",
"j  c #5E7092",
"k  c #5C719B",
"l  c #626E82",
"z  c #667287",
"x  c #66738A",
"c  c #6D788D",
"v  c #637495",
"b  c #6D7B92",
"n  c #637699",
"m  c #66799C",
"M  c #6B7B9B",
"N  c #717E94",
"B  c #4668A7",
"V  c #496EB2",
"C  c #466EB9",
"Z  c #4970B8",
"A  c #4971BC",
"S  c #5478BA",
"D  c #6077A1",
"F  c #657AA1",
"G  c #6B7FA3",
"H  c #4C76C3",
"J  c #4F7BCC",
"K  c #527FD0",
"L  c #6F809E",
"P  c #758197",
"I  c #7A8495",
"U  c #75829A",
"Y  c #79859A",
"T  c #6D80A4",
"R  c #6D82A9",
"E  c #7384A4",
"W  c #7C8AA5",
"Q  c #7687A9",
"!  c #7589AD",
"~  c #7C8DAB",
"^  c #6E8BBE",
"/  c #7389B2",
"(  c #7B8EB1",
")  c #7D91B4",
"_  c #7E93B8",
"`  c #5B84CF",
"'  c #5482D3",
"]  c #5986D7",
"[  c #5786DB",
"{  c #5B8ADE",
"}  c #7692C3",
"|  c #628EDE",
" . c #6591DF",
".. c #5789E6",
"X. c #5A8CE5",
"o. c #5C8FE9",
"O. c #5E90EA",
"+. c #6A97E7",
"@. c #6393EB",
"#. c #6C9AEC",
"$. c #719AE3",
"%. c #729EED",
"&. c #77A1EE",
"*. c #78A2EE",
"=. c #828EA3",
"-. c #818FAA",
";. c #8692A6",
":. c #8A96AB",
">. c #8D99AE",
",. c #919CAF",
"<. c #8394B3",
"1. c #8798B5",
"2. c #8B9AB5",
"3. c #8296B9",
"4. c #8699BB",
"5. c #8D9DBA",
"6. c #929EB2",
"7. c #909FBA",
"8. c #8FA0BB",
"9. c #96A1B4",
"0. c #99A4B5",
"q. c #93A2BD",
"w. c #9BA6BA",
"e. c #9EA9BB",
"r. c #A3ADBE",
"t. c #A7B0BF",
"y. c #879DC3",
"u. c #8AA3CE",
"i. c #93A4C2",
"p. c #98A7C2",
"a. c #97A8C4",
"s. c #9CABC4",
"d. c #9DAECA",
"f. c #83A1D6",
"g. c #9AAFD3",
"h. c #9DB1D3",
"j. c #A1AEC5",
"k. c #A4B1C5",
"l. c #ABB5C4",
"z. c #AFB8C7",
"x. c #A6B3CA",
"c. c #AAB5C9",
"v. c #AFBACD",
"b. c #A4B6D4",
"n. c #A7B8D6",
"m. c #ACBCD6",
"M. c #ACBDD9",
"N. c #B0BED5",
"B. c #94B4EC",
"V. c #95B7F2",
"C. c #97B8F3",
"Z. c #99BAF3",
"A. c #AFC0DB",
"S. c #B7C4D9",
"D. c #B3C3DC",
"F. c #BECADE",
"G. c #AEC1E0",
"H. c #B5C6E2",
"J. c #BBCAE3",
"K. c #B6C9E9",
"L. c #BBCDEA",
"P. c #BFD1EE",
"I. c #BED3F4",
"U. c #C5CCD7",
"Y. c #D6D8DC",
"T. c #DADBDE",
"R. c #C0CEE6",
"E. c #C4D4ED",
"W. c #C9D5EA",
"Q. c #CDDAEE",
"!. c #D6DEEA",
"~. c #C3D6F3",
"^. c #C6D9F6",
"/. c #C6DAFA",
"(. c #CBDDFA",
"). c #D1DFF5",
"_. c #D0DFF9",
"`. c #DDE0E5",
"'. c #CFE0FB",
"]. c #D6E2F5",
"[. c #D3E3FC",
"{. c #D9E6FB",
"}. c #DEE9F9",
"|. c #E3EBF6",
" X c #EAEEF5",
".X c #E4EDFB",
"XX c #E9F0F9",
"oX c #ECF2FC",
"OX c #F6F6F6",
"+X c #F3F6FC",
"@X c #F6F9FD",
"#X c #FFFFFF",
/* pixels */
"$ = l l t l l = > l t l , , , , t , < , , , > > ; > % % % $ = = ; = = = ; t t , > = = - & O X O O O & - * - t , t t l x x x , $ ",
": :.s.s.s.e.s.s.s.s.e.s.s.s.s.q.q.8.s.q.8.8.8.8.8.8.8.8.8.8.8.8.8.8.8.8.8.8.a.a.8.8.8.8.) g @ 6 e & 1.8.a.9.8.a.a.a.q.s.s.s.:., ",
"b M.(.Q.U.E.].[.'.].'.'.'.'.(.'.'.'.'.'.'.^.'.'.^.^.'.'.'.I.'.I.I.I.'.I.^.'.'.'.'.'.I.'.H.E 0 - e a K.^.^.^.^.'.(.^.F.F.Q.(.q.l ",
"N D.^.e.:.P S.{.[.[.[.[.[.[.[.].[.[.[.[.[.'.'.'.'.'.'.'.'.'.'./.'.'.'.'.'.'.'.'.[.'.'.'.L./ e a j d P.'.'.'.[.[.'.A.>.Y :.Q.k., ",
"N D.N.>.6.N w.^.[.[.[.[.{.[.[.[.[.[.[.[.[.[.[.[.'.'.'.'.'.'.'.'./.'.'.'.'.'.'.'.'.'.'.[.L./ r y j y P.'.'.'.'.'.Q.>.9.P =.S.t.> ",
"P D.m.I c 6.9.].[.[.[.[.[.[.[.[.'.[.'.'.[.[.'.'.'.'.'.[.'.'.'.'.'.^.'.'.'.'.'.'.'.'.'.[.L.! y u k d P.'.'.'.'.'.Q.,.c :.:.D.s.> ",
"N D.E.6.N =.N.[.[.[.'.[.[.[.[.[.[.[.[.[.[.[.[.'.'.'.'.'.'.'.'.'.'.'.'.'.'.'.'.'.'.'.^.'.H.! y y n d H./.^.^.'.'.^.c.Y Y 8.Q.c.< ",
"b D.[.E.D.J.].[.[.[.'.[.[.'.[.[.[.[.[.[.[.[.[.[.'.'.'.'.'.^.'./.'.'.'.'.'.'.D.( 1./ / ! L a 4 0 u e F R R / ! / K.'.D.S.Q.[.c.< ",
"U F.[.{.{.{.[.[.[.{.[.[.[.'.[.{.[.{.[.{.{.[.[.[.[.'.[.[.[.'.[.'.'.'.{.'.'.'.g.n ( ( E U j e j 1.8.8.r y U / ( ( h.'.{.[.{.[.c.t ",
"u $.Z.Z.Z.Z.Z.Z.Z.Z.Z.Z.Z.Z.Z.Z.C.C.C.C.C.C.C.C.C.C.C.V.V.V.V.V.V.V.Z.Z.Z.Z.^ T j u L G v e j U 1.( r y M k e / } B.C.C.C.Z._ O ",
"1 J o.o.o.o.o.o.O.o.o.o.o.O.O.O.O.O.O.O.O.O.O.O.o.o.o.o.o.o.o.o.o.o.o.o.o.O.Z g m j L n v 0 d M / L 0 e j E k T Z o.o.o.O.O.Z o ",
"+ ' O.O.O.o.O.O.O.O.O.O.O.O.O.O.O.O.O.O.O.O.O.O.O.o.o.o.o.o.o.o.o.o.o.o.o.o.' 7 d p a q 6 + O @ @ @ + 4 6 r s 8 ' O.O.o.O.O.8 . ",
"1 J o.O.O.O.O.O.O.O.O.O.O.O.O.O.O.O.O.O.O.O.O.O.O.O.O.O.o.O.O.o.o.o.O.O.o.O.O.X.X.[ ' H 8 2 6 a e + 7 H [ [ [ ..O.O.O.O.....C o ",
"2 ' O.O.O.O.O.O.O.O.O.O.O.O.O.O.O.O.O.O.O.O.O.O.O.O.O.O.O.O.o.o.o.o.O.O.O.o.O.O.o.o.O.O.' 7 6 h ! a Z X.O.o.o.O.O.O.O.O.O...8 o ",
"1 ' O.O.O.O.O.O.O.O.O.O.O.O.O.o.O.O.O.O.O.O.O.O.O.O.O.O.O.o.O.O.o.O.O.O.o.O.o.O.O.O.O.O.[ 8 6 h / p ' O.O.O.O.o.O.O.O.O.O.O.H o ",
"1 ' O.O.O.O.O.O.O.O.O.O.O.O.O.O.O.O.O.O.O.O.O.o.O.O.o.O.O.O.o.o.o.O.O.O.o.O.O.O.O.O.O.O.[ 8 6 h _ s [ o.O.O.o.O.O.O.O.O.O.O.C o ",
"5 ' O.O.O.O.O.o.O.O.O.O.O.O.O.O.O.O.O.O.O.O.O.O.O.O.O.O.O.O.O.O.O.O.O.O.O.O.O.O.O.o.O.O.[ 8 6 h _ s [ O.O.O.O.o.o.o.o.O.O.O.Z o ",
"1 J O.O.O.O.o.o.o.O.O.o.O.O.O.O.O.O.O.O.o.O.O.O.O.O.O.O.O.O.O.o.O.o.O.o.O.O.O.O.O.O.O.O.[ 8 6 h _ s { O.O.O.O.O.o.o.o.O.O.O.Z o ",
"1 H O.O.O.O.o.o.O.O.O.O.O.O.O.O.O.O.O.O.O.O.O.O.O.O.O.O.O.O.O.O.o.o.o.o.O.O.O.O.O.O.O.O.[ 8 4 g _ s [ O.O.O.o.o.o.o.O.O.O.O.Z o ",
"1 ' O.o.O.O.O.o.O.O.O.O.O.O.O.O.O.o.O.O.O.O.O.O.O.O.O.O.O.O.o.o.O.O.o.O.O.O.O.o.O.O.O.O.' 8 4 d _ s X.#.O.O.o.o.O.O.o.O.O.O.Z o ",
"1 J O.O.O.o.O.O.O.O.O.O.O.O.O.O.O.o.o.O.O.O.O.O.O.O.O.O.O.O.O.O.o.O.O.o.O.O.o.' ' ' J ' Z a 1 a R w Z ' ' H ' ' o.O.O.o.o.o.H . ",
"3 H o.o.o.O.O.O.O.O.O.O.O.O.O.O.O.O.O.O.O.O.O.o.O.O.O.O.O.O.O.O.o.O.O.O.O.O.H d ! R k d y 6 0 T ! D 6 e d E R h ' O.O.O.O.o.A o ",
"3 J o.o.O.O.O.O.O.O.O.O.O.O.O.O.O.O.O.O.O.O.O.O.O.O.O.O.O.O.O.O.O.O.O.O.O.O.Z T T L E E x y n ( a.8.y u M U k 4.` ' O.O.o.o.A o ",
"3 ' O.o.o.O.O.O.#.O.O.O.O.O.O.O.O.O.O.O.O.O.O.O.O.O.O.O.O.O.O.O.O.O.O.O.o.O.Z T g g L L n e j L / E e u k T r Q Z | O.O.O.o.C X ",
"1 ` o.X.o.o.o.o.o.o.o.o.o.O.o.O.o.O.o.o.O.o.o.o.o.O.o.o.O.O.O.O.o.o.O.O.o.O.Z r g d u d r 6 0 u j d @ 6 r g g d ] X.o.O.O.O.Z o ",
"d $.Z.B.V.V.V.V.V.Z.Z.Z.C.C.C.C.Z.Z.Z.Z.C.C.C.C.C.C.C.C.C.C.C.C.C.C.C.Z.C.C.B.f.u.y./ D y 6 + 9 + O y D _ _ u.f.B.Z.C.Z.C.B.3.@ ",
"P D.'.'.'.'.'.[.[.[.[.[.[.{.[.[.[.[.[.[.[.[.[.[.[.[.[.[.[.{.[.[.[.{.[.{.{.{.{.{.{.'.'.I.g.j 9 j E r ) P.[.{.{.{.{.{.[.{.{.'.c.> ",
"c D.'.'.'.'.'.'.[.[.[.[.[.[.[.{.[.[.{.[.[.[.[.[.[.{.[.[.[.[.[.[.[.{.[.[.[.[.[.{.{.'.[.{.J.! a j 4.k h.[.{.[.{.'.{.{.[.[.{.[.s.> ",
"x A.I.I.I.I.I.'.'.I.'.I.'.I.'.I.'./././././.'./././.'./././.'./.'.I.'./.'././.'.'.^././.H.! a h ) k K./.'./././.'.I.I.'.'.'.a.= ",
"2 ' #.#.#.#.#.#.#.#.#.#.#.#.#.#.#.#.%.%.#.#.#.#.#.#.#.%.#.#.#.#.#.#.#.%.#.#.#.#.#.#.#.#. .B 2 d ! p  .#.#.#.#.#.#.#.%.#.#.O.` o ",
"+ J O.o.O.O.O.O.O.O.o.O.O.O.O.O.O.O.O.O.O.O.O.O.O.O.@.O.O.O.@.O.O.O.O.O.O.O.O.O.o.o.o.o.{ B 2 g F w [ #.O.O.O.O.o.O.O.O.o.o.8 o ",
"1 ' O.O.O.O.O.O.O.O.O.O.O.O.#.O.O.O.#.O.O.#.O.#.@.@.#.O.O.@.#.O.#.O.#.O.#.O.#.O.#.o.#.#.o.B 6 d k w { O.#.O.O.O.O.O.O.O.o.O.Z X ",
"3 K o.o.o.O.o.o.o.o.@.@.@.@.@.@.@.#.@.+.#.@.+.@.@.+.@.+.@.+.@.+.O.#.#.#.O.#.O.#.+.+.@.@. .V 6 h k a | @.o.@.@.o.@.o.o.o.o.o.C . ",
"6 ] #.+.#.#.#.+.#.%.#.#.%.%.%.%.%.%.&.%.%.&.*.*.*.*.*.*.&.&.&.%.&.&.&.&.&.&.&.%.*.%.*.*.$.S q d h p +.%.%.%.#.%.%.#.#.+.#.+.A . ",
"m H./.(./.(.(./.(.(.^.~././.(.(.(.^.(.(.(.(.(.(.(.(.(.(.(.(.(.(.'.(.'.'.^.'./.(.(.(.(.(.E.y.d j g g L.(./.~.(.(.(.(./.(.(./.p.= ",
"U J.[.[.[.[.[.[.~.g.y.a.6.a.a.s.s.s.p.j.p.d.p.j.s.d.s.s.s.x.p.a.a.a.a.a.s.s.s.s.s.j.s.d.p.-.n v n v 5.a.a.a.d.).[.{.[.[.[.[.x.= ",
"P J.[.[.[.[.[.~.1.U :.:.:.6.9.9.7.w.w.w.p.r.w.r.r.r.w.w.w.w.w.w.e.r.w.w.e.e.e.e.e.e.w.w.e.e.r.9.w.w.6.:.:.:.E ( ~.{.[.[.[._.x.= ",
"N H.(.[.[.[.[.3.U :.Y n m E E W -.-.-.-.-.-.-.-.-.-.:.1.:.:.1.:.:.( :.:.:.( :.:.~ :.:.-.-.-.~ W Q Q Q M M Q :.U 3._.[.[.)._.x.= ",
"N H.[.[.[.[.(.9.6.E ~ y.g.b.n.n.m.N.m.m.m.m.m.m.M.m.m.M.M.M.N.m.m.m.m.S.A.M.M.M.m.m.m.m.m.M.m.m.N.n.n.g.7.1.Q ,.9.(.[.[.[.(.p.= ",
"Y J.{.[.[.{.(.2.:.:.7.h.P.].[.}.|.{.|.{.{.|.|.{.|.|.{.|.|.|.{.{.|.{.{.|.{.|.{.{.|.{.|.{. X{.}.}.{.|._.~.b.9.:.>.7.(.[.[.(.(.s.= ",
"Y J.[.[.[.[.[.2.,.;.t.!.+X#X#X#X@X@X#X#X#X#X#X#X#X#X#X#X#X#X#X#X#X#X#X#X#X#X#X#X#X#X#X#X#X#X#X#X#X#X#X+X!.l.:.6.5.^.[.[.(.(.a.= ",
"Y H.[.{.[.{.^.5.>.r.Y.OX#X#X#X#X#X#X#X#X#X#X#X#X#X#X#X#X#X#X#X#X#X#X#X#X#X#X#X#X#X#X#X#X#X#X#X#X#X#X#X#XOXT.r.6.7.).[._.(.(.p.= ",
"U J.|.[.[.[.].6.,.r.`.OX#X#X#X#X#X#X#X#X#X#X#X#X#X#X#X#X#X#X#X#X#X#X#X#X#X#X#X#X#X#X#X#X#X#X#X#X#X#X#X#XOX`.k.6.7.^.|._.(.(.s.= ",
"Y J.[.[.[.|.[.5.6.6.Y.OX#X#X#X#X#X#X#X#X#X#X#X#X#X#X#X#X#X#X#X#X#X#X#X#X#X#X#X#X#X#X#X#X#X#X#X#X#X#X#X#XOXT.6.9.7.).(.[.[.(.p.= ",
"Y E.{.[.{.{.[.7.9.6.Y.+X@X#X#X#X#X#X#X#X#X#X#X#X#X#X#X#X#X#X#X#X#X#X#X#X#X#X#X#X#X#X#X#X#X#X#X#X#X#X#X#X+XY.6.9.6.^.[.[.(.~.s.: ",
"U J.{.{.{.[.(.9.6.:.j.J.Q. X X X X X+X+X+X+X+X+X+X@X+X+X+X+X+XoX@X+X+X+X+X+X+XoX+X+X+XoX+X+X+XoXXX X XQ.E.c.:.w.q.^.[.[.[.(.s.; ",
"Y J.{.{.{.[.).9.9.-.9.b.J.E.W.!.].{.].|.|.{. X|.|.|.|.|. X X X X X X}. X X X{. X X X{. X X}.}.!.!.Q.E.J.m.9.:.w.a._.[.[.[.^.a.= ",
"b F.[.{.[.].[.5.9.:.U. X+X+X+X+X+X+X#X+X+X#X+X+X@X@X@X@X@X+X@X#X@X#X+X@X@X@X@X#X+X@X@X@X+X+X+X+X@X@X+X+X XU.6.9.w.~.[.[.(.^.s.= ",
"U J.{.{.{.{.[.9.9.7.Y.OX#X#X#X#X#X#X#X#X#X#X#X#X#X#X#X#X#X#X#X#X#X#X#X#X#X#X#X#X#X#X#X#X#X#X#X#X#X#X#X#XOXY.9.e.9.^.[.[.[.(.s.; ",
"U J.[.{.{.{.^.9.6.6.Y.+X#X#X#X#X#X#X#X#X#X#X#X#X#X#X#X#X#X#X#X#X#X#X#X#X#X#X#X#X#X#X#X#X#X#X#X#X#X#X#X#XOXY.9.9.9.^.{.^.(.(.s.> ",
"U J.[.{.[.{.(.5.6.,.!.#X#X#X#X#X#X#X#X#X#X#X#X#X#X#X#X#X#X#X#X#X#X#X#X#X#X#X#X#X#X#X#X#X#X#X#X#X#X#X#X#X#X`.>.9.9.^.[.'.(./.d., ",
"U H.[.[.[.{.).9.6.:.U.{.|.{.|. X|.XX|.|.XXXXoXoXoX+XoX+X+X+X+X+X@X@X+X@XoX+X+XoXoXoXoXoX|.oX|.|.|.|.|.|.{.U.:.9.y.^.[.[.(./.s.t ",
"P J.[.[.[.{.].2.6.W m.~.I.I.I.I.~./.~./.^.(.^.).(.].[.].[.].{.|.{.{.[.].[.)._._.(.(.^.^.(.~.(.~./.I.I.I.I.m.>.6.2.^.'.'.(.^.g.l ",
"b J.'.[.[.[.^.2.,.>.2.h.h.h.h.h.g.n.b.n.n.n.n.M.b.M.m.N.m.m.N.N.N.M.M.N.m.m.m.n.m.b.b.m.b.n.b.g.h.h.h.b.b.2.>.9.2.^.[.'.(./.k.z ",
"N H.[.[.[.{.(.2.9.w.r.w.s.s.d.s.j.l.l.l.k.c.l.c.k.c.x.x.x.l.x.z.x.z.c.x.z.x.x.z.x.x.c.x.l.j.k.k.k.k.s.s.9.e.e.9.1.^.'.'.'.(.g.l ",
"P D._.[.[.[.^.2.,.9.9.r.t.j.l.l.c.k.l.z.z.z.l.c.z.z.v.z.z.v.z.z.v.z.z.z.z.z.z.z.z.z.z.z.l.N.l.l.l.k.k.l.k.e.9.,.1.^.[.'.'.(.k.l ",
"N D.[.^.U.W.^.~ Y 9.9.;.v v v v M b F M b M M M M M M M N M F M M N m M M M M M n G b n M M b n m n v v :.9.6.W ~ ~.R.U.^.(.d.b ",
"U H.E.w.:.N z.~ y U 2.W n m m m M G G Q E G ! ! Q Q Q ! Q ! ~ ! Q Q Q Q Q Q Q Q ( Q E E E E E G m m m m W 9.U y ! j.;.N ;.!.d.b ",
"Y J.N.:.:.b 9.D.T 0 m :.9.e.j.e.k.k.a.k.k.k.k.k.k.c.k.b.k.k.j.j.x.k.x.x.x.x.z.x.j.l.j.j.j.k.j.j.j.e.e.9.:.v 0 G m.:.5.c I v.s.x ",
"U H.N.N x 5.6.].E.5.g i g i i v j j j j v j v j g x g g c j g g j x g j j j x j j j j g x j j j i v i i d j 4.I.I.:.l U Y m.a.> ",
"N D.J.:.l Y m.[.[.[.J.s.a.a.a.y.p.a.i.a.a.a.i.a.a.i.i.i.a.a.i.a.i.a.a.a.a.a.a.y.a.a.a.a.a.a.a.a.a.a.i.i.a.H./.(./.k.b c :.L.5.> ",
"b n.^.H.m.D.^.[.[.[.[.[.[.(._.(._.{._._./._._.{._._._._.(._._._.(._.(._.(.)._.).(._./.(.(.[.(.[.[.[.(./.(.(.(././.E.D.k.H.H.:.> ",
", ( j.M.M.H.D.D.S.M.D.D.D.D.D.D.H.G.M.M.M.M.N.M.G.N.n.M.n.b.M.M.N.H.N.M.n.n.m.M.M.D.M.D.M.M.D.D.A.M.m.m.n.n.n.n.b.n.n.n.g.1.x # ",
"% > x c x P b b N c b P b b U U N N b x b b N Y M b c j c b N N N M N b b b b M b U b b b c b P b b b c b x x x x c x c l , $   "
};
