/* XPM */
static char *sp_wall4[] = {
/* columns rows colors chars-per-pixel */
"64 64 72 1 ",
"  c #121716",
". c #171C1C",
"X c #181E1E",
"o c #1A201F",
"O c #1D2423",
"+ c #1F2729",
"@ c #1F2829",
"# c #202827",
"$ c #202728",
"% c #242C2C",
"& c #27302F",
"* c #252F30",
"= c #273131",
"- c #2A3434",
"; c #2D3837",
": c #2D3738",
"> c #2E393A",
", c #313C3D",
"< c #35403F",
"1 c #343F40",
"2 c #364243",
"3 c #394546",
"4 c #3B4847",
"5 c #3A4748",
"6 c #3D4A4C",
"7 c #3F4E50",
"8 c #404D4F",
"9 c #43524F",
"0 c #414F51",
"q c #445355",
"w c #485855",
"e c #465659",
"r c #485759",
"t c #47585B",
"y c #4A5B5D",
"u c #4E605F",
"i c #4D5E61",
"p c #505F61",
"a c #4F6164",
"s c #4F6569",
"d c #516365",
"f c #566867",
"g c #536669",
"h c #55696C",
"j c #596B6E",
"k c #566D71",
"l c #5A6E71",
"z c #5C7175",
"x c #5E7579",
"c c #5E797D",
"v c #617477",
"b c #61767A",
"n c #637A7D",
"m c #687C7D",
"M c #657D81",
"N c #697E81",
"B c #668185",
"V c #6C8286",
"C c #718587",
"Z c #71868B",
"A c #728A8D",
"S c #76908F",
"D c #758D91",
"F c #788F93",
"G c #769093",
"H c #799295",
"J c #7B959A",
"K c #7E989E",
"L c #80999E",
"P c #839CA2",
"I c #86A1A7",
"U c #8AA4AA",
/* pixels */
"+;<;#&%&-&--;&&&-%%%%%%%*-*+,8<%%<4,%&;&%%*$*$*$%*+$%%%%%%-%>3>#",
"%qjy-uf42shjj3,ugse,>7qe72>-ybu;&ubd;<6jkkh55gkkh55iiie11ee-ezu&",
"%qzu;NbwqbALmwqbVVh7qslzieq-umf&&umf-qyZPKM07MJJb77MGAk77gk-yzu&",
"#qu9-fyywhzzdpydxzeiyiggeie-yfe%#ujw&ypzVZgrekMMgrikkk7eeii-wfq&",
"%<7eO-&%*----%*->>---:::-%+%57s#&8yd%%%>11:*@:*:*%%:%*:%%;-&4wy#",
"%<7q@6sdaaagdgggagashkzzsi5-6ey@&6qy%3eyggggaaiiiiiissskjs7-4ee%",
"%yxu-exxxxxlzxxxxcxccMNBMMi:gVg--dbd-rbMbMMbMxbxxxMMMMMBMxy;fbs%",
"%sAh-es66567066qe67656655ki:hHb>&jGz>shq0770e700eq6555663gu-hAz-",
"#sAk:ia2%+$3gi6eg2:*=%$$6jd-jFv;-fSb>sg6-$#3gi6ed3-%%%++6gi-hSb;",
"#szi*ak1++X=5dg06,%%%%XX6jp-fnp=&dbu-sh2%oX-6pg03,%$%$X.5ge%gbs-",
"&4ei@ak1.%:5iq0gi51=%%X+8jp;8pp&&8yu*kb,$%,6iq0py6,&#$.+5gy-8yy#",
"&<77%ss:%2es7,$:rg03:$&30gp;8wy&&8yp%zb,-6rgw,%,yd83&+*26gi-4yu%",
"&ybs%ss56iy3-%+X$5ii630i0gi,gNj=;jmf-zbqwgi5-=$X%5sy336pqdu,jCj-",
"-hAh@ss668;&%%%%oX>egr0r8gy,vLv;;zLz-lx8ry1-&&&$XX-0se0rqjp,bLb-",
"-jHz*saey5,-&#$$++160ps06gy,bLn;&bLm-zxsdq3:&&&$o+,50iiq8gp;bIb;",
"&dbu-ak5qiq3,#++-5ig5,0gqgy-jNd=&zNf-zbqigy5,=$$-5yi2-qg0gu;jCj;",
"&2qy#ak2$&qi6,-2qge1%++,7gi-5rd&=8rd*lx7=>igq1>1ege,%o%38dy,8pd&",
"-2qw%gk2+.+3dy6qd5-%%+.+5gi-3er%&3ri*kb5&o$6gy6rd5-%%%o$6jp,3yp-",
"-dmd-sk>+X.*6ia06>%%%#XX5ge:gNg=&gNg-kx2%$o:0gdq5>%%%%+o5gp;jCj;",
"&hAz-hk>X+:5y0qsy51-%%oX5ai:jDb--jDb:lx1$$10pe0dy5,*%%XX8gy,vFm,",
"-gVk-sk>%2ei7>+:egq3;$o;7ai:hAk:&gFb:kb1-5pgw;$-rdq2>%+,0gi,jFn;",
"%ehe@kk56sy2-@+O$3di6,3q7ae:iki*&pjr:lx0wgp5-%$X+5ii6,2e0gy>dbp-",
"%27e@kk7yq>%%%@@+X-edq8p7ae:17i%-3qp*kx0pe1=%%%$+X-qgr0grgp,5wp&",
"%>6e*szeq3-%@%@++.*20iiq6ie*17i%&,0y*lzi05>*%%%$+.%30dgeqgp>3qp=",
"*7sq*sktie2:@@+++:6ir10d8ie*ii7*$0hi:kxegi61=$$+$:0pi1ehwgp>iji:",
"-eks=sk216t61*+%3wge;$$35de-7si*%exa:kx51ege5-+*1ipr1$%50gr,pMg:",
"-ezi*ss1..:ee117di3-%#X+5ie-tki**eli@kx5$+1ip557gi1=%$o$5pi>iMh:",
"@ee6@ss:@. @7t77q:%%%%XX5ie-ii7%*ri7*kx2*o.:rge0q>&=$*oo5gr=iae=",
"%16i+ss1o.+:27ti01-%%%oX2ie*17i+%577+kx1+o$:7ipi61**%*oo6ii=5ei%",
"%>77@ak=.*1et217de5>%$X.1i0-17e%=57i@kz:o=5ei5:0pi51*%oo6sq11ei@",
"-7ki%sz217t71*o+,yd02-+-6sq*igi*=iai:zz55eie1%o+:ii71=o16pe=ihi*",
"-iMk:kM6tt5:**@@o*6dy5107ge-iMk**iMs:sz7ap5:*$$+o*7pi65q7he1iMh=",
"-dVl-kxew,&%%%%%+.+1ei7q0pq-gZl=*sMk:kxer3=&%%$#$XO,ydqe0gr:dVj-",
"*pli-kxiq3-%%%%$+o%260iy0dq-pli=%iki-kbi03>&&%&$$X&30qdd0gy:dby-",
"-5rp*kbiji8,&%$+$,6ii,>q6iq-5rp*-57i*lMige53-%$+$>8py,,r0gr>8yd%",
"-3ri*kb61rdq3-$-2rgq>$X%5i0=3ri%-2ei-kx5,wgr8;$$1rdq-+X%5gr>3yp*",
"-gVg:kM5$+,pi650sy3-%%XX5ie*ibi**iba*kM1$+,di035yy2-%$oX3ge:dNg-",
">jHb:kc5%+X-yge0q,%%%%XX5iq:gDl*-aAk*kx5%+X-rgq56:%$%%oo3de>jFb:",
";lJb>kb3$o%1qydp8,-%$$oo5ge:gDx**aAh-ak1$+*30rdp5,*$%%Xo5se:gHb-",
"-jNd:lb1$:5id6,0dy3,%+o:5ge-gbi*-axi-kx>+:5ig5>0i0,>%+o-5ie:pzi-",
"-8yd=zM61egr1-$$2dd01-105ge*5ei%-5es*zx610ie1&+$:ei7>-106iq-17e+",
"-5pd-lb0ep5:%*%$+-0gi6qd7ge:5ei*:5yp-xM7es5*%%$oX*5ir7ei6i7*17e@",
"-jZl:kMir8,&&&&%XX,6yge65ge-gVx:-kVz>xMie6,%%%$$oX:1igq66s0%ixg*",
":bJV>xMdgp01-&%$$,0i77gp7g0-lKN:*lPV>lMili7,-%+++:5i65ii6gq-kJx-",
">zJV1xM01rgr5>$:5ydw-$1r5he-bPZ>-xPV:lMq1egw5-+=1eiq*+-q6gq=kJM-",
":xVj:kM7$$1gd05qgp3&%$+-0ke-vNl-*bCj:kM6$o1gp550ii5-%o.*5ke*kMg=",
":qyd*lM5%$X>pgrqr1&&&%o+0xr>0id&=ryp*kM6%+ -rgeqe,*%%%.X5ke-0rp%",
":qyd-xM5$$%1ryggq3;%&&+X0br>0yd%=qpd-zM5$+%,erpi02:*%%Xo5lr-0ri*",
",bFm1xM2+>8dg8,wli51:&O$0bi>MFN>:bFN>xM2$:8pd3>0gi51=$X$5be:xAb,",
",NUD1kM72egy3-$$1pgq5=-5rNi,VUF>:NUD>zM73yjr,&++1dgq3==30xe:MPZ:",
",NUA1zMrds5,&&%$$=0gp0qgrNi>NUZ:-NUD>xMedg8-%%$+o=0gi50peMe:NPA:",
":NZz>lMye6-=&==&$o$5rgrreMi>MVl--bVl:kMrr8-&%%%%$X$3rgqq0Me:MVl:",
",yyg=lMggq1>&-&&$$>5rqgprBe:eip%:yed&hbgd03-*%%$+%,0e0ppeMe:0qi%",
">wpp-lNypgi8,;$%>8ip0:1iiVi>qyp&:qyp=hbyigy81*++:5gj0-,reMe-0ey%",
"-bZb1lb0=>pgw3,8rgp1=$o=iMi>bDb,-zZz,gb8=>igq1:1wgp5:$O-rBe-lZl:",
":bPN,gN0&O$qlp0wg8-$%&ooeMi:bPN>-bLN,gb8%+$0hi77d5:===OXeMr-lLb:",
";jLm,dnp0815ilpir51113>1qpw,jLm;-jLv;pbw8315rgq60211333,0kr-gFb-",
";dvd,pnmNNAVVNMMNNMNMMMbvNw;dvd;-dbu;pnnNZVVNNMMMbMMNbmmxMr-dby-",
";8pp&8ddjlvvllzlllglllllvj8;9pd--4yd;qggllllzlhghhjhjljjlj5-3wp&",
";,wp&;;&=>111:::,,>--:>,1=&;8wp&-3yu&=,,>,,;:1111--,,,,;-1,-3qp&",
"&pgp,jdpyvnNjgpjnnypipjhrpi-pvp;=pvp>ppvNZbggNDFzdpbmbpdddd;wjy-",
";pmj3CmpyCLPNrrNFFjrqjMMpiq:dmj,;dmj,wyZPUZypFUUZyyDLHbwyjb,dmj-",
";pvd,dd98jvvg88glgi51ipgp51>pvd;;png>38gbbbwqbVNmrqbbju8<py<pbd-",
"&,83&;&-;;,>>;;>>:=::::1::>=383-&883->>>::->;>,>--,,;;-&&&&-26,%"
};
