/* XPM */
static char *space2[] = {
/* columns rows colors chars-per-pixel */
"64 64 112 2 ",
"   c #000000",
".  c #000001",
"X  c #000101",
"o  c #010101",
"O  c #010102",
"+  c #010202",
"@  c #020202",
"#  c #020203",
"$  c #020303",
"%  c #030303",
"&  c #030304",
"*  c #030404",
"=  c #040404",
"-  c #040405",
";  c #040505",
":  c #040506",
">  c #050506",
",  c #050606",
"<  c #050607",
"1  c #060607",
"2  c #060708",
"3  c #070708",
"4  c #070808",
"5  c #070809",
"6  c #080809",
"7  c #08080A",
"8  c #08090A",
"9  c #09090A",
"0  c #09090B",
"q  c #090A0B",
"w  c #0A0A0C",
"e  c #0A0B0C",
"r  c #0A0B0D",
"t  c #0B0B0D",
"y  c #0B0C0D",
"u  c #0B0C0E",
"i  c #0C0D0E",
"p  c #0C0D0F",
"a  c #0C0E0F",
"s  c #0D0E0F",
"d  c #0D0E10",
"f  c #0D0F11",
"g  c #0E0F11",
"h  c #0F1012",
"j  c #0F1013",
"k  c #0F1113",
"l  c #101114",
"z  c #101214",
"x  c #111214",
"c  c #111215",
"v  c #111315",
"b  c #121315",
"n  c #121416",
"m  c #121417",
"M  c #131417",
"N  c #131517",
"B  c #131518",
"V  c #131618",
"C  c #141618",
"Z  c #141619",
"A  c #141719",
"S  c #15171A",
"D  c #15181A",
"F  c #15181B",
"G  c #16181A",
"H  c #16181B",
"J  c #16191B",
"K  c #17191B",
"L  c #17191C",
"P  c #171A1C",
"I  c #171A1D",
"U  c #181A1D",
"Y  c #181B1E",
"T  c #191B1E",
"R  c #191C1F",
"E  c #1A1C20",
"W  c #1B1D21",
"Q  c #1B1E21",
"!  c #1B1E22",
"~  c #1C1E22",
"^  c #1C1F22",
"/  c #1D2023",
"(  c #1D2024",
")  c #1E2024",
"_  c #1E2124",
"`  c #1E2125",
"'  c #1E2225",
"]  c #1F2226",
"[  c #1F2326",
"{  c #202327",
"}  c #202428",
"|  c #212428",
" . c #212529",
".. c #23262B",
"X. c #23272B",
"o. c #24282C",
"O. c #26292D",
"+. c #26292E",
"@. c #262A2F",
"#. c #282C30",
"$. c #282C31",
"%. c #2A2E33",
"&. c #2B2F34",
"*. c #2B2F35",
"=. c #2C3136",
"-. c #2D3136",
";. c #34383E",
":. c #343A40",
">. c #363C42",
",. c #3A3F46",
"<. c #3A4046",
"1. c #3D434A",
/* pixels */
"                                                      h                                                                         ",
"                                                    3 b                                                                         ",
"                                                                                                d &.                            ",
"                                                                                                7 E                             ",
"                              7                                                                                                 ",
"                              U                       E                                                                         ",
"                                                                    7                                       H                   ",
"                                              7                     H                                       d                   ",
"                                        H   @.@.                                                      7 E                       ",
"                                    5 b _ 7                                                           7 U                       ",
"          S                           7                             7 |                                                         ",
"          >.7                                                       5 H                                                         ",
"                  -.                                                                                                            ",
"                  7                                                                   <.H                                       ",
"                                                                                      H 7                                       ",
"    | d                                 H                                                                                       ",
"    b 3               7                 7                                   H                     S                             ",
"                    7 S                                                     | 5                 7 _                             ",
"        7 7                                                                                       3                   3 U       ",
"      5 @.                                                                                                              }       ",
"                                                                              &.E                                               ",
"            S _                                                               b 7                                               ",
"            7 7             S 7       7 U                                                                                       ",
"                          7 @.7                                                                                                 ",
"                          &.U                                                                                                   ",
"                                                                                  7 @.}         H           3 7                 ",
"                                                                                  U           h |           7 b                 ",
"                                                                                  b       _ b h                                 ",
"                                                                                          b 7                             E 5   ",
"  7 7                                                                                                                     H b S ",
"  @.7               b E                                                                                                         ",
"                    7 b                                                                                                         ",
"              7                     U                                                                                           ",
"        d H   H                     7                                                                                           ",
"                                                              H 7                                                               ",
"                                                H                           d 3   b b                                           ",
"          7 S                                   7                           h 3                             7 H                 ",
"                                                                                                                                ",
"                                                                                                                                ",
"                                  >.7                                                                                           ",
"                                  H                                                                                             ",
"                                                            U                                                           d H     ",
"                                                            d     5 -.                    H             d             U }       ",
"                                                                                          | 7           H                       ",
"h 7                                                                                                                             ",
"E U                                                   7                                                                         ",
"                                                    H _                                               7                         ",
"                                                                                                      H                         ",
"                                        H 7                                                                               7 1.  ",
"                            3                             -.                      _                                         7   ",
"                                                          7       S _           7 E                                             ",
"                          b ;.                                    d E 7                                                         ",
"                  1._     7 @.                                                                                                  ",
"          S 7     7                 b                                                                             H             ",
"                                    b                                                                 &.h         | h 5         ",
"                                                                                                      5               U   b     ",
"                                                                                                                  E 3     7     ",
"                                                                                                                  _ 7           ",
"                                                                                                                                ",
"                                                                                                                                ",
"                                                                                                                                ",
"                                                                                                                                ",
"                                                                                                                                ",
"                                                                                                                                "
};
