/* XPM */
static char *wool100x64[] = {
/* columns rows colors chars-per-pixel */
"64 64 179 2 ",
"   c #08151C",
".  c #0F1421",
"X  c #0C1B23",
"o  c #0C1E29",
"O  c #131C2C",
"+  c #181F30",
"@  c #0E232E",
"#  c #16232B",
"$  c #0F2632",
"%  c #102732",
"&  c #182D37",
"*  c #1A2338",
"=  c #122C3A",
"-  c #192E39",
";  c #14303F",
":  c #20272B",
">  c #232A2D",
",  c #293338",
"<  c #313639",
"1  c #363A3D",
"2  c #3A3D3F",
"3  c #173645",
"4  c #183747",
"5  c #163748",
"6  c #1B3749",
"7  c #173849",
"8  c #193949",
"9  c #1B3F50",
"0  c #212D4A",
"q  c #2E3A41",
"w  c #22304C",
"e  c #203F4E",
"r  c #3B3E41",
"t  c #243252",
"y  c #273559",
"u  c #1D4153",
"i  c #1E465A",
"p  c #1E495E",
"a  c #3E4144",
"s  c #37444C",
"d  c #244354",
"f  c #284654",
"g  c #23495D",
"h  c #324E5C",
"j  c #1E4D64",
"k  c #1F516A",
"l  c #244D62",
"z  c #2C4F60",
"x  c #334368",
"c  c #235167",
"v  c #25546B",
"b  c #28566D",
"n  c #355362",
"m  c #3B5563",
"M  c #3E5966",
"N  c #3D5C6C",
"B  c #314973",
"V  c #344872",
"C  c #255A73",
"Z  c #295A72",
"A  c #245E7A",
"S  c #325C70",
"D  c #3E517F",
"F  c #25617E",
"G  c #2A617D",
"H  c #34637A",
"J  c #414447",
"K  c #424648",
"L  c #45494B",
"P  c #484C4F",
"I  c #454D52",
"U  c #4A5256",
"Y  c #445158",
"T  c #4C555A",
"R  c #405967",
"E  c #4E5B63",
"W  c #425C6A",
"Q  c #505B61",
"!  c #46606D",
"~  c #49626F",
"^  c #52636E",
"/  c #59656B",
"(  c #426170",
")  c #4C6572",
"_  c #4E6C7A",
"`  c #586771",
"'  c #526A76",
"]  c #5B6C76",
"[  c #566E79",
"{  c #5D6F79",
"}  c #5B727D",
"|  c #636C73",
" . c #677076",
".. c #6A7175",
"X. c #60707A",
"o. c #6D7479",
"O. c #70777C",
"+. c #71797E",
"@. c #3F5281",
"#. c #266583",
"$. c #2B6683",
"%. c #2C6885",
"&. c #2B6B8A",
"*. c #2F708F",
"=. c #307799",
"-. c #425686",
";. c #44598B",
":. c #425A95",
">. c #5C7581",
",. c #45609F",
"<. c #617681",
"1. c #697D87",
"2. c #647C88",
"3. c #6E7E88",
"4. c #757C82",
"5. c #787F85",
"6. c #707F88",
"7. c #4864A6",
"8. c #4965A8",
"9. c #516EB6",
"0. c #5371BD",
"q. c #5776C4",
"w. c #5778C7",
"e. c #5878C7",
"r. c #597AC9",
"t. c #5B7ED3",
"y. c #6B818B",
"u. c #798086",
"i. c #74858E",
"p. c #7E858B",
"a. c #6F8793",
"s. c #758690",
"d. c #758993",
"f. c #7A8B94",
"g. c #7B8E98",
"h. c #7E9099",
"j. c #6084DE",
"k. c #6389E8",
"l. c #838A8F",
"z. c #838D95",
"x. c #888F94",
"c. c #828F98",
"v. c #899096",
"b. c #82929B",
"n. c #8D959B",
"m. c #8E989F",
"M. c #91979F",
"N. c #8597A0",
"B. c #8D9CA4",
"V. c #929DA4",
"C. c #96A0A7",
"Z. c #95A2A9",
"A. c #9BA4AB",
"S. c #9FA8AE",
"D. c #9DAAB1",
"F. c #A1A7AE",
"G. c #A1A8AF",
"H. c #A2ACB3",
"J. c #A7B0B7",
"K. c #A8B0B5",
"L. c #A7B1B8",
"P. c #ADB6BD",
"I. c #AFB8BF",
"U. c #B0B9BF",
"Y. c #ADBBC2",
"T. c #B3BBC2",
"R. c #B7C1C6",
"E. c #B9C1C6",
"W. c #BDC4C9",
"Q. c #C0C7CC",
"!. c #C2C9CE",
"~. c #C5CCD1",
"^. c #C9CFD3",
"/. c #C6D0D5",
"(. c #CCD3D7",
"). c #D2D8DC",
"_. c #DBE1E3",
"`. c #E5E8EA",
"'. c #ECEFF0",
/* pixels */
"U v.U.P.P.P.P.P.P.P.Y.P.P.P.P.I.P.P.P.P.P.P.P.P.P.P.P.P.P.P.P.P.P.P.P.P.P.P.P.P.P.P.P...b &.G G *.=.%.# U P.P.P.P.P.P.P.P.Y.F.r ",
"P v.U.P.P.P.P.P.I.Y.Y.Y.I.I.I.I.P.R.Y.P.P.U.Y.P.P.P.T.R.P.P.P.P.P.P.P.Y.P.P.P.U.P.P.P...c $.Z v A &.%.$ I P.P.P.P.P.P.P.P.P.F.r ",
"P v.I.P.T.B.) N ! ! ! N ! N ! ! N N ( N N N N N m n 1.P.P.P.P.P.P.P.P.P.P.P.P.P.P.I.K...g Z g l z G $.$ P P.Y.P.P.P.P.P.P.P.S.2 ",
"P x.P.T.Y.) k #.A A C A A #.A #.#.#.&.#.#.F &.#.#.F g b.T.P.P.P.P.P.P.P.P.P.P.P.P.P.P...d Z d g l v $.@ U P.P.P.P.P.P.P.P.P.S.2 ",
"P v.P.T.P.W A C v p u g g 9 g z l H Z k S c Z %.H #.k g.R.L.P.P.P.P.P.P.P.P.P.P.P.P.P...d b d u u l G $ U P.P.P.P.P.P.P.P.P.G.r ",
"P x.P.T.J.N #.p a.d.z H.Y.<.Y.L.H./.Z.D./.N.P.W.y.F j f.R.P.P.P.P.P.P.P.P.P.P.P.P.P.P...8 c u 8 9 g Z % U J.H.H.L.L.K.K.H.P.S.2 ",
"L x.P.T.H.n C z ~.~.f.L.N V.G.W R./.N.R._.D.).(.>.k p f.P.P.P.P.P.U.P.P.P.P.P.P.P.P.P...e g u u 8 u C % U C.m.S.S.C.S.C.V.V.S.2 ",
"L x.P.T.H.n j 2._._.D.W.c.B.T.h.R.(.B.Z.`.Y.R.'.a.j p a.R.P.P.P.P.P.P.P.P.P.P.U.P.P.P...8 l 8 8 8 u v % U S.S.P.P.P.P.I.U.S.C.2 ",
"L v.P.T.L.n j N f.f.! } i.m y.1.} f.} X.f.' y.d.n l p s.T.P.P.P.P.P.P.P.P.P.P.P.P.P.P...- g 8 8 8 u c % P S.S.P.P.P.P.P.P.S.V.r ",
"L v.P.P.J.n k 7 3 3 u f d d 8 d d 8 u d d u 7 7 j C p s.T.P.P.P.P.P.P.P.U.P.P.P.P.P.P...& p 8 8 8 8 g $ U S.C.I.P.P.P.P.P.S.S.r ",
"a v.P.Y.H.n j 7 3 3 _ h.1.y.1.b.1.1.1.b.y.y.d 8 p A p s.T.P.P.P.P.P.P.P.P.P.P.P.P.P.P...- u 8 8 3 8 g @ U S.C.I.P.P.P.P.P.C.V.2 ",
"a v.P.R.H.n p u 5 3 [ [ h ' 1.[ h ' 1.} h [ f 8 u C g s.T.P.P.P.P.P.P.P.P.P.P.P.P.P.P...& u 3 4 8 8 g @ U H.m.B.V.B.M.M.M.m.S.r ",
"L z.P.U.J.h j u 8 8 ' ! h } } ! h [ >.! h } f 3 7 C p s.T.P.P.P.P.U.P.P.Y.P.P.P.P.P.P...& u 8 8 8 8 g @ U P.J.H.H.H.H.H.H.H.S.r ",
"a v.P.U.H.n j j u 8 m } } [ ~ } [ [ ! >.} } e 8 7 j p s.T.P.P.P.P.P.P.P.P.P.P.P.P.P.P...- 8 3 8 8 8 g @ U H.C.S.S.S.S.S.S.S.F.r ",
"J v.P.T.D.n p i u 8 ' h.y.1.X.b.1.1.1.h.1.2.d 4 4 p u s.I.P.P.P.P.P.P.P.P.P.P.P.P.P.P...- u 8 4 8 8 g @ U C.V.P.H.J.J.J.H.S.S.2 ",
"J v.P.U.D.h i 7 u u [ [ h [ y.[ h ' 1.{ h [ f 3 4 9 8 g.T.P.P.P.P.P.P.P.P.U.P.P.P.P.P...- u 8 8 8 8 u @ I S.S.P.P.P.P.P.P.S.C.a ",
"L z.U.P.D.h u 8 8 9 [ W h } <.~ h { <.! h } d 8 3 8 8 g.I.P.P.I.P.P.P.P.P.P.P.P.P.P.P...- 8 3 4 8 8 u @ U S.S.P.P.P.P.P.P.S.C.a ",
"J l.U.P.D.m 8 8 7 7 N >.>.{ W } } [ W >.} } e 4 7 7 8 h.I.P.P.P.P.P.P.P.P.P.P.P.P.P.P...- u 8 8 8 8 u @ U S.C.P.P.P.P.P.U.S.C.a ",
"L l.P.P.S.m 3 8 7 3 [ N.2.1.>.h.2.2.<.h.1.1.d 4 6 3 8 g.I.P.P.P.P.P.P.P.P.P.P.P.U.P.P...- u 3 8 8 8 u @ U S.V.S.H.H.S.H.G.M.C.J ",
"J v.U.P.S.m 3 8 7 7 [ { n [ 1.[ h [ 1.{ h [ f 4 7 6 e s.I.P.P.P.P.P.P.U.P.P.P.P.P.P.P...- u 8 4 8 8 u @ T J.C.V.V.V.V.V.C.C.S.J ",
"J z.U.Y.S.R 8 8 6 7 _ W h >.<.! h } <.! h } d 8 7 8 u g.U.P.I.P.P.U.P.P.P.P.U.P.P.P.P...- u 8 8 8 8 u @ T P.K.P.J.J.J.J.J.K.G.a ",
"J z.P.P.D.! 8 8 7 6 n ) ~ ) M _ _ _ N ) ) ) 8 8 7 8 d g.I.P.P.P.P.P.P.P.P.P.P.P.P.P.P.O.- u 8 8 4 8 u @ T C.m.S.S.S.C.S.C.C.S.a ",
"J x.P.P.H.W u u 9 9 9 9 9 9 9 p p p p p p 9 u u 9 p d b.I.P.P.P.P.P.P.P.P.P.P.P.P.P.P...- 8 8 4 8 8 u $ U S.C.P.P.P.P.P.P.S.S.a ",
"J l.P.P.P.>.d u p e p 9 p 9 9 g u u 9 u u d u u d d ' H.I.P.P.P.P.P.P.P.P.P.P.P.P.P.P.+.- 8 4 8 4 8 8 # T S.C.P.P.P.P.P.P.S.C.a ",
"J l.U.I.I.H.b.i.s.s.s.s.p.s.s.p.i.s.s.i.s.s.s.s.g.V.D.P.P.P.P.P.P.P.P.P.P.P.P.P.P.I.P.O.& 8 8 4 7 8 u @ U S.S.P.P.P.P.P.P.S.V.a ",
"J x.I.P.I.I.I.I.I.I.I.I.I.I.Y.Y.U.U.U.T.T.T.U.U.U.I.P.P.P.P.P.P.P.P.P.P.P.P.P.P.P.P.P.O.- 8 8 8 8 8 8 $ U S.C.P.P.P.P.P.P.S.C.J ",
"J x.I.P.T.P.P.I.K.P.P.K.L.T.T.Y.T.T.T.T.T.T.T.T.T.T.P.T.I.P.P.P.P.U.P.P.P.P.P.P.P.P.I.+.& 8 8 8 8 7 u # T H.m.B.m.m.V.V.M.m.S.J ",
"J l.I.I.T.H.T.I.P.P.P.P.I.I.I.I.T.P.P.U.P.P.T.U.U.T.P.T.U.P.P.P.P.P.P.P.P.P.P.U.I.U.K.+.& 8 8 8 8 8 8 @ T K.J.J.H.J.H.K.J.K.S.a ",
"J z.I.I.U.H.!.I.P.P.P.I.P.P.P.P.P.P.P.P.P.P.P.P.I.T.P.T.I.P.P.P.P.P.P.P.P.P.P.P.P.P.P.+.% 3 8 8 8 3 8 @ T H.C.S.S.S.S.S.C.S.S.a ",
"J l.I.I.T.K.!.I.P.P.P.P.P.P.P.P.P.P.P.P.P.P.P.P.P.T.H.T.P.P.I.P.P.P.P.P.P.P.P.P.P.I.P.+.& 3 8 3 8 8 8 @ T C.V.K.H.H.H.K.J.C.S.J ",
"J l.I.I.I.K.!.I.P.I.P.P.P.P.P.I.P.P.P.P.P.U.P.P.P.P.S.U.I.P.P.P.P.P.P.P.U.P.P.P.P.P.U.4.& 4 8 8 3 8 8 @ T S.S.P.P.P.P.P.P.S.C.J ",
"J x.I.I.I.H.Q.I.Y.I.I.I.P.P.P.P.P.P.P.P.P.P.P.P.P.P.S.P.P.P.P.P.P.P.P.P.P.P.P.P.P.P.I.+.% 3 3 8 8 8 3 @ T S.C.P.P.P.P.P.P.S.C.J ",
"J f.T.P.P.H.W.T.P.P.P.P.P.P.P.P.P.P.P.P.L.T.L.T.J.Y.A.J.J.T.J.T.P.T.P.P.P.P.P.P.P.I.P.+.& 4 8 4 8 4 4 @ T S.S.P.P.P.P.P.U.S.C.J ",
"J c.P.P.P.L.T.P.H.D.D.P.P.P.P.P.P.P.P.L.T.L.T.L.T.Y.A.J.T.J.T.J.P.P.P.P.P.P.P.P.P.P.P.6.& 4 8 4 4 8 8 @ T S.V.D.S.H.D.S.H.V.C.J ",
"J z.P.P.L.H.T.T.T.P.T.T.T.T.T.T.T.T.T.T.T.L.T.T.T.L.F.J.J.T.T.T.P.P.P.P.P.P.P.P.P.P.U.4.& 4 4 4 8 4 4 @ T L.C.V.C.V.C.C.V.C.F.J ",
"J z.T.P.P.P.L.H.H.H.H.H.H.H.H.H.H.H.L.H.H.L.H.H.J.J.J.T.J.Y.J.T.P.P.P.P.P.Y.P.P.P.P.I.4.& 4 4 4 4 8 8 @ T P.J.J.J.J.K.L.H.P.G.J ",
"J z.P.P.P.P.P.T.P.T.P.P.P.P.P.P.P.P.P.P.L.T.P.P.T.T.L.T.T.J.T.J.P.P.P.P.P.P.P.P.P.P.P.4.% 8 8 8 8 4 8 @ Q S.m.S.S.C.S.C.C.V.S.J ",
"J x.P.P.P.P.P.P.P.P.P.P.P.P.P.P.P.P.P.P.T.L.P.P.T.J.T.L.K.Y.J.T.P.P.P.P.P.P.I.P.P.P.P.u.- 3 3 3 3 8 8 @ T S.S.P.P.P.P.P.U.S.C.J ",
"J x.P.P.P.P.P.P.P.P.P.P.L.T.T.L.P.P.P.Y.L.Y.L.T.L.T.L.T.J.T.K.T.P.I.I.P.P.P.P.P.P.P.P.u.- 8 8 8 8 3 8 @ T S.S.P.P.P.P.P.P.S.S.J ",
"J x.P.P.P.P.P.P.P.P.P.P.T.P.L.T.P.P.P.P.T.L.T.L.T.L.T.L.T.J.Y.K.P.P.P.P.P.P.P.P.P.P.P.u.& 4 7 7 8 8 8 @ Q S.C.P.P.P.P.P.P.S.C.J ",
"J x.P.P.P.P.P.P.T.L.T.L.T.L.L.P.P.P.P.P.P.T.P.P.J.T.K.J.T.J.T.Y.P.P.P.P.P.P.Y.P.P.P.P.4.& 4 6 3 6 3 3 $ Q S.S.P.P.P.P.P.P.S.C.J ",
"J x.P.P.P.P.P.P.L.T.L.T.L.T.Y.T.P.P.P.P.P.P.P.P.Y.Y.T.Y.K.T.J.T.P.P.P.I.P.P.P.P.P.P.Y.5.& 4 4 6 7 7 7 $ Q D.m.V.M.M.M.V.m.m.S.J ",
"J l.P.P.P.P.P.P.L.L.L.Y.P.L.L.L.L.L.P.L.L.L.L.P.Y.J.Y.Y.T.T.J.Y.K.P.P.P.P.L.L.P.P.P.P.4.& 4 7 3 3 7 3 $ Q P.J.H.H.H.H.H.H.J.S.a ",
"a p.H.H.F.H.F.H.H.H.H.H.H.H.H.H.H.H.H.H.H.H.H.H.D.F.A.H.A.D.F.D.H.H.D.H.H.D.H.H.D.G.G.4.% 3 3 3 3 3 3 $ T S.D.H.H.H.H.D.S.H.V.r ",
"r 4.M.M.M.M.V.V.M.M.C.M.M.M.V.M.Z.M.M.M.B.B.B.C.V.V.V.V.V.V.V.V.V.V.V.V.V.V.V.V.V.V.V. .% 3 3 = = = 3 o P V.V.V.V.V.V.V.C.B.v.1 ",
"0 <.b.c.c.c.c.c.z.f.c.c.c.c.c.f.c.c.c.f.c.c.c.c.c.z.g.c.h.z.z.z.z.g.z.z.h.c.z.c.c.c.c./ + % = = = = = o s z.b.c.z.h.z.z.g.v.i.< ",
"> / 4.3.4.4.3.3.4.6.6.4.3.3.4.4.3.3.4.4.4.4.6.6.3.3.6.6.3.3.6.6.1.6.6.6.1.6.6.6.1.6.6.Q + @ $ $ $ $ $ X s 6.6.1.1.i.6.6.y.u.X., ",
"> T | >.>.4.;.>.| >.>.>.<.>.>.>.>.>.>.| >.>.4.;.| >.| >.| >.X.X.X.X.X.X.X.X.X.X.X.X.X.Y X @ @ @ $ @ @ X q X.X.X.X.{ X.X.X.X.` > ",
": I ` ^ E E ] ^ ^ ^ ^ ^ ^ ^ ^ ^ Q ) ` ^ ^ ^ Q ) ` ^ ^ ^ ^ ^ ^ ^ ^ ^ ^ ^ ^ ^ ) Q ^ ^ ^ s X o o o o o o X , ) ) ^ ^ ^ ^ ^ ^ ^ E : ",
": U ] | >.| >.| | >.| >.>.| >.| | | X.X.X.X.X.X.X.X.X.X. .| | X.X.X.X.X.X.X. .| { { { I X o o @ o o o X < ] X.X.X.X.X.X.o.<.) : ",
"J p.T.T.T.E.E.E.W.T.W.T.W.E.E.W.W.W.W.W.W.W.W.W.W.W.W.W.W.W.W.W.Q.Q.T.Q.Q.Q.W.E.T.E.Q.p.- 8 4 4 7 3 3 @ Q T.Q.Q.Q.Q.Q.Q.Q.Q.K.J ",
"K n.!.T.Y.T.T.J.T.Y.T.T.T.K.T.T.P.P.P.P.I.P.P.P.P.P.P.P.P.P.P.P.P.P.P.P.P.P.P.P.U.P.W.z.e p 7 6 7 7 7 = / T.T.P.P.P.P.P.I.U.U.P ",
"K n.!.T.Y.J.T.T.J.T.J.T.J.T.J.Y.P.P.P.P.P.P.P.I.L.Y.I.P.P.P.P.P.P.I.I.I.P.P.P.P.P.P.W.l.d g 3 8 7 3 8 3 / T.P.P.J.T.Y.T.I.T.U.P ",
"K n.).^.!.!.!.^.!.!.!.^.^.^.^.!.^.^.^.^.~.~.~.~.!.!.!.!.~.~.!.!.Q.T.Q.Q.~.~.~.~.~.~.!.l.l C 9 9 7 7 9 3 / T.I.T.T.T.T.T.U.T.U.L ",
"r 4.V.K.F.F.F.F.F.F.F.K.F.F.F.K.F.K.K.K.F.F.F.F.F.F.F.A.A.A.A.C.A.C.V.A.F.C.C.C.F.V.V.| 8 g 9 9 8 6 3 @ P x.m.m.n.n.n.n.M.M.l.< ",
"+ V ;.-.-.;.-.-.-.-.-.-.-.-.-.-.-.-.-.-.-.-.-.-.;.-.;.-.-.-.-.-.-.-.-.-.-.-.-.-.-.-.-.x O % % % = % % X w -.-.@.@.@.W -.-.W V + ",
"t 8.t.r.r.r.e.r.w.t.w.w.w.w.w.w.q.r.r.r.q.r.r.r.r.r.r.r.r.r.r.r.r.r.r.t.r.t.r.t.t.t.t.:.6 g 9 9 9 7 0 = x r.r.t.t.w.w.w.w.0.9.0 ",
"0 9.t.t.r.r.r.r.t.w.r.w.r.r.r.r.r.r.r.r.r.r.r.r.r.r.r.r.r.r.r.r.r.r.r.r.r.r.r.r.r.r.t.7.d g 3 7 7 7 7 3 V t.t.r.w.w.w.w.w.t.w.0 ",
"t 8.t.r.r.r.r.e.q.w.t.w.r.r.r.r.r.r.r.r.r.r.r.r.r.r.r.r.r.r.r.r.r.r.r.r.r.r.r.r.r.e.t.,.g l 3 7 7 7 9 3 V t.r.r.w.t.q.t.w.t.r.t ",
"t 8.t.r.r.r.e.r.w.w.w.w.w.r.w.r.r.r.r.r.r.r.q.r.r.r.r.r.r.r.r.r.r.r.r.r.r.r.r.r.e.e.j.7.l l 8 7 8 7 9 0 V t.t.r.t.w.w.w.r.r.t.t ",
"t 7.t.r.r.e.r.q.e.e.r.q.r.w.r.e.r.r.r.r.r.r.r.r.r.r.r.r.r.r.r.r.r.r.r.r.r.r.r.r.r.e.j.7.l v 3 6 7 7 9 3 V t.t.t.r.w.t.t.w.t.t.t ",
"t 8.t.t.t.t.t.t.t.t.t.t.t.t.t.t.t.t.t.t.r.t.t.t.t.r.t.t.t.t.t.t.t.t.t.t.r.t.t.r.t.r.k.,.v v 7 8 6 7 8 3 D t.t.t.t.r.t.t.r.t.t.t ",
"t :.t.t.t.t.t.t.t.t.t.t.t.t.t.t.t.t.t.t.t.t.t.t.t.t.t.t.t.t.t.t.t.t.t.t.t.t.t.t.t.t.t.:.l A Z v g g g = V t.t.t.t.t.t.t.t.t.0.t ",
". * t y 0 0 0 0 0 0 0 0 t 0 0 0 0 0 0 0 0 0 0 0 0 0 0 0 0 0 0 0 0 0 0 0 0 0 0 0 0 0 0 O   o X X X       * t y y t y y y y t t O "
};
